SplineFontDB: 1.0
FontName: ArevSans-BoldOblique
FullName: Arev Sans Bold Oblique
FamilyName: Arev Sans
Weight: Bold
Copyright: Copyright (c) 2003 by Bitstream, Inc. All Rights Reserved.	Modifications: Copyright (c) 2006 by Tavmjong Bah. All Right Reserved
Version: Release 0.21a
FONDName: TavmjongBah
ItalicAngle: -11
UnderlinePosition: -227
UnderlineWidth: 258
Ascent: 1556
Descent: 492
Order2: 1
NeedsXUIDChange: 1
XUID: [1021 99 424017693 356795]
FSType: 4
PfmFamily: 17
TTFWeight: 700
TTFWidth: 5
LineGap: 410
VLineGap: 0
Panose: 2 11 8 3 3 3 4 11 2 4
OS2TypoAscent: 0
OS2TypoAOffset: 1
OS2TypoDescent: 0
OS2TypoDOffset: 1
OS2TypoLinegap: 0
OS2WinAscent: 0
OS2WinAOffset: 1
OS2WinDescent: 0
OS2WinDOffset: 1
HheadAscent: 0
HheadAOffset: 1
HheadDescent: 0
HheadDOffset: 1
OS2SubXSize: 1351
OS2SubYSize: 1228
OS2SubXOff: 0
OS2SubYOff: -446
OS2SupXSize: 1351
OS2SupYSize: 1228
OS2SupXOff: 0
OS2SupYOff: 595
OS2StrikeYSize: 258
OS2StrikeYPos: 614
OS2FamilyClass: 2050
OS2Vendor: 'Tavm'
ScriptLang: 2
 1 latn 1 dflt 
 1 DFLT 1 dflt 
KernClass: 34 36 0 0
 6 hyphen
 112 A Agrave Aacute Acircumflex Atilde Adieresis Amacron Abreve Aogonek uni01CD uni01DE uni01E0 uni01E2 Delta Lambda
 6 B Beta
 65 C S Ccedilla Cacute Ccaron Scedilla Scaron Ccircumflex Cdotaccent
 44 D Eth Dcaron uni01C4 uni01C5 uni01F1 uni01F2
 1 F
 44 G Gbreve gcircumflex gdotaccent gcommaaccent
 20 K Kcommaaccent Kappa
 49 L Lacute Lcommaaccent Lcaron Ldot uni01C7 uni01C8
 151 O Ograve Oacute Ocircumflex Otilde Odieresis Omacron Obreve Ohungarumlaut uni018F uni01D1 uni01EA uni01EC uni022A uni022C uni022E uni0230 Omicron Theta
 5 P Rho
 1 Q
 28 R Racute Rcommaaccent Rcaron
 39 T Tcommaaccent Tcaron uni021A Gamma Tau
 127 U Ugrave Uacute Ucircumflex Udieresis Utilde Umacron Ubreve Uring Uhungarumlaut Uogonek uni01D3 uni01D5 uni01D7 uni01D9 uni01DB
 1 V
 37 W Wcircumflex Wgrave Wacute Wdieresis
 5 X Chi
 62 Y Yacute Ydieresis Ycircumflex uni0232 Ygrave Upsilon Upsilon1
 31 Z Zcaron Zacute Zdotaccent Zeta

StartChar: .notdef
Encoding: 65536 -1 0
Width: 1229
Flags: W
Fore
102 -362 m 1,0,-1
 102 1444 l 1,1,-1
 1126 1444 l 1,2,-1
 1126 -362 l 1,3,-1
 102 -362 l 1,0,-1
217 -248 m 1,4,-1
 1012 -248 l 1,5,-1
 1012 1329 l 1,6,-1
 217 1329 l 1,7,-1
 217 -248 l 1,4,-1
EndSplineSet
Colour: aaaa88
EndChar
StartChar: .null
Encoding: 65537 0 1
Width: 1229
Flags: W
HStem: -362 114<102 1126> 181 34<581 774> 324 34<622 764> 446 34<581 770> 677 33<502 567.5> 816 34<462 578.5> 1006 34<388 522> 1329 115<102 1126>
VStem: 102 115<-362 1444> 462 40<551 850> 581 41<181 324 358 446> 581 189<181 480> 612 43<749.5 785.5> 1012 114<-362 1444>
Fore
795 -189 m 1,0,-1
 681 110 l 1,1,-1
 724 110 l 1,2,-1
 818 -141 l 1,3,-1
 913 110 l 1,4,-1
 955 110 l 1,5,-1
 841 -189 l 1,6,-1
 795 -189 l 1,0,-1
581 480 m 1,7,-1
 770 480 l 1,8,-1
 770 446 l 1,9,-1
 622 446 l 1,10,-1
 622 358 l 1,11,-1
 764 358 l 1,12,-1
 764 324 l 1,13,-1
 622 324 l 1,14,-1
 622 215 l 1,15,-1
 774 215 l 1,16,-1
 774 181 l 1,17,-1
 581 181 l 1,18,-1
 581 480 l 1,7,-1
604 691 m 1,19,20
 617 687 617 687 629 672 c 0,21,22
 641 658 641 658 654 633 c 1,23,-1
 695 551 l 1,24,-1
 651 551 l 1,25,-1
 613 628 l 1,26,27
 598 658 598 658 584 667 c 0,28,29
 570 677 570 677 546 677 c 2,30,-1
 502 677 l 1,31,-1
 502 551 l 1,32,-1
 462 551 l 1,33,-1
 462 850 l 1,34,-1
 553 850 l 2,35,36
 604 850 604 850 630 828 c 0,37,38
 655 807 655 807 655 764 c 0,39,40
 655 735 655 735 642 717 c 0,41,42
 629 698 629 698 604 691 c 1,19,20
502 816 m 1,43,-1
 502 710 l 1,44,-1
 553 710 l 2,45,46
 582 710 582 710 597 724 c 0,47,48
 612 737 612 737 612 764 c 0,49,50
 612 790 612 790 597 803 c 256,51,52
 582 816 582 816 553 816 c 2,53,-1
 502 816 l 1,43,-1
455 1189 m 1,54,-1
 400 1040 l 1,55,-1
 510 1040 l 1,56,-1
 455 1189 l 1,54,-1
432 1228 m 1,57,-1
 478 1228 l 1,58,-1
 592 930 l 1,59,-1
 550 930 l 1,60,-1
 522 1006 l 1,61,-1
 388 1006 l 1,62,-1
 361 930 l 1,63,-1
 318 930 l 1,64,-1
 432 1228 l 1,57,-1
102 -362 m 1,65,-1
 102 1444 l 1,66,-1
 1126 1444 l 1,67,-1
 1126 -362 l 1,68,-1
 102 -362 l 1,65,-1
217 -248 m 1,69,-1
 1012 -248 l 1,70,-1
 1012 1329 l 1,71,-1
 217 1329 l 1,72,-1
 217 -248 l 1,69,-1
EndSplineSet
Colour: aaaa88
EndChar
StartChar: exclam
Encoding: 33 33 4
Width: 934
Flags: W
Fore
432 1493 m 1,0,-1
 793 1493 l 1,1,-1
 680 920 l 1,2,-1
 549 502 l 1,3,-1
 291 502 l 1,4,-1
 319 920 l 1,5,-1
 432 1493 l 1,0,-1
211 356 m 1,6,-1
 571 356 l 1,7,-1
 502 0 l 1,8,-1
 141 0 l 1,9,-1
 211 356 l 1,6,-1
EndSplineSet
Colour: aaaa88
EndChar
StartChar: quotedbl
Encoding: 34 34 5
Width: 1067
Flags: W
Fore
872 1493 m 1,0,-1
 872 938 l 1,1,-1
 635 938 l 1,2,-1
 635 1493 l 1,3,-1
 872 1493 l 1,0,-1
432 1493 m 1,4,-1
 432 938 l 1,5,-1
 195 938 l 1,6,-1
 195 1493 l 1,7,-1
 432 1493 l 1,4,-1
EndSplineSet
Colour: aaaa88
EndChar
StartChar: numbersign
Encoding: 35 35 6
Width: 1425
Flags: W
Fore
1024 872 m 1,0,-1
 760 872 l 1,1,-1
 690 598 l 1,2,-1
 954 598 l 1,3,-1
 1024 872 l 1,0,-1
911 1470 m 1,4,-1
 815 1085 l 1,5,-1
 1079 1085 l 1,6,-1
 1176 1470 l 1,7,-1
 1397 1470 l 1,8,-1
 1300 1085 l 1,9,-1
 1597 1085 l 1,10,-1
 1544 872 l 1,11,-1
 1247 872 l 1,12,-1
 1178 598 l 1,13,-1
 1475 598 l 1,14,-1
 1421 383 l 1,15,-1
 1126 383 l 1,16,-1
 1030 0 l 1,17,-1
 809 0 l 1,18,-1
 905 383 l 1,19,-1
 641 383 l 1,20,-1
 545 0 l 1,21,-1
 322 0 l 1,22,-1
 418 383 l 1,23,-1
 133 383 l 1,24,-1
 186 598 l 1,25,-1
 467 598 l 1,26,-1
 537 872 l 1,27,-1
 254 872 l 1,28,-1
 307 1085 l 1,29,-1
 592 1085 l 1,30,-1
 688 1470 l 1,31,-1
 911 1470 l 1,4,-1
EndSplineSet
Colour: aaaa88
EndChar
StartChar: dollar
Encoding: 36 36 7
Width: 1425
Flags: W
Fore
596 -301 m 1,0,-1
 434 -301 l 1,1,-1
 493 0 l 1,2,3
 366 5 366 5 257 26.5 c 128,-1,4
 148 48 148 48 55 86 c 1,5,-1
 104 348 l 1,6,7
 200 293 200 293 308.5 262.5 c 128,-1,8
 417 232 417 232 537 228 c 1,9,-1
 598 539 l 1,10,11
 388 570 388 570 292.5 650.5 c 128,-1,12
 197 731 197 731 197 874 c 0,13,14
 197 1073 197 1073 346.5 1195.5 c 128,-1,15
 496 1318 496 1318 751 1327 c 1,16,-1
 795 1556 l 1,17,-1
 956 1556 l 1,18,-1
 913 1329 l 1,19,20
 1014 1323 1014 1323 1108 1306 c 128,-1,21
 1202 1289 1202 1289 1290 1262 c 1,22,-1
 1241 1008 l 1,23,24
 1178 1045 1178 1045 1082.5 1068.5 c 128,-1,25
 987 1092 987 1092 868 1099 c 1,26,-1
 811 811 l 1,27,28
 1024 775 1024 775 1126.5 694 c 128,-1,29
 1229 613 1229 613 1229 479 c 0,30,31
 1229 259 1229 259 1078.5 134 c 128,-1,32
 928 9 928 9 654 0 c 1,33,-1
 596 -301 l 1,0,-1
655 836 m 1,34,-1
 706 1098 l 1,35,36
 622 1090 622 1090 572 1049.5 c 128,-1,37
 522 1009 522 1009 522 948 c 0,38,39
 522 900 522 900 554.5 872.5 c 128,-1,40
 587 845 587 845 655 836 c 1,34,-1
754 512 m 1,41,-1
 699 227 l 1,42,43
 798 232 798 232 851.5 275 c 128,-1,44
 905 318 905 318 905 393 c 0,45,46
 905 444 905 444 868.5 472.5 c 128,-1,47
 832 501 832 501 754 512 c 1,41,-1
EndSplineSet
Colour: aaaa88
EndChar
StartChar: percent
Encoding: 37 37 8
Width: 2052
Flags: W
Fore
1565 616 m 0,0,1
 1479 616 1479 616 1423.5 532 c 128,-1,2
 1368 448 1368 448 1368 315 c 0,3,4
 1368 228 1368 228 1398.5 184.5 c 128,-1,5
 1429 141 1429 141 1491 141 c 0,6,7
 1578 141 1578 141 1633 225 c 128,-1,8
 1688 309 1688 309 1688 444 c 0,9,10
 1688 529 1688 529 1656.5 572.5 c 128,-1,11
 1625 616 1625 616 1565 616 c 0,0,1
1593 784 m 0,12,13
 1750 784 1750 784 1844.5 698.5 c 128,-1,14
 1939 613 1939 613 1939 473 c 0,15,16
 1939 249 1939 249 1806.5 110 c 128,-1,17
 1674 -29 1674 -29 1460 -29 c 0,18,19
 1303 -29 1303 -29 1208.5 57.5 c 128,-1,20
 1114 144 1114 144 1114 285 c 0,21,22
 1114 507 1114 507 1246.5 645.5 c 128,-1,23
 1379 784 1379 784 1593 784 c 0,12,13
532 -29 m 1,24,-1
 287 -29 l 1,25,-1
 1522 1520 l 1,26,-1
 1767 1520 l 1,27,-1
 532 -29 l 1,24,-1
594 1520 m 0,28,29
 750 1520 750 1520 845 1434 c 128,-1,30
 940 1348 940 1348 940 1208 c 0,31,32
 940 985 940 985 806.5 846 c 128,-1,33
 673 707 673 707 459 707 c 0,34,35
 302 707 302 707 207.5 792 c 128,-1,36
 113 877 113 877 113 1018 c 0,37,38
 113 1240 113 1240 246.5 1380 c 128,-1,39
 380 1520 380 1520 594 1520 c 0,28,29
563 1352 m 0,40,41
 477 1352 477 1352 422 1267.5 c 128,-1,42
 367 1183 367 1183 367 1051 c 0,43,44
 367 963 367 963 397.5 918.5 c 128,-1,45
 428 874 428 874 489 874 c 0,46,47
 576 874 576 874 631 959 c 128,-1,48
 686 1044 686 1044 686 1180 c 0,49,50
 686 1264 686 1264 654.5 1308 c 128,-1,51
 623 1352 623 1352 563 1352 c 0,40,41
EndSplineSet
Colour: aaaa88
EndChar
StartChar: ampersand
Encoding: 38 38 9
Width: 1786
Flags: W
Fore
877 915 m 2,0,-1
 1174 541 l 1,1,2
 1236 604 1236 604 1281 692 c 128,-1,3
 1326 780 1326 780 1354 895 c 1,4,-1
 1665 895 l 1,5,6
 1622 720 1622 720 1542.5 577 c 128,-1,7
 1463 434 1463 434 1343 322 c 1,8,-1
 1599 0 l 1,9,-1
 1161 0 l 1,10,-1
 1077 106 l 1,11,12
 959 38 959 38 841 4.5 c 128,-1,13
 723 -29 723 -29 600 -29 c 0,14,15
 355 -29 355 -29 206 94 c 128,-1,16
 57 217 57 217 57 416 c 0,17,18
 57 567 57 567 152.5 693.5 c 128,-1,19
 248 820 248 820 449 934 c 1,20,21
 423 978 423 978 410 1023 c 128,-1,22
 397 1068 397 1068 397 1116 c 0,23,24
 397 1292 397 1292 548 1406 c 128,-1,25
 699 1520 699 1520 938 1520 c 0,26,27
 1029 1520 1029 1520 1124.5 1505.5 c 128,-1,28
 1220 1491 1220 1491 1321 1462 c 1,29,-1
 1268 1184 l 1,30,31
 1181 1232 1181 1232 1102 1255 c 128,-1,32
 1023 1278 1023 1278 944 1278 c 0,33,34
 858 1278 858 1278 808 1242 c 128,-1,35
 758 1206 758 1206 758 1145 c 0,36,37
 758 1107 758 1107 788 1048.5 c 128,-1,38
 818 990 818 990 877 915 c 2,0,-1
575 743 m 1,39,40
 495 692 495 692 453.5 625.5 c 128,-1,41
 412 559 412 559 412 483 c 0,42,43
 412 376 412 376 488 302.5 c 128,-1,44
 564 229 564 229 678 229 c 0,45,46
 738 229 738 229 797 250 c 128,-1,47
 856 271 856 271 915 313 c 1,48,-1
 575 743 l 1,39,40
EndSplineSet
Colour: aaaa88
EndChar
StartChar: quotesingle
Encoding: 39 39 10
Width: 627
Flags: W
Fore
432 1493 m 1,0,-1
 432 938 l 1,1,-1
 195 938 l 1,2,-1
 195 1493 l 1,3,-1
 432 1493 l 1,0,-1
EndSplineSet
Colour: aaaa88
EndChar
StartChar: parenleft
Encoding: 40 40 11
Width: 936
Flags: W
Fore
604 -270 m 1,0,-1
 313 -270 l 1,1,2
 235 -104 235 -104 196.5 55.5 c 128,-1,3
 158 215 158 215 158 373 c 0,4,5
 158 668 158 668 285 962.5 c 128,-1,6
 412 1257 412 1257 668 1554 c 1,7,-1
 958 1554 l 1,8,9
 725 1244 725 1244 610.5 940.5 c 128,-1,10
 496 637 496 637 496 332 c 0,11,12
 496 182 496 182 523 32.5 c 128,-1,13
 550 -117 550 -117 604 -270 c 1,0,-1
EndSplineSet
Colour: aaaa88
EndChar
StartChar: parenright
Encoding: 41 41 12
Width: 936
Flags: W
Fore
299 1554 m 1,0,-1
 592 1554 l 1,1,2
 669 1390 669 1390 707 1230.5 c 128,-1,3
 745 1071 745 1071 745 911 c 0,4,5
 745 613 745 613 618.5 318.5 c 128,-1,6
 492 24 492 24 238 -270 c 1,7,-1
 -55 -270 l 1,8,9
 178 40 178 40 293 344 c 128,-1,10
 408 648 408 648 408 954 c 0,11,12
 408 1104 408 1104 381 1252.5 c 128,-1,13
 354 1401 354 1401 299 1554 c 1,0,-1
EndSplineSet
Colour: aaaa88
EndChar
StartChar: asterisk
Encoding: 42 42 13
Width: 1071
Flags: W
Fore
1030 1217 m 1,0,-1
 700 1044 l 1,1,-1
 1030 870 l 1,2,-1
 954 729 l 1,3,-1
 621 913 l 1,4,-1
 621 569 l 1,5,-1
 451 569 l 1,6,-1
 451 913 l 1,7,-1
 117 729 l 1,8,-1
 41 870 l 1,9,-1
 375 1044 l 1,10,-1
 41 1217 l 1,11,-1
 117 1358 l 1,12,-1
 451 1176 l 1,13,-1
 451 1520 l 1,14,-1
 621 1520 l 1,15,-1
 621 1176 l 1,16,-1
 954 1358 l 1,17,-1
 1030 1217 l 1,0,-1
EndSplineSet
Colour: aaaa88
EndChar
StartChar: plus
Encoding: 43 43 14
Width: 1716
Flags: W
Fore
977 1284 m 1,0,-1
 977 760 l 1,1,-1
 1499 760 l 1,2,-1
 1499 524 l 1,3,-1
 977 524 l 1,4,-1
 977 0 l 1,5,-1
 739 0 l 1,6,-1
 739 524 l 1,7,-1
 217 524 l 1,8,-1
 217 760 l 1,9,-1
 739 760 l 1,10,-1
 739 1284 l 1,11,-1
 977 1284 l 1,0,-1
EndSplineSet
Colour: aaaa88
EndChar
StartChar: comma
Encoding: 44 44 15
Width: 778
Flags: W
Fore
164 387 m 1,0,-1
 524 387 l 1,1,-1
 465 82 l 1,2,-1
 143 -291 l 1,3,-1
 -70 -291 l 1,4,-1
 104 82 l 1,5,-1
 164 387 l 1,0,-1
EndSplineSet
Colour: aaaa88
EndChar
StartChar: hyphen
Encoding: 45 45 16
Width: 850
Flags: W
Fore
109 735 m 1,0,-1
 737 735 l 1,1,-1
 680 444 l 1,2,-1
 51 444 l 1,3,-1
 109 735 l 1,0,-1
EndSplineSet
Colour: aaaa88
EndChar
StartChar: period
Encoding: 46 46 17
Width: 778
Flags: W
Fore
170 387 m 1,0,-1
 530 387 l 1,1,-1
 455 0 l 1,2,-1
 94 0 l 1,3,-1
 170 387 l 1,0,-1
EndSplineSet
Colour: aaaa88
EndChar
StartChar: slash
Encoding: 47 47 18
Width: 748
Flags: W
Fore
657 1493 m 1,0,-1
 889 1493 l 1,1,-1
 35 -190 l 1,2,-1
 -197 -190 l 1,3,-1
 657 1493 l 1,0,-1
EndSplineSet
Colour: aaaa88
EndChar
StartChar: zero
Encoding: 48 48 19
Width: 1425
Flags: W
Fore
612 233 m 0,0,1
 689 233 689 233 748.5 279 c 128,-1,2
 808 325 808 325 848 414 c 0,3,4
 876 477 876 477 899 557.5 c 128,-1,5
 922 638 922 638 942 748 c 0,6,7
 959 837 959 837 968 912 c 128,-1,8
 977 987 977 987 977 1040 c 0,9,10
 977 1152 977 1152 937 1204.5 c 128,-1,11
 897 1257 897 1257 813 1257 c 0,12,13
 735 1257 735 1257 676 1212.5 c 128,-1,14
 617 1168 617 1168 578 1077 c 0,15,16
 548 1012 548 1012 523.5 929 c 128,-1,17
 499 846 499 846 481 748 c 0,18,19
 464 658 464 658 455 581 c 128,-1,20
 446 504 446 504 446 451 c 0,21,22
 446 340 446 340 487 286.5 c 128,-1,23
 528 233 528 233 612 233 c 0,0,1
1352 983 m 0,24,25
 1352 784 1352 784 1297 596 c 128,-1,26
 1242 408 1242 408 1143 266 c 0,27,28
 1042 120 1042 120 899 45.5 c 128,-1,29
 756 -29 756 -29 580 -29 c 0,30,31
 335 -29 335 -29 204.5 110 c 128,-1,32
 74 249 74 249 74 510 c 0,33,34
 74 706 74 706 128.5 894.5 c 128,-1,35
 183 1083 183 1083 281 1223 c 0,36,37
 384 1370 384 1370 526 1445 c 128,-1,38
 668 1520 668 1520 846 1520 c 0,39,40
 1089 1520 1089 1520 1220.5 1380.5 c 128,-1,41
 1352 1241 1352 1241 1352 983 c 0,24,25
EndSplineSet
Colour: aaaa88
EndChar
StartChar: one
Encoding: 49 49 20
Width: 1425
Flags: W
Fore
141 266 m 1,0,-1
 481 266 l 1,1,-1
 668 1231 l 1,2,-1
 305 1159 l 1,3,-1
 356 1421 l 1,4,-1
 717 1493 l 1,5,-1
 1083 1493 l 1,6,-1
 846 266 l 1,7,-1
 1184 266 l 1,8,-1
 1133 0 l 1,9,-1
 88 0 l 1,10,-1
 141 266 l 1,0,-1
EndSplineSet
Colour: aaaa88
EndChar
StartChar: two
Encoding: 50 50 21
Width: 1425
Flags: W
Fore
506 283 m 1,0,-1
 1155 283 l 1,1,-1
 1100 0 l 1,2,-1
 16 0 l 1,3,-1
 72 285 l 1,4,-1
 707 764 l 2,5,6
 811 844 811 844 865.5 926 c 128,-1,7
 920 1008 920 1008 920 1085 c 0,8,9
 920 1167 920 1167 864 1212 c 128,-1,10
 808 1257 808 1257 707 1257 c 0,11,12
 612 1257 612 1257 495 1219.5 c 128,-1,13
 378 1182 378 1182 231 1104 c 1,14,-1
 295 1421 l 1,15,16
 431 1471 431 1471 562 1495.5 c 128,-1,17
 693 1520 693 1520 821 1520 c 0,18,19
 1049 1520 1049 1520 1180 1421.5 c 128,-1,20
 1311 1323 1311 1323 1311 1153 c 0,21,22
 1311 1007 1311 1007 1231 887 c 128,-1,23
 1151 767 1151 767 879 563 c 2,24,-1
 506 283 l 1,0,-1
EndSplineSet
Colour: aaaa88
EndChar
StartChar: three
Encoding: 51 51 22
Width: 1425
Flags: W
Fore
967 805 m 1,0,1
 1080 779 1080 779 1143 700 c 128,-1,2
 1206 621 1206 621 1206 506 c 0,3,4
 1206 258 1206 258 1009.5 114.5 c 128,-1,5
 813 -29 813 -29 469 -29 c 0,6,7
 339 -29 339 -29 221.5 -10.5 c 128,-1,8
 104 8 104 8 0 45 c 1,9,-1
 57 342 l 1,10,11
 146 290 146 290 251 261.5 c 128,-1,12
 356 233 356 233 461 233 c 0,13,14
 630 233 630 233 728.5 296.5 c 128,-1,15
 827 360 827 360 827 467 c 0,16,17
 827 556 827 556 752 600.5 c 128,-1,18
 677 645 677 645 526 645 c 2,19,-1
 373 645 l 1,20,-1
 422 893 l 1,21,-1
 584 893 l 2,22,23
 741 893 741 893 832.5 950 c 128,-1,24
 924 1007 924 1007 924 1104 c 0,25,26
 924 1180 924 1180 860.5 1220 c 128,-1,27
 797 1260 797 1260 676 1260 c 0,28,29
 591 1260 591 1260 491 1238 c 128,-1,30
 391 1216 391 1216 283 1174 c 1,31,-1
 338 1456 l 1,32,33
 456 1488 456 1488 570.5 1504 c 128,-1,34
 685 1520 685 1520 797 1520 c 0,35,36
 1050 1520 1050 1520 1177.5 1436 c 128,-1,37
 1305 1352 1305 1352 1305 1186 c 0,38,39
 1305 1037 1305 1037 1216.5 937.5 c 128,-1,40
 1128 838 1128 838 967 805 c 1,0,1
EndSplineSet
Colour: aaaa88
EndChar
StartChar: four
Encoding: 52 52 23
Width: 1425
Flags: W
Fore
844 1165 m 1,0,-1
 313 551 l 1,1,-1
 723 551 l 1,2,-1
 844 1165 l 1,0,-1
834 1493 m 1,3,-1
 1272 1493 l 1,4,-1
 1087 551 l 1,5,-1
 1300 551 l 1,6,-1
 1247 272 l 1,7,-1
 1034 272 l 1,8,-1
 981 0 l 1,9,-1
 616 0 l 1,10,-1
 670 272 l 1,11,-1
 -2 272 l 1,12,-1
 63 602 l 1,13,-1
 834 1493 l 1,3,-1
EndSplineSet
Colour: aaaa88
EndChar
StartChar: five
Encoding: 53 53 24
Width: 1425
Flags: W
Fore
362 1493 m 1,0,-1
 1319 1493 l 1,1,-1
 1264 1210 l 1,2,-1
 614 1210 l 1,3,-1
 569 979 l 1,4,5
 613 991 613 991 660.5 997.5 c 128,-1,6
 708 1004 708 1004 756 1004 c 0,7,8
 985 1004 985 1004 1114 899.5 c 128,-1,9
 1243 795 1243 795 1243 610 c 0,10,11
 1243 316 1243 316 1044 143.5 c 128,-1,12
 845 -29 845 -29 504 -29 c 0,13,14
 379 -29 379 -29 261 -4.5 c 128,-1,15
 143 20 143 20 27 70 c 1,16,-1
 86 373 l 1,17,18
 197 301 197 301 301.5 267 c 128,-1,19
 406 233 406 233 514 233 c 0,20,21
 672 233 672 233 767 315.5 c 128,-1,22
 862 398 862 398 862 532 c 0,23,24
 862 628 862 628 790 684.5 c 128,-1,25
 718 741 718 741 594 741 c 0,26,27
 510 741 510 741 412.5 719.5 c 128,-1,28
 315 698 315 698 199 653 c 1,29,-1
 362 1493 l 1,0,-1
EndSplineSet
Colour: aaaa88
EndChar
StartChar: six
Encoding: 54 54 25
Width: 1425
Flags: W
Fore
741 737 m 0,0,1
 627 737 627 737 554 643 c 128,-1,2
 481 549 481 549 481 401 c 0,3,4
 481 312 481 312 526 262.5 c 128,-1,5
 571 213 571 213 651 213 c 0,6,7
 764 213 764 213 837.5 305.5 c 128,-1,8
 911 398 911 398 911 539 c 0,9,10
 911 635 911 635 867 686 c 128,-1,11
 823 737 823 737 741 737 c 0,0,1
1352 1454 m 1,12,-1
 1298 1178 l 1,13,14
 1212 1222 1212 1222 1131 1244 c 128,-1,15
 1050 1266 1050 1266 969 1266 c 0,16,17
 783 1266 783 1266 668 1166 c 128,-1,18
 553 1066 553 1066 528 885 c 1,19,20
 606 936 606 936 688.5 960.5 c 128,-1,21
 771 985 771 985 864 985 c 0,22,23
 1048 985 1048 985 1165 876 c 128,-1,24
 1282 767 1282 767 1282 598 c 0,25,26
 1282 322 1282 322 1101.5 145.5 c 128,-1,27
 921 -31 921 -31 637 -31 c 0,28,29
 382 -31 382 -31 242 113.5 c 128,-1,30
 102 258 102 258 102 522 c 0,31,32
 102 726 102 726 164 911.5 c 128,-1,33
 226 1097 226 1097 338 1231 c 0,34,35
 458 1374 458 1374 621.5 1446 c 128,-1,36
 785 1518 785 1518 989 1518 c 0,37,38
 1083 1518 1083 1518 1172 1502 c 128,-1,39
 1261 1486 1261 1486 1352 1454 c 1,12,-1
EndSplineSet
Colour: aaaa88
EndChar
StartChar: seven
Encoding: 55 55 26
Width: 1425
Flags: W
Fore
295 1493 m 1,0,-1
 1421 1493 l 1,1,-1
 1376 1274 l 1,2,-1
 545 0 l 1,3,-1
 160 0 l 1,4,-1
 950 1210 l 1,5,-1
 242 1210 l 1,6,-1
 295 1493 l 1,0,-1
EndSplineSet
Colour: aaaa88
EndChar
StartChar: eight
Encoding: 56 56 27
Width: 1425
Flags: W
Fore
688 668 m 0,0,1
 571 668 571 668 492.5 588.5 c 128,-1,2
 414 509 414 509 414 393 c 0,3,4
 414 310 414 310 465 261.5 c 128,-1,5
 516 213 516 213 604 213 c 0,6,7
 723 213 723 213 801 291.5 c 128,-1,8
 879 370 879 370 879 487 c 0,9,10
 879 570 879 570 827.5 619 c 128,-1,11
 776 668 776 668 688 668 c 0,0,1
442 795 m 1,12,13
 334 840 334 840 280.5 912 c 128,-1,14
 227 984 227 984 227 1085 c 0,15,16
 227 1288 227 1288 393.5 1404 c 128,-1,17
 560 1520 560 1520 854 1520 c 0,18,19
 1090 1520 1090 1520 1220 1432 c 128,-1,20
 1350 1344 1350 1344 1350 1184 c 0,21,22
 1350 1042 1350 1042 1259.5 941 c 128,-1,23
 1169 840 1169 840 1001 795 c 1,24,25
 1123 748 1123 748 1181 669 c 128,-1,26
 1239 590 1239 590 1239 469 c 0,27,28
 1239 239 1239 239 1059.5 105 c 128,-1,29
 880 -29 880 -29 567 -29 c 0,30,31
 320 -29 320 -29 182.5 69.5 c 128,-1,32
 45 168 45 168 45 344 c 0,33,34
 45 503 45 503 150.5 622.5 c 128,-1,35
 256 742 256 742 442 795 c 1,12,13
819 1278 m 0,36,37
 717 1278 717 1278 655.5 1218.5 c 128,-1,38
 594 1159 594 1159 594 1061 c 0,39,40
 594 993 594 993 638.5 951 c 128,-1,41
 683 909 683 909 756 909 c 0,42,43
 858 909 858 909 919.5 968.5 c 128,-1,44
 981 1028 981 1028 981 1126 c 0,45,46
 981 1195 981 1195 936.5 1236.5 c 128,-1,47
 892 1278 892 1278 819 1278 c 0,36,37
EndSplineSet
Colour: aaaa88
EndChar
StartChar: nine
Encoding: 57 57 28
Width: 1425
Flags: W
Fore
84 33 m 1,0,-1
 137 309 l 1,1,2
 224 264 224 264 305 242.5 c 128,-1,3
 386 221 386 221 467 221 c 0,4,5
 653 221 653 221 768 321 c 128,-1,6
 883 421 883 421 907 602 c 1,7,8
 830 551 830 551 748 526.5 c 128,-1,9
 666 502 666 502 573 502 c 0,10,11
 390 502 390 502 273 611 c 128,-1,12
 156 720 156 720 156 889 c 0,13,14
 156 1165 156 1165 336.5 1341.5 c 128,-1,15
 517 1518 517 1518 801 1518 c 0,16,17
 1056 1518 1056 1518 1195.5 1373.5 c 128,-1,18
 1335 1229 1335 1229 1335 965 c 0,19,20
 1335 762 1335 762 1273 576.5 c 128,-1,21
 1211 391 1211 391 1098 256 c 0,22,23
 978 113 978 113 815.5 41 c 128,-1,24
 653 -31 653 -31 449 -31 c 0,25,26
 354 -31 354 -31 264 -15 c 128,-1,27
 174 1 174 1 84 33 c 1,0,-1
694 750 m 0,28,29
 808 750 808 750 881 844 c 128,-1,30
 954 938 954 938 954 1085 c 0,31,32
 954 1176 954 1176 910.5 1225 c 128,-1,33
 867 1274 867 1274 786 1274 c 0,34,35
 673 1274 673 1274 598.5 1181 c 128,-1,36
 524 1088 524 1088 524 948 c 0,37,38
 524 852 524 852 568 801 c 128,-1,39
 612 750 612 750 694 750 c 0,28,29
EndSplineSet
Colour: aaaa88
EndChar
StartChar: colon
Encoding: 58 58 29
Width: 819
Flags: W
Fore
301 1120 m 1,0,-1
 662 1120 l 1,1,-1
 588 733 l 1,2,-1
 227 733 l 1,3,-1
 301 1120 l 1,0,-1
160 387 m 1,4,-1
 520 387 l 1,5,-1
 444 0 l 1,6,-1
 84 0 l 1,7,-1
 160 387 l 1,4,-1
EndSplineSet
Colour: aaaa88
EndChar
StartChar: semicolon
Encoding: 59 59 30
Width: 819
Flags: W
Fore
160 387 m 1,0,-1
 520 387 l 1,1,-1
 461 82 l 1,2,-1
 141 -291 l 1,3,-1
 -72 -291 l 1,4,-1
 100 82 l 1,5,-1
 160 387 l 1,0,-1
301 1120 m 1,6,-1
 662 1120 l 1,7,-1
 588 733 l 1,8,-1
 227 733 l 1,9,-1
 301 1120 l 1,6,-1
EndSplineSet
Colour: aaaa88
EndChar
StartChar: less
Encoding: 60 60 31
Width: 1716
Flags: W
Fore
1499 973 m 1,0,-1
 535 641 l 1,1,-1
 1499 311 l 1,2,-1
 1499 61 l 1,3,-1
 217 524 l 1,4,-1
 217 760 l 1,5,-1
 1499 1223 l 1,6,-1
 1499 973 l 1,0,-1
EndSplineSet
Colour: aaaa88
EndChar
StartChar: equal
Encoding: 61 61 32
Width: 1716
Flags: W
Fore
217 987 m 1,0,-1
 1499 987 l 1,1,-1
 1499 752 l 1,2,-1
 217 752 l 1,3,-1
 217 987 l 1,0,-1
217 532 m 1,4,-1
 1499 532 l 1,5,-1
 1499 295 l 1,6,-1
 217 295 l 1,7,-1
 217 532 l 1,4,-1
EndSplineSet
Colour: aaaa88
EndChar
StartChar: greater
Encoding: 62 62 33
Width: 1716
Flags: W
Fore
217 973 m 1,0,-1
 217 1223 l 1,1,-1
 1499 760 l 1,2,-1
 1499 524 l 1,3,-1
 217 61 l 1,4,-1
 217 311 l 1,5,-1
 1182 641 l 1,6,-1
 217 973 l 1,0,-1
EndSplineSet
Colour: aaaa88
EndChar
StartChar: question
Encoding: 63 63 34
Width: 1188
Flags: W
Fore
283 356 m 1,0,-1
 643 356 l 1,1,-1
 573 0 l 1,2,-1
 213 0 l 1,3,-1
 283 356 l 1,0,-1
672 504 m 1,4,-1
 311 504 l 1,5,-1
 319 553 l 2,6,7
 335 633 335 633 378.5 695.5 c 128,-1,8
 422 758 422 758 553 860 c 2,9,-1
 627 918 l 2,10,11
 706 979 706 979 742 1032 c 128,-1,12
 778 1085 778 1085 778 1139 c 0,13,14
 778 1196 778 1196 737.5 1226.5 c 128,-1,15
 697 1257 697 1257 621 1257 c 0,16,17
 541 1257 541 1257 440.5 1223.5 c 128,-1,18
 340 1190 340 1190 225 1124 c 1,19,-1
 287 1438 l 1,20,21
 414 1480 414 1480 519 1500 c 128,-1,22
 624 1520 624 1520 721 1520 c 0,23,24
 915 1520 915 1520 1025 1434.5 c 128,-1,25
 1135 1349 1135 1349 1135 1200 c 0,26,27
 1135 1081 1135 1081 1082 987 c 128,-1,28
 1029 893 1029 893 901 791 c 2,29,-1
 825 731 l 2,30,31
 745 669 745 669 716.5 630.5 c 128,-1,32
 688 592 688 592 680 549 c 2,33,-1
 672 504 l 1,4,-1
EndSplineSet
Colour: aaaa88
EndChar
StartChar: at
Encoding: 64 64 35
Width: 2048
Flags: W
Fore
1034 801 m 0,0,1
 928 801 928 801 852 696 c 128,-1,2
 776 591 776 591 776 446 c 0,3,4
 776 362 776 362 816.5 318 c 128,-1,5
 857 274 857 274 934 274 c 0,6,7
 1040 274 1040 274 1114 374.5 c 128,-1,8
 1188 475 1188 475 1188 621 c 0,9,10
 1188 707 1188 707 1148 754 c 128,-1,11
 1108 801 1108 801 1034 801 c 0,0,1
1147 246 m 1,12,13
 1102 171 1102 171 1027 129.5 c 128,-1,14
 952 88 952 88 862 88 c 0,15,16
 719 88 719 88 637 182.5 c 128,-1,17
 555 277 555 277 555 444 c 0,18,19
 555 665 555 665 697 826 c 128,-1,20
 839 987 839 987 1036 987 c 0,21,22
 1119 987 1119 987 1181.5 945 c 128,-1,23
 1244 903 1244 903 1264 834 c 1,24,-1
 1288 967 l 1,25,-1
 1491 967 l 1,26,-1
 1358 274 l 1,27,28
 1509 296 1509 296 1610.5 437.5 c 128,-1,29
 1712 579 1712 579 1712 770 c 0,30,31
 1712 983 1712 983 1547.5 1118 c 128,-1,32
 1383 1253 1383 1253 1120 1253 c 0,33,34
 924 1253 924 1253 755.5 1177 c 128,-1,35
 587 1101 587 1101 469 958 c 0,36,37
 377 848 377 848 329 716 c 128,-1,38
 281 584 281 584 281 442 c 0,39,40
 281 173 281 173 446.5 2.5 c 128,-1,41
 612 -168 612 -168 872 -168 c 0,42,43
 990 -168 990 -168 1105.5 -124.5 c 128,-1,44
 1221 -81 1221 -81 1325 2 c 1,45,-1
 1434 -156 l 1,46,47
 1288 -254 1288 -254 1145 -303 c 128,-1,48
 1002 -352 1002 -352 860 -352 c 0,49,50
 725 -352 725 -352 600 -311 c 128,-1,51
 475 -270 475 -270 377 -193 c 0,52,53
 237 -85 237 -85 164.5 74 c 128,-1,54
 92 233 92 233 92 434 c 0,55,56
 92 610 92 610 152 774 c 128,-1,57
 212 938 212 938 326 1075 c 0,58,59
 472 1251 472 1251 677.5 1345.5 c 128,-1,60
 883 1440 883 1440 1120 1440 c 0,61,62
 1286 1440 1286 1440 1427 1393.5 c 128,-1,63
 1568 1347 1568 1347 1679 1255 c 0,64,65
 1784 1166 1784 1166 1841 1046.5 c 128,-1,66
 1898 927 1898 927 1898 797 c 0,67,68
 1898 482 1898 482 1693.5 285 c 128,-1,69
 1489 88 1489 88 1157 88 c 0,70,71
 1152 88 1152 88 1143 87 c 128,-1,72
 1134 86 1134 86 1130 86 c 0,73,74
 1125 86 1125 86 1121.5 86.5 c 128,-1,75
 1118 87 1118 87 1116 88 c 1,76,-1
 1147 246 l 1,12,13
EndSplineSet
Colour: aaaa88
EndChar
StartChar: A
Encoding: 65 65 36
Width: 1585
Flags: W
AnchorPoint: "Ogonek" 1115 0 basechar 0
AnchorPoint: "TopCap" 938 1493 basechar 0
AnchorPoint: "Bottom" 648 0 basechar 0
Fore
1006 272 m 1,0,-1
 410 272 l 1,1,-1
 262 0 l 1,2,-1
 -133 0 l 1,3,-1
 711 1493 l 1,4,-1
 1151 1493 l 1,5,-1
 1415 0 l 1,6,-1
 1049 0 l 1,7,-1
 1006 272 l 1,0,-1
555 543 m 1,8,-1
 956 543 l 1,9,-1
 866 1118 l 1,10,-1
 555 543 l 1,8,-1
EndSplineSet
Colour: aaaa88
EndChar
StartChar: B
Encoding: 66 66 37
Width: 1561
Flags: W
AnchorPoint: "Bottom" 625 0 basechar 0
AnchorPoint: "TopCap" 915 1493 basechar 0
Fore
819 915 m 2,0,1
 922 915 922 915 980 967 c 128,-1,2
 1038 1019 1038 1019 1038 1110 c 0,3,4
 1038 1169 1038 1169 998 1200 c 0,5,6
 957 1231 957 1231 881 1231 c 2,6,-1
 666 1231 l 1,7,-1
 604 915 l 1,8,-1
 819 915 l 2,0,1
705 262 m 2,9,10
 837 262 837 262 908 325 c 128,-1,11
 979 388 979 388 979 506 c 0,12,13
 979 581 979 581 930 617 c 128,-1,14
 881 653 881 653 780 653 c 2,15,-1
 553 653 l 1,16,-1
 477 262 l 1,17,-1
 705 262 l 2,9,10
1161 799 m 1,18,19
 1259 771 1259 771 1312 696 c 0,20,21
 1366 622 1366 622 1366 512 c 0,21,22
 1366 271 1366 271 1186 136 c 0,23,24
 1007 0 1007 0 682 0 c 2,24,-1
 43 0 l 1,25,-1
 334 1493 l 1,26,-1
 911 1493 l 2,27,28
 1177 1493 1177 1493 1304 1415 c 0,29,30
 1432 1337 1432 1337 1432 1174 c 0,30,31
 1432 1037 1432 1037 1357 934 c 0,32,33
 1282 830 1282 830 1161 799 c 1,18,19
EndSplineSet
Colour: aaaa88
EndChar
StartChar: C
Encoding: 67 67 38
Width: 1503
Flags: W
AnchorPoint: "Cedilla" 728 0 basechar 0
AnchorPoint: "Bottom" 728 0 basechar 0
AnchorPoint: "TopCap" 1018 1493 basechar 0
Fore
1241 70 m 1,0,1
 1103 21 1103 21 976 -4 c 128,-1,2
 849 -29 849 -29 735 -29 c 0,3,4
 434 -29 434 -29 254 136 c 128,-1,5
 74 301 74 301 74 573 c 0,6,7
 74 752 74 752 131 910 c 0,8,9
 188 1069 188 1069 299 1200 c 0,10,11
 430 1354 430 1354 614 1437 c 0,12,13
 799 1520 799 1520 1012 1520 c 0,14,15
 1128 1520 1128 1520 1245 1492 c 0,16,17
 1362 1465 1362 1465 1483 1409 c 1,18,-1
 1421 1100 l 1,19,20
 1325 1173 1325 1173 1228 1207 c 128,-1,21
 1131 1241 1131 1241 1020 1241 c 0,22,23
 789 1241 789 1241 633 1063 c 128,-1,24
 477 885 477 885 477 618 c 0,25,26
 477 446 477 446 573 348 c 128,-1,27
 669 250 669 250 838 250 c 0,28,29
 939 250 939 250 1052 286 c 0,30,31
 1166 323 1166 323 1307 401 c 1,32,-1
 1241 70 l 1,0,1
EndSplineSet
Colour: aaaa88
EndChar
StartChar: D
Encoding: 68 68 39
Width: 1700
Flags: W
AnchorPoint: "Bottom" 703 0 basechar 0
AnchorPoint: "TopCap" 993 1493 basechar 0
Fore
664 1202 m 1,0,-1
 485 291 l 1,1,-1
 623 291 l 2,2,3
 892 291 892 291 1049 442 c 128,-1,4
 1206 593 1206 593 1206 850 c 0,5,6
 1206 1024 1206 1024 1104 1113 c 128,-1,7
 1001 1202 1001 1202 799 1202 c 2,8,-1
 664 1202 l 1,0,-1
334 1493 m 1,9,-1
 739 1493 l 2,10,11
 1029 1493 1029 1493 1174 1458 c 128,-1,12
 1319 1424 1319 1424 1415 1343 c 0,13,14
 1512 1262 1512 1262 1561 1146 c 128,-1,15
 1610 1031 1610 1031 1610 885 c 0,16,17
 1610 682 1610 682 1526 502 c 128,-1,18
 1443 323 1443 323 1292 201 c 1,19,20
 1160 92 1160 92 986 46 c 128,-1,21
 811 0 811 0 449 0 c 2,22,-1
 43 0 l 1,23,-1
 334 1493 l 1,9,-1
EndSplineSet
Colour: aaaa88
EndChar
StartChar: E
Encoding: 69 69 40
Width: 1399
Flags: W
AnchorPoint: "Ogonek" 845 0 basechar 0
AnchorPoint: "Cedilla" 545 0 basechar 0
AnchorPoint: "Bottom" 545 0 basechar 0
AnchorPoint: "TopCap" 835 1493 basechar 0
Fore
334 1493 m 1,0,-1
 1372 1493 l 1,1,-1
 1315 1202 l 1,2,-1
 662 1202 l 1,3,-1
 608 924 l 1,4,-1
 1223 924 l 1,5,-1
 1165 633 l 1,6,-1
 551 633 l 1,7,-1
 485 291 l 1,8,-1
 1159 291 l 1,9,-1
 1104 0 l 1,10,-1
 43 0 l 1,11,-1
 334 1493 l 1,0,-1
EndSplineSet
Colour: aaaa88
EndChar
StartChar: F
Encoding: 70 70 41
Width: 1399
Flags: W
AnchorPoint: "Bottom" 537 0 basechar 0
AnchorPoint: "TopCap" 827 1493 basechar 0
Fore
334 1493 m 1,0,-1
 1372 1493 l 1,1,-1
 1315 1202 l 1,2,-1
 662 1202 l 1,3,-1
 608 924 l 1,4,-1
 1223 924 l 1,5,-1
 1165 633 l 1,6,-1
 551 633 l 1,7,-1
 428 0 l 1,8,-1
 43 0 l 1,9,-1
 334 1493 l 1,0,-1
EndSplineSet
Colour: aaaa88
EndChar
StartChar: G
Encoding: 71 71 42
Width: 1681
Flags: W
AnchorPoint: "Bottom" 765 0 basechar 0
AnchorPoint: "TopCap" 1055 1493 basechar 0
Fore
1395 111 m 1,0,1
 1249 40 1249 40 1092 6 c 0,2,3
 935 -29 935 -29 756 -29 c 0,4,5
 438 -29 438 -29 256 132 c 0,6,7
 74 294 74 294 74 573 c 0,8,9
 74 754 74 754 131 912 c 0,10,11
 188 1071 188 1071 301 1202 c 0,12,13
 439 1362 439 1362 626 1441 c 0,14,15
 814 1520 814 1520 1055 1520 c 0,16,17
 1189 1520 1189 1520 1325 1492 c 128,-1,18
 1461 1464 1461 1464 1593 1409 c 1,19,-1
 1534 1100 l 1,20,21
 1412 1171 1412 1171 1296 1206 c 0,22,23
 1179 1241 1179 1241 1061 1241 c 0,24,25
 803 1241 803 1241 641 1069 c 128,-1,26
 479 897 479 897 479 627 c 0,27,28
 479 448 479 448 574 349 c 0,29,30
 668 250 668 250 840 250 c 0,31,32
 896 250 896 250 952 258 c 0,33,34
 1008 265 1008 265 1065 281 c 1,35,-1
 1122 571 l 1,36,-1
 887 571 l 1,37,-1
 936 829 l 1,38,-1
 1534 829 l 1,39,-1
 1395 111 l 1,0,1
EndSplineSet
Colour: aaaa88
EndChar
StartChar: H
Encoding: 72 72 43
Width: 1714
Flags: W
HStem: 0 21G<43 428 995 1380> 633 291<608 1118> 1473 20G<334 719 1286 1671>
AnchorPoint: "Cedilla" 262 0 basechar 0
AnchorPoint: "Bottom" 712 0 basechar 0
AnchorPoint: "TopCap" 1002 1493 basechar 0
Fore
334 1493 m 1,0,-1
 719 1493 l 1,1,-1
 608 924 l 1,2,-1
 1176 924 l 1,3,-1
 1286 1493 l 1,4,-1
 1671 1493 l 1,5,-1
 1380 0 l 1,6,-1
 995 0 l 1,7,-1
 1118 633 l 1,8,-1
 551 633 l 1,9,-1
 428 0 l 1,10,-1
 43 0 l 1,11,-1
 334 1493 l 1,0,-1
EndSplineSet
Colour: aaaa88
EndChar
StartChar: I
Encoding: 73 73 44
Width: 762
Flags: W
HStem: 0 21G<43 428> 1473 20G<334 719>
AnchorPoint: "Ogonek" 236 0 basechar 0
AnchorPoint: "Bottom" 236 0 basechar 0
AnchorPoint: "TopCap" 526 1493 basechar 0
Fore
334 1493 m 1,0,-1
 719 1493 l 1,1,-1
 428 0 l 1,2,-1
 43 0 l 1,3,-1
 334 1493 l 1,0,-1
EndSplineSet
Colour: aaaa88
EndChar
StartChar: J
Encoding: 74 74 45
Width: 762
Flags: W
AnchorPoint: "Bottom" 276 0 basechar 0
AnchorPoint: "TopCap" 566 1493 basechar 0
Fore
334 1493 m 1,0,-1
 719 1493 l 1,1,-1
 457 145 l 1,2,3
 399 -147 399 -147 230 -278 c 128,-1,4
 60 -410 60 -410 -262 -410 c 2,5,-1
 -340 -410 l 1,6,-1
 -283 -119 l 1,7,-1
 -223 -119 l 2,8,9
 -104 -119 -104 -119 -28 -52 c 128,-1,10
 47 16 47 16 72 145 c 2,11,-1
 334 1493 l 1,0,-1
EndSplineSet
Colour: aaaa88
EndChar
StartChar: K
Encoding: 75 75 46
Width: 1587
Flags: W
AnchorPoint: "Bottom" 645 0 basechar 0
AnchorPoint: "TopCap" 935 1493 basechar 0
Fore
334 1493 m 1,0,-1
 719 1493 l 1,1,-1
 614 956 l 1,2,-1
 1249 1493 l 1,3,-1
 1714 1493 l 1,4,-1
 858 768 l 1,5,-1
 1503 0 l 1,6,-1
 1051 0 l 1,7,-1
 549 623 l 1,8,-1
 428 0 l 1,9,-1
 43 0 l 1,10,-1
 334 1493 l 1,0,-1
EndSplineSet
Colour: aaaa88
EndChar
StartChar: L
Encoding: 76 76 47
Width: 1305
Flags: W
AnchorPoint: "Bottom" 565 0 basechar 0
AnchorPoint: "TopCap" 855 1493 basechar 0
Fore
334 1493 m 1,0,-1
 719 1493 l 1,1,-1
 485 291 l 1,2,-1
 1159 291 l 1,3,-1
 1104 0 l 1,4,-1
 43 0 l 1,5,-1
 334 1493 l 1,0,-1
EndSplineSet
Colour: aaaa88
EndChar
StartChar: M
Encoding: 77 77 48
Width: 2038
Flags: W
AnchorPoint: "Bottom" 873 0 basechar 0
AnchorPoint: "TopCap" 1163 1493 basechar 0
Fore
334 1493 m 1,0,-1
 807 1493 l 1,1,-1
 999 700 l 1,2,-1
 1503 1493 l 1,3,-1
 1995 1493 l 1,4,-1
 1704 0 l 1,5,-1
 1339 0 l 1,6,-1
 1552 1102 l 1,7,-1
 1034 287 l 1,8,-1
 827 287 l 1,9,-1
 621 1102 l 1,10,-1
 408 0 l 1,11,-1
 43 0 l 1,12,-1
 334 1493 l 1,0,-1
EndSplineSet
Colour: aaaa88
EndChar
StartChar: N
Encoding: 78 78 49
Width: 1714
Flags: W
AnchorPoint: "Bottom" 721 0 basechar 0
AnchorPoint: "TopCap" 1011 1493 basechar 0
Fore
334 1493 m 1,0,-1
 764 1493 l 1,1,-1
 1106 459 l 1,2,-1
 1307 1493 l 1,3,-1
 1671 1493 l 1,4,-1
 1380 0 l 1,5,-1
 950 0 l 1,6,-1
 608 1034 l 1,7,-1
 408 0 l 1,8,-1
 43 0 l 1,9,-1
 334 1493 l 1,0,-1
EndSplineSet
Colour: aaaa88
EndChar
StartChar: O
Encoding: 79 79 50
Width: 1741
Flags: W
AnchorPoint: "Horn" 1477 1228 basechar 0
AnchorPoint: "Ogonek" 725 0 basechar 0
AnchorPoint: "TopCap" 1015 1493 basechar 0
AnchorPoint: "Bottom" 725 0 basechar 0
Fore
1260 881 m 0,0,1
 1260 1057 1260 1057 1180 1149 c 0,2,3
 1101 1241 1101 1241 950 1241 c 0,4,5
 750 1241 750 1241 614 1062 c 0,6,7
 479 882 479 882 479 612 c 0,8,9
 479 440 479 440 558 345 c 128,-1,10
 637 250 637 250 778 250 c 0,11,12
 893 250 893 250 982 298 c 0,13,14
 1072 347 1072 347 1135 442 c 0,15,16
 1195 533 1195 533 1228 647 c 0,17,18
 1260 761 1260 761 1260 881 c 0,0,1
1006 1520 m 0,19,20
 1304 1520 1304 1520 1486 1354 c 0,21,22
 1667 1189 1667 1189 1667 922 c 0,23,24
 1667 740 1667 740 1612 578 c 0,25,26
 1556 416 1556 416 1450 287 c 0,27,28
 1320 128 1320 128 1142 50 c 0,29,30
 965 -29 965 -29 733 -29 c 0,31,32
 436 -29 436 -29 255 136 c 128,-1,33
 74 301 74 301 74 569 c 0,34,35
 74 752 74 752 129 914 c 128,-1,36
 184 1076 184 1076 291 1206 c 0,37,38
 419 1364 419 1364 596 1442 c 0,39,40
 774 1520 774 1520 1006 1520 c 0,19,20
EndSplineSet
Colour: aaaa88
EndChar
StartChar: P
Encoding: 80 80 51
Width: 1501
Flags: W
AnchorPoint: "Bottom" 590 0 basechar 0
AnchorPoint: "TopCap" 880 1493 basechar 0
Fore
334 1493 m 1,0,-1
 973 1493 l 2,1,2
 1208 1493 1208 1493 1340 1386 c 0,3,4
 1473 1278 1473 1278 1473 1087 c 0,4,5
 1473 970 1473 970 1429 864 c 0,6,7
 1385 759 1385 759 1303 680 c 0,7,8
 1214 595 1214 595 1091 556 c 0,9,10
 968 518 968 518 782 518 c 2,10,-1
 528 518 l 1,11,-1
 428 0 l 1,12,-1
 43 0 l 1,13,-1
 334 1493 l 1,0,-1
666 1214 m 1,14,-1
 584 797 l 1,15,-1
 797 797 l 2,16,17
 933 797 933 797 1005 861 c 128,-1,18
 1077 925 1077 925 1077 1047 c 0,19,20
 1077 1128 1077 1128 1026 1171 c 0,21,22
 974 1214 974 1214 877 1214 c 2,22,-1
 666 1214 l 1,14,-1
EndSplineSet
Colour: aaaa88
EndChar
StartChar: Q
Encoding: 81 81 52
Width: 1741
Flags: W
AnchorPoint: "Bottom" 721 0 basechar 0
AnchorPoint: "TopCap" 1012 1493 basechar 0
Fore
760 -27 m 1,0,1
 749 -28 749 -28 738 -28 c 128,-1,2
 727 -29 727 -29 702 -29 c 0,3,4
 589 -29 589 -29 489 2 c 128,-1,5
 389 33 389 33 307 94 c 0,6,7
 197 175 197 175 136 300 c 128,-1,8
 74 426 74 426 74 569 c 0,9,10
 74 752 74 752 130 914 c 128,-1,11
 185 1077 185 1077 291 1206 c 0,12,13
 420 1365 420 1365 596 1442 c 128,-1,14
 773 1520 773 1520 1006 1520 c 0,15,16
 1304 1520 1304 1520 1486 1354 c 128,-1,17
 1667 1189 1667 1189 1667 922 c 0,18,19
 1667 608 1667 608 1514 372 c 128,-1,20
 1362 135 1362 135 1090 27 c 1,21,-1
 1319 -299 l 1,22,-1
 952 -299 l 1,23,-1
 760 -27 l 1,0,1
1260 881 m 0,24,25
 1260 1057 1260 1057 1180 1149 c 128,-1,26
 1101 1241 1101 1241 950 1241 c 0,27,28
 750 1241 750 1241 614 1062 c 128,-1,29
 479 882 479 882 479 612 c 0,30,31
 479 440 479 440 558 345 c 128,-1,32
 637 250 637 250 778 250 c 0,33,34
 893 250 893 250 982 298 c 128,-1,35
 1072 347 1072 347 1135 442 c 0,36,37
 1195 533 1195 533 1228 647 c 128,-1,38
 1260 761 1260 761 1260 881 c 0,24,25
EndSplineSet
Colour: aaaa88
EndChar
StartChar: R
Encoding: 82 82 53
Width: 1577
Flags: W
AnchorPoint: "TopCap" 880 1493 basechar 0
AnchorPoint: "Bottom" 640 0 basechar 0
Fore
752 831 m 2,0,1
 883 831 883 831 950 892 c 128,-1,2
 1018 953 1018 953 1018 1071 c 0,3,4
 1018 1145 1018 1145 972 1180 c 128,-1,5
 925 1214 925 1214 825 1214 c 2,6,-1
 666 1214 l 1,7,-1
 590 831 l 1,8,-1
 752 831 l 2,0,1
539 565 m 1,9,-1
 428 0 l 1,10,-1
 43 0 l 1,11,-1
 334 1493 l 1,12,-1
 903 1493 l 2,13,14
 1149 1493 1149 1493 1276 1401 c 128,-1,15
 1403 1309 1403 1309 1403 1130 c 0,16,17
 1403 949 1403 949 1303 832 c 128,-1,18
 1203 715 1203 715 1032 698 c 1,19,20
 1110 682 1110 682 1162 618 c 128,-1,21
 1214 555 1214 555 1253 424 c 2,22,-1
 1380 0 l 1,23,-1
 997 0 l 1,24,-1
 885 371 l 1,25,26
 851 482 851 482 802 524 c 128,-1,27
 754 565 754 565 662 565 c 2,28,-1
 539 565 l 1,9,-1
EndSplineSet
Colour: aaaa88
EndChar
StartChar: S
Encoding: 83 83 54
Width: 1475
Flags: W
AnchorPoint: "Cedilla" 599 0 basechar 0
AnchorPoint: "Bottom" 599 0 basechar 0
AnchorPoint: "TopCap" 889 1493 basechar 0
Fore
1362 1446 m 1,0,-1
 1300 1130 l 1,1,2
 1187 1186 1187 1186 1077 1214 c 0,3,4
 967 1241 967 1241 862 1241 c 0,5,6
 718 1241 718 1241 638 1196 c 0,7,8
 557 1151 557 1151 557 1071 c 0,9,10
 557 1020 557 1020 592 992 c 0,11,12
 628 963 628 963 739 936 c 2,13,-1
 897 897 l 2,14,15
 1095 847 1095 847 1188 752 c 0,16,17
 1280 658 1280 658 1280 508 c 0,18,19
 1280 265 1280 265 1096 118 c 0,20,21
 911 -29 911 -29 600 -29 c 0,22,23
 455 -29 455 -29 312 -2 c 0,24,25
 168 25 168 25 31 78 c 1,26,-1
 92 403 l 1,27,28
 225 326 225 326 350 288 c 0,29,30
 476 250 476 250 598 250 c 0,31,32
 730 250 730 250 812 304 c 0,33,34
 895 358 895 358 895 442 c 0,35,36
 895 497 895 497 858 528 c 0,37,38
 821 558 821 558 696 590 c 2,39,-1
 539 629 l 2,40,41
 365 672 365 672 280 765 c 128,-1,42
 195 858 195 858 195 1006 c 0,43,44
 195 1239 195 1239 374 1380 c 0,45,46
 552 1520 552 1520 854 1520 c 0,47,48
 975 1520 975 1520 1102 1502 c 0,49,50
 1230 1483 1230 1483 1362 1446 c 1,0,-1
EndSplineSet
Colour: aaaa88
EndChar
StartChar: T
Encoding: 84 84 55
Width: 1397
Flags: W
AnchorPoint: "Cedilla" 554 0 basechar 0
AnchorPoint: "Bottom" 554 0 basechar 0
AnchorPoint: "TopCap" 844 1493 basechar 0
Fore
156 1493 m 1,0,-1
 1532 1493 l 1,1,-1
 1475 1202 l 1,2,-1
 979 1202 l 1,3,-1
 745 0 l 1,4,-1
 360 0 l 1,5,-1
 594 1202 l 1,6,-1
 98 1202 l 1,7,-1
 156 1493 l 1,0,-1
EndSplineSet
Colour: aaaa88
EndChar
StartChar: U
Encoding: 85 85 56
Width: 1663
Flags: W
AnchorPoint: "Ogonek" 690 0 basechar 0
AnchorPoint: "Horn" 1532 1369 basechar 0
AnchorPoint: "Bottom" 690 0 basechar 0
AnchorPoint: "TopCap" 980 1493 basechar 0
Fore
334 1493 m 1,0,-1
 719 1493 l 1,1,-1
 545 599 l 1,2,3
 535 551 535 551 530 514 c 0,4,5
 526 477 526 477 526 449 c 0,6,7
 526 351 526 351 578 302 c 0,8,9
 631 254 631 254 735 254 c 0,10,11
 875 254 875 254 950 332 c 0,12,13
 1025 411 1025 411 1061 598 c 1,14,-1
 1235 1493 l 1,15,-1
 1620 1493 l 1,16,-1
 1446 598 l 1,17,18
 1381 268 1381 268 1200 120 c 0,19,20
 1018 -29 1018 -29 680 -29 c 0,21,22
 415 -29 415 -29 277 84 c 0,23,24
 139 198 139 198 139 414 c 0,25,26
 139 450 139 450 144 494 c 0,27,28
 149 539 149 539 160 598 c 1,29,-1
 334 1493 l 1,0,-1
EndSplineSet
Colour: aaaa88
EndChar
StartChar: V
Encoding: 86 86 57
Width: 1585
Flags: W
AnchorPoint: "Bottom" 648 0 basechar 0
AnchorPoint: "TopCap" 938 1493 basechar 0
Fore
156 1493 m 1,0,-1
 522 1493 l 1,1,-1
 705 377 l 1,2,-1
 1323 1493 l 1,3,-1
 1720 1493 l 1,4,-1
 877 0 l 1,5,-1
 418 0 l 1,6,-1
 156 1493 l 1,0,-1
EndSplineSet
Colour: aaaa88
EndChar
StartChar: W
Encoding: 87 87 58
Width: 2259
Flags: W
AnchorPoint: "Bottom" 984 0 basechar 0
AnchorPoint: "TopCap" 1274 1493 basechar 0
Fore
219 1493 m 1,0,-1
 575 1493 l 1,1,-1
 621 408 l 1,2,-1
 1090 1493 l 1,3,-1
 1456 1493 l 1,4,-1
 1505 408 l 1,5,-1
 1958 1493 l 1,6,-1
 2341 1493 l 1,7,-1
 1698 0 l 1,8,-1
 1262 0 l 1,9,-1
 1212 1135 l 1,10,-1
 729 0 l 1,11,-1
 283 0 l 1,12,-1
 219 1493 l 1,0,-1
EndSplineSet
Colour: aaaa88
EndChar
StartChar: X
Encoding: 88 88 59
Width: 1579
Flags: W
AnchorPoint: "Bottom" 644 0 basechar 0
AnchorPoint: "TopCap" 934 1493 basechar 0
Fore
1016 756 m 1,0,-1
 1382 0 l 1,1,-1
 991 0 l 1,2,-1
 748 500 l 1,3,-1
 311 0 l 1,4,-1
 -104 0 l 1,5,-1
 567 766 l 1,6,-1
 213 1493 l 1,7,-1
 606 1493 l 1,8,-1
 836 1024 l 1,9,-1
 1245 1493 l 1,10,-1
 1663 1493 l 1,11,-1
 1016 756 l 1,0,-1
EndSplineSet
Colour: aaaa88
EndChar
StartChar: Y
Encoding: 89 89 60
Width: 1483
Flags: W
AnchorPoint: "Bottom" 596 0 basechar 0
AnchorPoint: "TopCap" 886 1493 basechar 0
Fore
129 1493 m 1,0,-1
 514 1493 l 1,1,-1
 768 940 l 1,2,-1
 1212 1493 l 1,3,-1
 1657 1493 l 1,4,-1
 920 623 l 1,5,-1
 799 0 l 1,6,-1
 414 0 l 1,7,-1
 535 623 l 1,8,-1
 129 1493 l 1,0,-1
EndSplineSet
Colour: aaaa88
EndChar
StartChar: Z
Encoding: 90 90 61
Width: 1485
Flags: W
AnchorPoint: "Bottom" 597 0 basechar 0
AnchorPoint: "TopCap" 887 1493 basechar 0
Fore
260 1493 m 1,0,-1
 1516 1493 l 1,1,-1
 1468 1255 l 1,2,-1
 500 291 l 1,3,-1
 1305 291 l 1,4,-1
 1247 0 l 1,5,-1
 -53 0 l 1,6,-1
 -8 238 l 1,7,-1
 963 1202 l 1,8,-1
 203 1202 l 1,9,-1
 260 1493 l 1,0,-1
EndSplineSet
Colour: aaaa88
EndChar
StartChar: bracketleft
Encoding: 91 91 62
Width: 936
Flags: W
Fore
334 1556 m 1,0,-1
 954 1556 l 1,1,-1
 909 1331 l 1,2,-1
 631 1331 l 1,3,-1
 362 -45 l 1,4,-1
 643 -45 l 1,5,-1
 598 -270 l 1,6,-1
 -20 -270 l 1,7,-1
 334 1556 l 1,0,-1
EndSplineSet
Colour: aaaa88
EndChar
StartChar: backslash
Encoding: 92 92 63
Width: 748
Flags: W
Fore
344 -190 m 1,0,-1
 145 1493 l 1,1,-1
 367 1493 l 1,2,-1
 565 -190 l 1,3,-1
 344 -190 l 1,0,-1
EndSplineSet
Colour: aaaa88
EndChar
StartChar: bracketright
Encoding: 93 93 64
Width: 936
Flags: W
Fore
563 -270 m 1,0,-1
 -57 -270 l 1,1,-1
 -14 -45 l 1,2,-1
 266 -45 l 1,3,-1
 535 1331 l 1,4,-1
 254 1331 l 1,5,-1
 297 1556 l 1,6,-1
 918 1556 l 1,7,-1
 563 -270 l 1,0,-1
EndSplineSet
Colour: aaaa88
EndChar
StartChar: asciicircum
Encoding: 94 94 65
Width: 1716
Flags: W
Fore
981 1493 m 1,0,-1
 1509 936 l 1,1,-1
 1268 936 l 1,2,-1
 858 1237 l 1,3,-1
 449 936 l 1,4,-1
 207 936 l 1,5,-1
 735 1493 l 1,6,-1
 981 1493 l 1,0,-1
EndSplineSet
Colour: aaaa88
EndChar
StartChar: underscore
Encoding: 95 95 66
Width: 1024
Flags: W
Fore
1044 -225 m 1,0,-1
 1044 -483 l 1,1,-1
 -20 -483 l 1,2,-1
 -20 -225 l 1,3,-1
 1044 -225 l 1,0,-1
EndSplineSet
Colour: aaaa88
EndChar
StartChar: grave
Encoding: 96 96 67
Width: 1024
Flags: W
Fore
551 1638 m 1,0,-1
 760 1262 l 1,1,-1
 563 1262 l 1,2,-1
 268 1638 l 1,3,-1
 551 1638 l 1,0,-1
EndSplineSet
Colour: aaaa88
EndChar
StartChar: a
Encoding: 97 97 68
Width: 1382
Flags: W
AnchorPoint: "Top" 768 1120 basechar 0
AnchorPoint: "Bottom" 550 0 basechar 0
AnchorPoint: "Ogonek" 820 0 basechar 0
Fore
674 504 m 2,0,1
 540 504 540 504 472 462 c 0,2,3
 403 421 403 421 403 340 c 0,4,5
 403 279 403 279 444 244 c 0,6,7
 484 209 484 209 555 209 c 0,8,9
 665 209 665 209 739 276 c 0,10,11
 813 342 813 342 838 463 c 1,12,-1
 846 504 l 1,13,-1
 674 504 l 2,0,1
1233 639 m 2,14,-1
 1108 0 l 1,15,-1
 750 0 l 1,16,-1
 780 166 l 1,17,18
 692 66 692 66 594 18 c 0,19,20
 496 -29 496 -29 381 -29 c 0,21,22
 222 -29 222 -29 128 54 c 0,23,24
 35 136 35 136 35 276 c 0,25,26
 35 490 35 490 200 604 c 0,27,28
 366 717 366 717 678 717 c 2,29,-1
 889 717 l 1,30,-1
 893 745 l 1,31,32
 896 759 896 759 896 765 c 0,33,34
 897 771 897 771 897 776 c 0,35,36
 897 842 897 842 834 876 c 0,37,38
 772 909 772 909 649 909 c 0,39,40
 538 909 538 909 434 886 c 128,-1,41
 330 863 330 863 233 817 c 1,42,-1
 287 1090 l 1,43,44
 399 1118 399 1118 516 1132 c 0,45,46
 634 1147 634 1147 760 1147 c 0,47,48
 1009 1147 1009 1147 1130 1062 c 0,49,50
 1251 976 1251 976 1251 801 c 0,51,52
 1251 767 1251 767 1246 726 c 0,53,54
 1242 686 1242 686 1233 639 c 2,14,-1
EndSplineSet
Colour: aaaa88
EndChar
StartChar: b
Encoding: 98 98 69
Width: 1466
Flags: W
AnchorPoint: "Bottom" 663 0 basechar 0
AnchorPoint: "Top" 953 1493 basechar 0
Fore
831 887 m 0,0,1
 693 887 693 887 606 760 c 128,-1,2
 518 632 518 632 518 428 c 0,3,4
 518 336 518 336 568 284 c 128,-1,5
 617 231 617 231 705 231 c 0,6,7
 840 231 840 231 928 356 c 128,-1,8
 1016 482 1016 482 1016 678 c 0,9,10
 1016 780 1016 780 968 834 c 128,-1,11
 921 887 921 887 831 887 c 0,0,1
455 162 m 1,12,-1
 422 0 l 1,13,-1
 63 0 l 1,14,-1
 365 1556 l 1,15,-1
 725 1556 l 1,16,-1
 608 956 l 1,17,18
 690 1054 690 1054 780 1100 c 128,-1,19
 870 1147 870 1147 977 1147 c 0,20,21
 1166 1147 1166 1147 1276 1027 c 128,-1,22
 1386 907 1386 907 1386 700 c 0,23,24
 1386 571 1386 571 1348 449 c 128,-1,25
 1309 327 1309 327 1237 227 c 0,26,27
 1146 101 1146 101 1032 36 c 128,-1,28
 917 -29 917 -29 786 -29 c 0,29,30
 671 -29 671 -29 590 18 c 128,-1,31
 510 64 510 64 455 162 c 1,12,-1
EndSplineSet
Colour: aaaa88
EndChar
StartChar: c
Encoding: 99 99 70
Width: 1214
Flags: W
AnchorPoint: "Cedilla" 589 0 basechar 0
AnchorPoint: "Top" 806 1120 basechar 0
AnchorPoint: "Bottom" 589 0 basechar 0
Fore
1190 1085 m 1,0,-1
 1133 793 l 1,1,2
 1061 841 1061 841 991 866 c 128,-1,3
 921 891 921 891 854 891 c 0,4,5
 679 891 679 891 568 774 c 0,6,7
 457 656 457 656 457 473 c 0,8,9
 457 356 457 356 526 292 c 0,10,11
 595 227 595 227 721 227 c 0,12,13
 805 227 805 227 886 252 c 128,-1,14
 967 277 967 277 1040 326 c 1,15,-1
 985 33 l 1,16,17
 896 2 896 2 806 -14 c 0,18,19
 716 -29 716 -29 625 -29 c 0,20,21
 361 -29 361 -29 218 90 c 0,22,23
 76 208 76 208 76 426 c 0,24,25
 76 563 76 563 128 692 c 0,26,27
 181 821 181 821 279 924 c 0,28,29
 388 1037 388 1037 529 1092 c 128,-1,30
 670 1147 670 1147 854 1147 c 0,31,32
 939 1147 939 1147 1023 1132 c 0,33,34
 1107 1116 1107 1116 1190 1085 c 1,0,-1
EndSplineSet
Colour: aaaa88
EndChar
StartChar: d
Encoding: 100 100 71
Width: 1466
Flags: W
AnchorPoint: "Bottom" 595 0 basechar 0
AnchorPoint: "Top" 812 1120 basechar 0
Fore
629 231 m 0,0,1
 767 231 767 231 854 358 c 128,-1,2
 940 485 940 485 940 690 c 0,3,4
 940 783 940 783 892 835 c 128,-1,5
 843 887 843 887 756 887 c 0,6,7
 620 887 620 887 532 762 c 128,-1,8
 444 636 444 636 444 440 c 0,9,10
 444 338 444 338 492 284 c 128,-1,11
 539 231 539 231 629 231 c 0,0,1
1006 956 m 1,12,-1
 1122 1556 l 1,13,-1
 1483 1556 l 1,14,-1
 1180 0 l 1,15,-1
 819 0 l 1,16,-1
 852 162 l 1,17,18
 770 64 770 64 680 18 c 128,-1,19
 590 -29 590 -29 483 -29 c 0,20,21
 294 -29 294 -29 184 91 c 128,-1,22
 74 211 74 211 74 418 c 0,23,24
 74 547 74 547 112 669 c 128,-1,25
 151 791 151 791 223 891 c 0,26,27
 314 1017 314 1017 428 1082 c 128,-1,28
 543 1147 543 1147 674 1147 c 0,29,30
 789 1147 789 1147 870 1100 c 128,-1,31
 950 1054 950 1054 1006 956 c 1,12,-1
EndSplineSet
Colour: aaaa88
EndChar
StartChar: e
Encoding: 101 101 72
Width: 1389
Flags: W
AnchorPoint: "Ogonek" 557 0 basechar 0
AnchorPoint: "Bottom" 557 0 basechar 0
AnchorPoint: "Top" 793 1120 basechar 0
AnchorPoint: "Cedilla" 557 0 basechar 0
Fore
1288 518 m 1,0,-1
 1276 461 l 1,1,-1
 438 461 l 1,2,3
 438 455 438 455 437 444 c 0,4,5
 436 432 436 432 436 426 c 0,6,7
 436 317 436 317 502 263 c 0,8,9
 567 209 567 209 698 209 c 0,10,11
 811 209 811 209 936 243 c 0,12,13
 1062 277 1062 277 1200 344 c 1,14,-1
 1145 66 l 1,15,16
 1014 18 1014 18 884 -6 c 0,17,18
 755 -29 755 -29 621 -29 c 0,19,20
 359 -29 359 -29 216 92 c 0,21,22
 74 213 74 213 74 434 c 0,23,24
 74 562 74 562 120 682 c 0,25,26
 165 803 165 803 252 903 c 0,27,28
 355 1023 355 1023 498 1085 c 0,29,30
 642 1147 642 1147 817 1147 c 0,31,32
 1044 1147 1044 1147 1178 1026 c 0,33,34
 1311 905 1311 905 1311 700 c 0,35,36
 1311 660 1311 660 1306 616 c 0,37,38
 1300 571 1300 571 1288 518 c 1,0,-1
950 682 m 1,39,40
 953 695 953 695 954 708 c 0,41,42
 956 722 956 722 956 735 c 0,43,44
 956 815 956 815 908 862 c 128,-1,45
 860 909 860 909 778 909 c 0,46,47
 673 909 673 909 600 852 c 0,48,49
 526 794 526 794 487 682 c 1,50,-1
 950 682 l 1,39,40
EndSplineSet
Colour: aaaa88
EndChar
StartChar: f
Encoding: 102 102 73
Width: 891
Flags: W
AnchorPoint: "Bottom" 323 0 basechar 0
AnchorPoint: "Top" 698 1493 basechar 0
Fore
1106 1556 m 1,0,-1
 1059 1321 l 1,1,-1
 862 1321 l 2,2,3
 787 1321 787 1321 752 1294 c 128,-1,4
 718 1266 718 1266 705 1199 c 1,5,-1
 688 1120 l 1,6,-1
 991 1120 l 1,7,-1
 942 864 l 1,8,-1
 639 864 l 1,9,-1
 471 0 l 1,10,-1
 111 0 l 1,11,-1
 279 864 l 1,12,-1
 102 864 l 1,13,-1
 152 1120 l 1,14,-1
 328 1120 l 1,15,-1
 344 1198 l 1,16,17
 381 1384 381 1384 498 1470 c 128,-1,18
 615 1556 615 1556 831 1556 c 2,19,-1
 1106 1556 l 1,0,-1
EndSplineSet
Colour: aaaa88
EndChar
StartChar: g
Encoding: 103 103 74
Width: 1466
Flags: W
AnchorPoint: "Bottom" 521 -426 basechar 0
AnchorPoint: "Top" 839 1120 basechar 0
Fore
856 190 m 1,0,1
 770 92 770 92 681 46 c 128,-1,2
 592 0 592 0 487 0 c 0,3,4
 297 0 297 0 186 122 c 0,5,6
 76 245 76 245 76 457 c 0,7,8
 76 570 76 570 114 684 c 0,9,10
 153 797 153 797 225 897 c 0,11,12
 313 1018 313 1018 427 1082 c 0,13,14
 541 1145 541 1145 672 1145 c 0,15,16
 790 1145 790 1145 870 1099 c 0,17,18
 951 1053 951 1053 1006 954 c 1,19,-1
 1036 1120 l 1,20,-1
 1397 1120 l 1,21,-1
 1208 147 l 1,22,23
 1150 -154 1150 -154 960 -298 c 128,-1,24
 770 -442 770 -442 432 -442 c 0,25,26
 328 -442 328 -442 232 -426 c 0,27,28
 135 -410 135 -410 41 -377 c 1,29,-1
 94 -98 l 1,30,31
 179 -152 179 -152 264 -178 c 0,32,33
 349 -205 349 -205 438 -205 c 0,34,35
 616 -205 616 -205 712 -129 c 0,36,37
 807 -53 807 -53 840 113 c 1,38,-1
 856 190 l 1,0,1
756 887 m 0,39,40
 624 887 624 887 536 768 c 0,41,42
 449 649 449 649 449 469 c 0,43,44
 449 367 449 367 496 314 c 0,45,46
 543 260 543 260 633 260 c 0,47,48
 764 260 764 260 852 378 c 0,49,50
 940 497 940 497 940 674 c 0,51,52
 940 778 940 778 893 832 c 0,53,54
 846 887 846 887 756 887 c 0,39,40
EndSplineSet
Colour: aaaa88
EndChar
StartChar: h
Encoding: 104 104 75
Width: 1458
Flags: W
AnchorPoint: "Cedilla" 259 0 basechar 0
AnchorPoint: "Bottom" 622 0 basechar 0
AnchorPoint: "Top" 912 1493 basechar 0
Fore
1321 682 m 2,0,-1
 1188 0 l 1,1,-1
 829 0 l 1,2,-1
 942 584 l 1,3,4
 954 641 954 641 960 680 c 128,-1,5
 967 720 967 720 967 743 c 0,6,7
 967 807 967 807 932 842 c 128,-1,8
 896 877 896 877 831 877 c 0,9,10
 720 877 720 877 640 790 c 128,-1,11
 561 704 561 704 530 551 c 1,12,-1
 422 0 l 1,13,-1
 63 0 l 1,14,-1
 365 1556 l 1,15,-1
 725 1556 l 1,16,-1
 608 956 l 1,17,18
 707 1053 707 1053 807 1100 c 128,-1,19
 907 1147 907 1147 1016 1147 c 0,20,21
 1171 1147 1171 1147 1255 1066 c 128,-1,22
 1339 985 1339 985 1339 838 c 0,23,24
 1339 806 1339 806 1334 767 c 128,-1,25
 1330 728 1330 728 1321 682 c 2,0,-1
EndSplineSet
Colour: aaaa88
EndChar
StartChar: i
Encoding: 105 105 76
Width: 702
Flags: W
HStem: 0 21G<63 422> 1100 20G<281 641> 1264 292<364 668>
AnchorPoint: "Ogonek" 243 0 basechar 0
AnchorPoint: "Top" 460 1120 basechar 0
AnchorPoint: "Bottom" 243 0 basechar 0
Fore
281 1120 m 1,0,-1
 641 1120 l 1,1,-1
 422 0 l 1,2,-1
 63 0 l 1,3,-1
 281 1120 l 1,0,-1
365 1556 m 1,4,-1
 725 1556 l 1,5,-1
 668 1264 l 1,6,-1
 307 1264 l 1,7,-1
 365 1556 l 1,4,-1
EndSplineSet
Colour: aaaa88
EndChar
StartChar: j
Encoding: 106 106 77
Width: 702
Flags: W
AnchorPoint: "Bottom" 196 -426 basechar 0
AnchorPoint: "Top" 460 1120 basechar 0
Fore
281 1120 m 1,0,-1
 641 1120 l 1,1,-1
 426 20 l 2,2,3
 380 -215 380 -215 254 -328 c 0,4,5
 129 -442 129 -442 -84 -442 c 2,5,-1
 -262 -442 l 1,6,-1
 -217 -207 l 1,7,-1
 -154 -207 l 2,8,9
 -53 -207 -53 -207 -6 -162 c 0,10,11
 40 -116 40 -116 66 20 c 1,11,-1
 281 1120 l 1,0,-1
365 1556 m 1,12,-1
 725 1556 l 1,13,-1
 668 1264 l 1,14,-1
 307 1264 l 1,15,-1
 365 1556 l 1,12,-1
EndSplineSet
Colour: aaaa88
EndChar
StartChar: k
Encoding: 107 107 78
Width: 1362
Flags: W
AnchorPoint: "Bottom" 606 0 basechar 0
AnchorPoint: "Top" 896 1493 basechar 0
Fore
365 1556 m 1,0,-1
 725 1556 l 1,1,-1
 561 713 l 1,2,-1
 1044 1120 l 1,3,-1
 1466 1120 l 1,4,-1
 815 602 l 1,5,-1
 1288 0 l 1,6,-1
 879 0 l 1,7,-1
 516 483 l 1,8,-1
 422 0 l 1,9,-1
 63 0 l 1,10,-1
 365 1556 l 1,0,-1
EndSplineSet
Colour: aaaa88
EndChar
StartChar: l
Encoding: 108 108 79
Width: 702
Flags: W
AnchorPoint: "Top" 539 1520 basechar 0
AnchorPoint: "Bottom" 243 0 basechar 0
Fore
365 1556 m 1,0,-1
 725 1556 l 1,1,-1
 422 0 l 1,2,-1
 63 0 l 1,3,-1
 365 1556 l 1,0,-1
EndSplineSet
Colour: aaaa88
EndChar
StartChar: m
Encoding: 109 109 80
Width: 2134
Flags: W
AnchorPoint: "Top" 1184 1120 basechar 0
AnchorPoint: "Bottom" 967 0 basechar 0
Fore
1284 934 m 1,0,1
 1367 1037 1367 1037 1472 1092 c 128,-1,2
 1578 1147 1578 1147 1692 1147 c 0,3,4
 1842 1147 1842 1147 1928 1064 c 128,-1,5
 2015 982 2015 982 2015 838 c 0,6,7
 2015 808 2015 808 2010 770 c 128,-1,8
 2006 731 2006 731 1997 682 c 1,9,-1
 1864 0 l 1,10,-1
 1503 0 l 1,11,-1
 1616 584 l 1,12,-1
 1619 599 l 2,13,14
 1645 723 1645 723 1645 758 c 0,15,16
 1645 813 1645 813 1614 845 c 128,-1,17
 1582 877 1582 877 1528 877 c 0,18,19
 1425 877 1425 877 1354 792 c 128,-1,20
 1282 708 1282 708 1251 551 c 2,21,-1
 1143 0 l 1,22,-1
 782 0 l 1,23,-1
 897 584 l 1,24,25
 912 659 912 659 918 698 c 128,-1,26
 924 736 924 736 924 758 c 0,27,28
 924 814 924 814 893 846 c 128,-1,29
 862 877 862 877 807 877 c 0,30,31
 708 877 708 877 634 790 c 128,-1,32
 559 702 559 702 530 551 c 1,33,-1
 422 0 l 1,34,-1
 63 0 l 1,35,-1
 281 1120 l 1,36,-1
 641 1120 l 1,37,-1
 608 956 l 1,38,39
 692 1051 692 1051 787 1099 c 128,-1,40
 882 1147 882 1147 985 1147 c 0,41,42
 1101 1147 1101 1147 1184 1088 c 128,-1,43
 1267 1028 1267 1028 1284 934 c 1,0,1
EndSplineSet
Colour: aaaa88
EndChar
StartChar: n
Encoding: 110 110 81
Width: 1458
Flags: W
AnchorPoint: "Top" 849 1120 basechar 0
AnchorPoint: "Bottom" 632 0 basechar 0
Fore
1321 682 m 2,0,-1
 1188 0 l 1,1,-1
 829 0 l 1,2,-1
 942 584 l 1,3,4
 954 641 954 641 960 680 c 0,5,6
 967 720 967 720 967 743 c 0,7,8
 967 807 967 807 932 842 c 0,9,10
 896 877 896 877 831 877 c 0,11,12
 720 877 720 877 640 790 c 0,13,14
 561 704 561 704 530 551 c 1,15,-1
 422 0 l 1,16,-1
 63 0 l 1,17,-1
 281 1120 l 1,18,-1
 641 1120 l 1,19,-1
 608 956 l 1,20,21
 707 1053 707 1053 807 1100 c 128,-1,22
 907 1147 907 1147 1016 1147 c 0,23,24
 1171 1147 1171 1147 1255 1066 c 128,-1,25
 1339 985 1339 985 1339 838 c 0,26,27
 1339 806 1339 806 1334 767 c 0,28,29
 1330 728 1330 728 1321 682 c 2,0,-1
EndSplineSet
Colour: aaaa88
EndChar
StartChar: o
Encoding: 111 111 82
Width: 1407
Flags: W
AnchorPoint: "Ogonek" 599 0 basechar 0
AnchorPoint: "Horn" 1117 948 basechar 0
AnchorPoint: "Top" 817 1120 basechar 0
AnchorPoint: "Bottom" 599 0 basechar 0
Fore
768 891 m 0,0,1
 629 891 629 891 539 765 c 128,-1,2
 449 639 449 639 449 444 c 0,3,4
 449 338 449 338 498 282 c 0,5,6
 546 227 546 227 639 227 c 0,7,8
 778 227 778 227 868 354 c 0,9,10
 958 480 958 480 958 676 c 0,11,12
 958 781 958 781 910 836 c 0,13,14
 861 891 861 891 768 891 c 0,0,1
797 1147 m 0,15,16
 1047 1147 1047 1147 1190 1020 c 128,-1,17
 1333 893 1333 893 1333 674 c 0,18,19
 1333 547 1333 547 1288 428 c 0,20,21
 1243 308 1243 308 1157 209 c 0,22,23
 1055 91 1055 91 916 31 c 128,-1,24
 777 -29 777 -29 606 -29 c 0,25,26
 359 -29 359 -29 216 98 c 0,27,28
 74 225 74 225 74 444 c 0,29,30
 74 570 74 570 120 690 c 0,31,32
 166 811 166 811 252 911 c 0,33,34
 352 1027 352 1027 490 1087 c 0,35,36
 629 1147 629 1147 797 1147 c 0,15,16
EndSplineSet
Colour: aaaa88
EndChar
StartChar: p
Encoding: 112 112 83
Width: 1466
Flags: W
AnchorPoint: "Bottom" 578 -426 basechar 0
AnchorPoint: "Top" 879 1120 basechar 0
Fore
455 162 m 1,0,-1
 340 -426 l 1,1,-1
 -20 -426 l 1,2,-1
 281 1120 l 1,3,-1
 641 1120 l 1,4,-1
 608 956 l 1,5,6
 690 1054 690 1054 780 1100 c 0,7,8
 870 1147 870 1147 977 1147 c 0,8,9
 1166 1147 1166 1147 1276 1027 c 128,-1,10
 1386 907 1386 907 1386 700 c 0,11,12
 1386 571 1386 571 1348 449 c 0,13,14
 1309 327 1309 327 1237 227 c 0,14,15
 1146 101 1146 101 1032 36 c 0,16,17
 917 -29 917 -29 786 -29 c 0,17,18
 671 -29 671 -29 590 18 c 0,19,20
 510 64 510 64 455 162 c 1,0,-1
831 887 m 0,20,21
 693 887 693 887 606 760 c 0,22,23
 518 632 518 632 518 428 c 0,23,24
 518 336 518 336 568 284 c 0,25,26
 617 231 617 231 705 231 c 0,26,27
 840 231 840 231 928 356 c 0,28,29
 1016 482 1016 482 1016 678 c 0,29,30
 1016 780 1016 780 968 834 c 0,31,32
 921 887 921 887 831 887 c 0,20,21
EndSplineSet
Colour: aaaa88
EndChar
StartChar: q
Encoding: 113 113 84
Width: 1466
Flags: W
AnchorPoint: "Bottom" 500 -426 basechar 0
AnchorPoint: "Top" 801 1120 basechar 0
Fore
1006 956 m 1,0,-1
 1036 1120 l 1,1,-1
 1397 1120 l 1,2,-1
 1096 -426 l 1,3,-1
 735 -426 l 1,4,-1
 850 162 l 1,5,6
 770 64 770 64 680 18 c 128,-1,7
 590 -29 590 -29 483 -29 c 0,8,9
 294 -29 294 -29 184 91 c 128,-1,10
 74 211 74 211 74 418 c 0,11,12
 74 547 74 547 112 669 c 128,-1,13
 151 791 151 791 223 891 c 0,14,15
 314 1017 314 1017 428 1082 c 128,-1,16
 543 1147 543 1147 674 1147 c 0,17,18
 789 1147 789 1147 870 1100 c 128,-1,19
 950 1054 950 1054 1006 956 c 1,0,-1
629 231 m 0,20,21
 767 231 767 231 854 358 c 128,-1,22
 940 485 940 485 940 690 c 0,23,24
 940 783 940 783 892 835 c 128,-1,25
 843 887 843 887 756 887 c 0,26,27
 620 887 620 887 532 762 c 128,-1,28
 444 636 444 636 444 440 c 0,29,30
 444 338 444 338 492 284 c 128,-1,31
 539 231 539 231 629 231 c 0,20,21
EndSplineSet
Colour: aaaa88
EndChar
StartChar: r
Encoding: 114 114 85
Width: 1010
Flags: W
AnchorPoint: "Cedilla" 512 0 basechar 0
AnchorPoint: "Bottom" 512 0 basechar 0
AnchorPoint: "Top" 729 1120 basechar 0
Fore
1053 815 m 1,0,1
 1016 836 1016 836 971 847 c 128,-1,2
 926 858 926 858 874 858 c 0,3,4
 737 858 737 858 646 770 c 128,-1,5
 556 682 556 682 524 516 c 1,6,-1
 422 0 l 1,7,-1
 63 0 l 1,8,-1
 281 1120 l 1,9,-1
 641 1120 l 1,10,-1
 602 928 l 1,11,12
 673 1034 673 1034 780 1090 c 128,-1,13
 886 1147 886 1147 1016 1147 c 0,14,15
 1035 1147 1035 1147 1059 1145 c 128,-1,16
 1083 1143 1083 1143 1116 1139 c 1,17,-1
 1053 815 l 1,0,1
EndSplineSet
Colour: aaaa88
EndChar
StartChar: s
Encoding: 115 115 86
Width: 1219
Flags: W
AnchorPoint: "Cedilla" 506 0 basechar 0
AnchorPoint: "Top" 724 1120 basechar 0
AnchorPoint: "Bottom" 506 0 basechar 0
Fore
1147 1085 m 1,0,-1
 1094 807 l 1,1,2
 989 857 989 857 885 883 c 128,-1,3
 781 909 781 909 688 909 c 0,4,5
 582 909 582 909 524 882 c 0,6,7
 467 854 467 854 467 803 c 0,8,9
 467 773 467 773 499 755 c 128,-1,10
 531 737 531 737 625 717 c 1,11,-1
 690 705 l 1,12,13
 907 659 907 659 994 586 c 0,14,15
 1081 514 1081 514 1081 385 c 0,16,17
 1081 190 1081 190 928 80 c 0,18,19
 775 -29 775 -29 500 -29 c 0,20,21
 385 -29 385 -29 265 -11 c 128,-1,22
 145 7 145 7 20 43 c 1,23,-1
 74 324 l 1,24,25
 171 267 171 267 282 238 c 0,26,27
 392 209 392 209 508 209 c 0,28,29
 621 209 621 209 678 236 c 128,-1,30
 735 263 735 263 735 315 c 0,31,32
 735 351 735 351 703 371 c 128,-1,33
 671 391 671 391 571 412 c 1,34,-1
 506 424 l 1,35,36
 314 464 314 464 232 542 c 128,-1,37
 150 620 150 620 150 758 c 0,38,39
 150 945 150 945 292 1046 c 0,40,41
 433 1147 433 1147 696 1147 c 0,42,43
 811 1147 811 1147 922 1132 c 0,44,45
 1034 1116 1034 1116 1147 1085 c 1,0,-1
EndSplineSet
Colour: aaaa88
EndChar
StartChar: t
Encoding: 116 116 87
Width: 979
Flags: W
AnchorPoint: "Cedilla" 553 0 basechar 0
AnchorPoint: "Bottom" 425 0 basechar 0
AnchorPoint: "Top" 584 1520 basechar 0
Fore
737 1438 m 1,0,-1
 676 1120 l 1,1,-1
 1042 1120 l 1,2,-1
 991 864 l 1,3,-1
 625 864 l 1,4,-1
 533 390 l 1,5,6
 529 374 529 374 528 363 c 128,-1,7
 526 352 526 352 526 342 c 0,8,9
 526 296 526 296 556 276 c 128,-1,10
 587 256 587 256 659 256 c 2,11,-1
 844 256 l 1,12,-1
 793 0 l 1,13,-1
 492 0 l 2,14,15
 330 0 330 0 245 68 c 128,-1,16
 160 136 160 136 160 264 c 0,17,18
 160 292 160 292 163 324 c 128,-1,19
 166 356 166 356 172 389 c 1,20,-1
 264 864 l 1,21,-1
 88 864 l 1,22,-1
 137 1120 l 1,23,-1
 315 1120 l 1,24,-1
 377 1438 l 1,25,-1
 737 1438 l 1,0,-1
EndSplineSet
Colour: aaaa88
EndChar
StartChar: u
Encoding: 117 117 88
Width: 1458
Flags: W
AnchorPoint: "Ogonek" 898 0 basechar 0
AnchorPoint: "Horn" 1267 948 basechar 0
AnchorPoint: "Top" 845 1120 basechar 0
AnchorPoint: "Bottom" 627 0 basechar 0
Fore
139 436 m 2,0,-1
 270 1120 l 1,1,-1
 629 1120 l 1,2,-1
 516 537 l 1,3,4
 504 480 504 480 498 440 c 128,-1,5
 492 400 492 400 492 377 c 0,6,7
 492 314 492 314 527 279 c 128,-1,8
 562 244 562 244 627 244 c 0,9,10
 738 244 738 244 818 330 c 128,-1,11
 898 416 898 416 928 569 c 2,12,-1
 1036 1120 l 1,13,-1
 1395 1120 l 1,14,-1
 1178 0 l 1,15,-1
 817 0 l 1,16,-1
 850 164 l 1,17,18
 758 67 758 67 657 19 c 128,-1,19
 556 -29 556 -29 444 -29 c 0,20,21
 291 -29 291 -29 207 52 c 128,-1,22
 123 133 123 133 123 281 c 0,23,24
 123 316 123 316 127 355 c 128,-1,25
 131 394 131 394 139 436 c 2,0,-1
EndSplineSet
Colour: aaaa88
EndChar
StartChar: v
Encoding: 118 118 89
Width: 1335
Flags: W
AnchorPoint: "Top" 766 1120 basechar 0
AnchorPoint: "Bottom" 548 0 basechar 0
Fore
129 1120 m 1,0,-1
 459 1120 l 1,1,-1
 604 338 l 1,2,-1
 1026 1120 l 1,3,-1
 1389 1120 l 1,4,-1
 731 0 l 1,5,-1
 352 0 l 1,6,-1
 129 1120 l 1,0,-1
EndSplineSet
Colour: aaaa88
EndChar
StartChar: w
Encoding: 119 119 90
Width: 1892
Flags: W
AnchorPoint: "Top" 1034 1120 basechar 0
AnchorPoint: "Bottom" 816 0 basechar 0
Fore
178 1120 m 1,0,-1
 508 1120 l 1,1,-1
 547 350 l 1,2,-1
 885 1120 l 1,3,-1
 1169 1120 l 1,4,-1
 1210 352 l 1,5,-1
 1546 1120 l 1,6,-1
 1898 1120 l 1,7,-1
 1386 0 l 1,8,-1
 1006 0 l 1,9,-1
 969 770 l 1,10,-1
 627 0 l 1,11,-1
 256 0 l 1,12,-1
 178 1120 l 1,0,-1
EndSplineSet
Colour: aaaa88
EndChar
StartChar: x
Encoding: 120 120 91
Width: 1321
Flags: W
AnchorPoint: "Top" 774 1120 basechar 0
AnchorPoint: "Bottom" 556 0 basechar 0
Fore
453 573 m 1,0,-1
 156 1120 l 1,1,-1
 528 1120 l 1,2,-1
 694 788 l 1,3,-1
 985 1120 l 1,4,-1
 1374 1120 l 1,5,-1
 864 575 l 1,6,-1
 1176 0 l 1,7,-1
 803 0 l 1,8,-1
 627 354 l 1,9,-1
 305 0 l 1,10,-1
 -84 0 l 1,11,-1
 453 573 l 1,0,-1
EndSplineSet
Colour: aaaa88
EndChar
StartChar: y
Encoding: 121 121 92
Width: 1335
Flags: W
AnchorPoint: "Bottom" 463 -426 basechar 0
AnchorPoint: "Top" 764 1120 basechar 0
Fore
135 1120 m 1,0,-1
 473 1120 l 1,1,-1
 627 344 l 1,2,-1
 1024 1120 l 1,3,-1
 1407 1120 l 1,4,-1
 698 -106 l 1,5,6
 579 -313 579 -313 478 -378 c 0,7,8
 377 -442 377 -442 217 -442 c 2,9,-1
 0 -442 l 1,10,-1
 37 -207 l 1,11,-1
 150 -207 l 2,12,13
 238 -207 238 -207 286 -178 c 0,14,15
 335 -148 335 -148 373 -74 c 1,16,-1
 406 -14 l 1,17,-1
 135 1120 l 1,0,-1
EndSplineSet
Colour: aaaa88
EndChar
StartChar: z
Encoding: 122 122 93
Width: 1192
Flags: W
AnchorPoint: "Top" 720 1120 basechar 0
AnchorPoint: "Bottom" 502 0 basechar 0
Fore
223 1120 m 1,0,-1
 1200 1120 l 1,1,-1
 1151 870 l 1,2,-1
 453 256 l 1,3,-1
 1032 256 l 1,4,-1
 983 0 l 1,5,-1
 -18 0 l 1,6,-1
 29 250 l 1,7,-1
 729 864 l 1,8,-1
 174 864 l 1,9,-1
 223 1120 l 1,0,-1
EndSplineSet
Colour: aaaa88
EndChar
StartChar: braceleft
Encoding: 123 123 94
Width: 1458
Flags: W
Fore
1047 -109 m 1,0,-1
 1004 -334 l 1,1,-1
 786 -334 l 2,2,3
 607 -334 607 -334 516.5 -272.5 c 128,-1,4
 426 -211 426 -211 426 -88 c 0,5,6
 426 -66 426 -66 429.5 -36 c 128,-1,7
 433 -6 433 -6 440 34 c 2,8,-1
 477 227 l 2,9,10
 483 257 483 257 486 284.5 c 128,-1,11
 489 312 489 312 489 334 c 0,12,13
 489 422 489 422 443.5 458 c 128,-1,14
 398 494 398 494 281 494 c 2,15,-1
 217 494 l 1,16,-1
 262 717 l 1,17,-1
 324 717 l 2,18,19
 465 717 465 717 530.5 775 c 128,-1,20
 596 833 596 833 625 983 c 2,21,-1
 664 1188 l 2,22,23
 701 1381 701 1381 817.5 1468.5 c 128,-1,24
 934 1556 934 1556 1153 1556 c 2,25,-1
 1370 1556 l 1,26,-1
 1327 1331 l 1,27,-1
 1257 1331 l 2,28,29
 1118 1331 1118 1331 1066.5 1287.5 c 128,-1,30
 1015 1244 1015 1244 987 1102 c 2,31,-1
 954 936 l 2,32,33
 924 780 924 780 865 708.5 c 128,-1,34
 806 637 806 637 692 612 c 1,35,36
 772 591 772 591 809 546 c 128,-1,37
 846 501 846 501 846 424 c 0,38,39
 846 394 846 394 842 360.5 c 128,-1,40
 838 327 838 327 829 287 c 2,41,-1
 797 121 l 2,42,43
 788 75 788 75 785 51 c 128,-1,44
 782 27 782 27 782 10 c 0,45,46
 782 -57 782 -57 822.5 -83 c 128,-1,47
 863 -109 863 -109 979 -109 c 2,48,-1
 1047 -109 l 1,0,-1
EndSplineSet
Colour: aaaa88
EndChar
StartChar: bar
Encoding: 124 124 95
Width: 748
Flags: W
Fore
487 1565 m 1,0,-1
 487 -483 l 1,1,-1
 260 -483 l 1,2,-1
 260 1565 l 1,3,-1
 487 1565 l 1,0,-1
EndSplineSet
Colour: aaaa88
EndChar
StartChar: braceright
Encoding: 125 125 96
Width: 1458
Flags: W
Fore
133 -109 m 1,0,-1
 203 -109 l 2,1,2
 343 -109 343 -109 394.5 -64.5 c 128,-1,3
 446 -20 446 -20 473 121 c 2,4,-1
 506 287 l 2,5,6
 536 442 536 442 595.5 514 c 128,-1,7
 655 586 655 586 770 612 c 1,8,9
 690 631 690 631 652 676 c 128,-1,10
 614 721 614 721 614 799 c 0,11,12
 614 823 614 823 618.5 857 c 128,-1,13
 623 891 623 891 631 936 c 2,14,-1
 664 1102 l 2,15,16
 672 1144 672 1144 675 1169 c 128,-1,17
 678 1194 678 1194 678 1212 c 0,18,19
 678 1280 678 1280 637.5 1305.5 c 128,-1,20
 597 1331 597 1331 481 1331 c 2,21,-1
 414 1331 l 1,22,-1
 457 1556 l 1,23,-1
 676 1556 l 2,24,25
 855 1556 855 1556 944.5 1495 c 128,-1,26
 1034 1434 1034 1434 1034 1311 c 0,27,28
 1034 1283 1034 1283 1030.5 1252.5 c 128,-1,29
 1027 1222 1027 1222 1020 1188 c 2,30,-1
 981 983 l 2,31,32
 975 953 975 953 972 926 c 128,-1,33
 969 899 969 899 969 877 c 0,34,35
 969 789 969 789 1015.5 753 c 128,-1,36
 1062 717 1062 717 1178 717 c 2,37,-1
 1241 717 l 1,38,-1
 1196 494 l 1,39,-1
 1135 494 l 2,40,41
 994 494 994 494 928.5 435.5 c 128,-1,42
 863 377 863 377 834 227 c 2,43,-1
 797 35 l 2,44,45
 760 -158 760 -158 643 -246 c 128,-1,46
 526 -334 526 -334 307 -334 c 2,47,-1
 90 -334 l 1,48,-1
 133 -109 l 1,0,-1
EndSplineSet
Colour: aaaa88
EndChar
StartChar: asciitilde
Encoding: 126 126 97
Width: 1716
Flags: W
Fore
1499 850 m 1,0,-1
 1499 606 l 1,1,2
 1393 526 1393 526 1303.5 491.5 c 128,-1,3
 1214 457 1214 457 1118 457 c 0,4,5
 1011 457 1011 457 868 515 c 0,6,7
 854 521 854 521 846 524 c 0,8,9
 839 527 839 527 824 533 c 0,10,11
 669 594 669 594 575 594 c 0,12,13
 487 594 487 594 401 555.5 c 128,-1,14
 315 517 315 517 217 434 c 1,15,-1
 217 678 l 1,16,17
 324 758 324 758 413 792.5 c 128,-1,18
 502 827 502 827 598 827 c 0,19,20
 705 827 705 827 848 769 c 0,21,22
 863 763 863 763 870 760 c 256,23,24
 877 757 877 757 892 751 c 0,25,26
 1047 690 1047 690 1141 690 c 0,27,28
 1227 690 1227 690 1311.5 727.5 c 128,-1,29
 1396 765 1396 765 1499 850 c 1,0,-1
EndSplineSet
Colour: aaaa88
EndChar
StartChar: Aring
Encoding: 197 197 99
Width: 1585
Flags: W
Fore
795 1616 m 256,0,1
 795 1562 795 1562 833.5 1523.5 c 128,-1,2
 872 1485 872 1485 926 1485 c 256,3,4
 980 1485 980 1485 1018.5 1523.5 c 128,-1,5
 1057 1562 1057 1562 1057 1616 c 256,6,7
 1057 1670 1057 1670 1018 1708.5 c 128,-1,8
 979 1747 979 1747 926 1747 c 0,9,10
 872 1747 872 1747 833.5 1708.5 c 128,-1,11
 795 1670 795 1670 795 1616 c 256,0,1
1155 1456 m 1,12,-1
 1415 0 l 1,13,-1
 1049 0 l 1,14,-1
 1006 272 l 1,15,-1
 410 272 l 1,16,-1
 262 0 l 1,17,-1
 -133 0 l 1,18,-1
 692 1458 l 1,19,20
 666 1495 666 1495 653.5 1533.5 c 128,-1,21
 641 1572 641 1572 641 1616 c 0,22,23
 641 1733 641 1733 724.5 1817 c 128,-1,24
 808 1901 808 1901 926 1901 c 0,25,26
 1043 1901 1043 1901 1126.5 1817 c 128,-1,27
 1210 1733 1210 1733 1210 1616 c 0,28,29
 1210 1568 1210 1568 1197 1529.5 c 128,-1,30
 1184 1491 1184 1491 1155 1456 c 1,12,-1
555 543 m 1,31,-1
 956 543 l 1,32,-1
 866 1118 l 1,33,-1
 555 543 l 1,31,-1
EndSplineSet
Colour: aaaa88
EndChar
StartChar: dagger
Encoding: 8224 8224 130
Width: 1024
Flags: W
Fore
487 1493 m 1,0,-1
 817 1493 l 1,1,-1
 743 1112 l 1,2,-1
 1032 1112 l 1,3,-1
 987 874 l 1,4,-1
 698 874 l 1,5,-1
 489 -197 l 1,6,-1
 160 -197 l 1,7,-1
 367 874 l 1,8,-1
 78 874 l 1,9,-1
 123 1112 l 1,10,-1
 414 1112 l 1,11,-1
 487 1493 l 1,0,-1
EndSplineSet
Colour: aaaa88
EndChar
StartChar: degree
Encoding: 176 176 131
Width: 1024
Flags: W
Fore
512 1372 m 0,0,1
 440 1372 440 1372 390 1322 c 128,-1,2
 340 1272 340 1272 340 1200 c 256,3,4
 340 1128 340 1128 389.5 1079 c 128,-1,5
 439 1030 439 1030 512 1030 c 0,6,7
 584 1030 584 1030 634 1079.5 c 128,-1,8
 684 1129 684 1129 684 1200 c 0,9,10
 684 1272 684 1272 633.5 1322 c 128,-1,11
 583 1372 583 1372 512 1372 c 0,0,1
512 1534 m 0,12,13
 578 1534 578 1534 639 1508.5 c 128,-1,14
 700 1483 700 1483 748 1436 c 0,15,16
 795 1388 795 1388 819.5 1328 c 128,-1,17
 844 1268 844 1268 844 1200 c 0,18,19
 844 1133 844 1133 819.5 1072.5 c 128,-1,20
 795 1012 795 1012 750 967 c 0,21,22
 702 919 702 919 640 893.5 c 128,-1,23
 578 868 578 868 510 868 c 0,24,25
 369 868 369 868 273.5 963.5 c 128,-1,26
 178 1059 178 1059 178 1200 c 256,27,28
 178 1341 178 1341 274.5 1437.5 c 128,-1,29
 371 1534 371 1534 512 1534 c 0,12,13
EndSplineSet
Colour: aaaa88
EndChar
StartChar: cent
Encoding: 162 162 132
Width: 1425
Flags: W
Fore
741 856 m 1,0,1
 639 810 639 810 577.5 705.5 c 128,-1,2
 516 601 516 601 516 473 c 0,3,4
 516 399 516 399 544.5 344.5 c 128,-1,5
 573 290 573 290 625 264 c 1,6,-1
 741 856 l 1,0,1
1249 1085 m 1,7,-1
 1192 793 l 1,8,9
 1117 843 1117 843 1049.5 867 c 128,-1,10
 982 891 982 891 918 891 c 2,11,-1
 909 891 l 1,12,-1
 781 227 l 1,13,14
 870 229 870 229 949.5 253.5 c 128,-1,15
 1029 278 1029 278 1100 326 c 1,16,-1
 1044 33 l 1,17,18
 972 8 972 8 894 -7 c 128,-1,19
 816 -22 816 -22 731 -27 c 1,20,-1
 676 -313 l 1,21,-1
 514 -313 l 1,22,-1
 569 -23 l 1,23,24
 368 -1 368 -1 252.5 115.5 c 128,-1,25
 137 232 137 232 137 414 c 0,26,27
 137 705 137 705 319 906 c 128,-1,28
 501 1107 501 1107 797 1141 c 1,29,-1
 852 1432 l 1,30,-1
 1014 1432 l 1,31,-1
 959 1145 l 1,32,33
 1027 1143 1027 1143 1100 1128 c 128,-1,34
 1173 1113 1173 1113 1249 1085 c 1,7,-1
EndSplineSet
Colour: aaaa88
EndChar
StartChar: sterling
Encoding: 163 163 133
Width: 1425
Flags: W
Fore
1415 1466 m 1,0,-1
 1360 1180 l 1,1,2
 1301 1217 1301 1217 1231 1237 c 128,-1,3
 1161 1257 1161 1257 1090 1257 c 0,4,5
 965 1257 965 1257 895 1195.5 c 128,-1,6
 825 1134 825 1134 799 1001 c 2,7,-1
 766 831 l 1,8,-1
 1139 831 l 1,9,-1
 1094 592 l 1,10,-1
 719 592 l 1,11,-1
 655 266 l 1,12,-1
 1196 266 l 1,13,-1
 1145 0 l 1,14,-1
 14 0 l 1,15,-1
 66 266 l 1,16,-1
 291 266 l 1,17,-1
 354 592 l 1,18,-1
 162 592 l 1,19,-1
 207 831 l 1,20,-1
 401 831 l 1,21,-1
 434 1001 l 2,22,23
 486 1271 486 1271 637 1395.5 c 128,-1,24
 788 1520 788 1520 1063 1520 c 0,25,26
 1155 1520 1155 1520 1243 1506.5 c 128,-1,27
 1331 1493 1331 1493 1415 1466 c 1,0,-1
EndSplineSet
Colour: aaaa88
EndChar
StartChar: section
Encoding: 167 167 134
Width: 1024
Flags: W
Fore
1012 1462 m 1,0,-1
 969 1235 l 1,1,2
 879 1275 879 1275 807 1294 c 128,-1,3
 735 1313 735 1313 674 1313 c 0,4,5
 594 1313 594 1313 547 1282.5 c 128,-1,6
 500 1252 500 1252 500 1202 c 0,7,8
 500 1172 500 1172 524.5 1147 c 128,-1,9
 549 1122 549 1122 606 1096 c 2,10,-1
 696 1055 l 2,11,12
 871 977 871 977 935 901.5 c 128,-1,13
 999 826 999 826 999 715 c 0,14,15
 999 592 999 592 922 497 c 128,-1,16
 845 402 845 402 698 344 c 1,17,18
 755 308 755 308 782 264 c 128,-1,19
 809 220 809 220 809 166 c 0,20,21
 809 4 809 4 668 -95.5 c 128,-1,22
 527 -195 527 -195 291 -195 c 0,23,24
 207 -195 207 -195 117 -180.5 c 128,-1,25
 27 -166 27 -166 -68 -137 c 1,26,-1
 -20 100 l 1,27,28
 82 57 82 57 162 35.5 c 128,-1,29
 242 14 242 14 303 14 c 0,30,31
 380 14 380 14 428.5 45.5 c 128,-1,32
 477 77 477 77 477 125 c 0,33,34
 477 156 477 156 453 179.5 c 128,-1,35
 429 203 429 203 350 240 c 2,36,-1
 215 301 l 2,37,38
 96 355 96 355 40 428.5 c 128,-1,39
 -16 502 -16 502 -16 604 c 0,40,41
 -16 727 -16 727 57.5 822.5 c 128,-1,42
 131 918 131 918 272 977 c 1,43,44
 220 1018 220 1018 195 1064 c 128,-1,45
 170 1110 170 1110 170 1163 c 0,46,47
 170 1319 170 1319 308.5 1419.5 c 128,-1,48
 447 1520 447 1520 668 1520 c 0,49,50
 751 1520 751 1520 837 1505.5 c 128,-1,51
 923 1491 923 1491 1012 1462 c 1,0,-1
444 854 m 1,52,53
 364 833 364 833 321.5 788.5 c 128,-1,54
 279 744 279 744 279 682 c 0,55,56
 279 621 279 621 327.5 578 c 128,-1,57
 376 535 376 535 539 471 c 1,58,59
 619 498 619 498 663 543.5 c 128,-1,60
 707 589 707 589 707 645 c 0,61,62
 707 706 707 706 650 752.5 c 128,-1,63
 593 799 593 799 444 854 c 1,52,53
EndSplineSet
Colour: aaaa88
EndChar
StartChar: bullet
Encoding: 8226 8226 135
Width: 1309
Flags: W
Fore
295 762 m 256,0,1
 295 836 295 836 321.5 901 c 128,-1,2
 348 966 348 966 399 1016 c 0,3,4
 452 1067 452 1067 517 1093.5 c 128,-1,5
 582 1120 582 1120 655 1120 c 256,6,7
 728 1120 728 1120 793.5 1093 c 128,-1,8
 859 1066 859 1066 909 1016 c 0,9,10
 961 964 961 964 987.5 899.5 c 128,-1,11
 1014 835 1014 835 1014 762 c 0,12,13
 1014 688 1014 688 987 622.5 c 128,-1,14
 960 557 960 557 909 506 c 256,15,16
 858 455 858 455 792.5 428 c 128,-1,17
 727 401 727 401 653 401 c 0,18,19
 580 401 580 401 515 428 c 128,-1,20
 450 455 450 455 399 506 c 0,21,22
 349 557 349 557 322 622.5 c 128,-1,23
 295 688 295 688 295 762 c 256,0,1
EndSplineSet
Colour: aaaa88
EndChar
StartChar: paragraph
Encoding: 182 182 136
Width: 1303
Flags: W
Fore
715 1493 m 2,0,-1
 1235 1493 l 1,1,-1
 907 -197 l 1,2,-1
 717 -197 l 1,3,-1
 1016 1346 l 1,4,-1
 827 1346 l 1,5,-1
 526 -197 l 1,6,-1
 338 -197 l 1,7,-1
 502 649 l 1,8,9
 334 669 334 669 243 761 c 128,-1,10
 152 853 152 853 152 1001 c 0,11,12
 152 1216 152 1216 308.5 1354.5 c 128,-1,13
 465 1493 465 1493 715 1493 c 2,0,-1
EndSplineSet
Colour: aaaa88
EndChar
StartChar: germandbls
Encoding: 223 223 137
Width: 1473
Flags: W
Fore
279 1114 m 2,0,1
 321 1338 321 1338 475.5 1447 c 128,-1,2
 630 1556 630 1556 903 1556 c 0,3,4
 1129 1556 1129 1556 1246.5 1468 c 128,-1,5
 1364 1380 1364 1380 1364 1210 c 0,6,7
 1364 1190 1364 1190 1361.5 1166 c 128,-1,8
 1359 1142 1359 1142 1354 1115 c 2,9,-1
 1339 1042 l 1,10,11
 1188 1037 1188 1037 1099 990.5 c 128,-1,12
 1010 944 1010 944 1010 872 c 0,13,14
 1010 817 1010 817 1112 745 c 0,15,16
 1121 739 1121 739 1127 735 c 2,17,-1
 1188 692 l 2,18,19
 1272 633 1272 633 1311 563.5 c 128,-1,20
 1350 494 1350 494 1350 403 c 0,21,22
 1350 210 1350 210 1211 90.5 c 128,-1,23
 1072 -29 1072 -29 844 -29 c 0,24,25
 766 -29 766 -29 690.5 -16.5 c 128,-1,26
 615 -4 615 -4 541 20 c 1,27,-1
 590 264 l 1,28,29
 646 237 646 237 701.5 223 c 128,-1,30
 757 209 757 209 809 209 c 0,31,32
 891 209 891 209 941 247 c 128,-1,33
 991 285 991 285 991 346 c 0,34,35
 991 386 991 386 968 418.5 c 128,-1,36
 945 451 945 451 868 506 c 2,37,-1
 807 549 l 2,38,39
 740 596 740 596 710 646.5 c 128,-1,40
 680 697 680 697 680 760 c 0,41,42
 680 898 680 898 771.5 997 c 128,-1,43
 863 1096 863 1096 1036 1145 c 1,44,45
 1037 1151 1037 1151 1037.5 1159 c 128,-1,46
 1038 1167 1038 1167 1038 1182 c 0,47,48
 1038 1249 1038 1249 997 1284 c 128,-1,49
 956 1319 956 1319 877 1319 c 0,50,51
 775 1319 775 1319 716.5 1265.5 c 128,-1,52
 658 1212 658 1212 637 1100 c 2,53,-1
 422 0 l 1,54,-1
 63 0 l 1,55,-1
 279 1114 l 2,0,1
EndSplineSet
Colour: aaaa88
EndChar
StartChar: registered
Encoding: 174 174 138
Width: 2048
Flags: W
Fore
1024 1331 m 256,0,1
 903 1331 903 1331 799 1287.5 c 128,-1,2
 695 1244 695 1244 608 1157 c 256,3,4
 521 1070 521 1070 477.5 966.5 c 128,-1,5
 434 863 434 863 434 741 c 0,6,7
 434 620 434 620 477.5 516.5 c 128,-1,8
 521 413 521 413 608 326 c 0,9,10
 694 240 694 240 798.5 197 c 128,-1,11
 903 154 903 154 1024 154 c 0,12,13
 1147 154 1147 154 1250 196.5 c 128,-1,14
 1353 239 1353 239 1440 326 c 256,15,16
 1527 413 1527 413 1570.5 516.5 c 128,-1,17
 1614 620 1614 620 1614 741 c 0,18,19
 1614 863 1614 863 1570.5 966.5 c 128,-1,20
 1527 1070 1527 1070 1440 1157 c 0,21,22
 1352 1245 1352 1245 1248.5 1288 c 128,-1,23
 1145 1331 1145 1331 1024 1331 c 256,0,1
967 1036 m 2,24,-1
 932 1036 l 1,25,-1
 932 829 l 1,26,-1
 967 829 l 2,27,28
 1045 829 1045 829 1084.5 855.5 c 128,-1,29
 1124 882 1124 882 1124 934 c 256,30,31
 1124 986 1124 986 1085.5 1011 c 128,-1,32
 1047 1036 1047 1036 967 1036 c 2,24,-1
1004 1174 m 2,33,34
 1180 1174 1180 1174 1267 1114.5 c 128,-1,35
 1354 1055 1354 1055 1354 934 c 0,36,37
 1354 848 1354 848 1301.5 792 c 128,-1,38
 1249 736 1249 736 1153 719 c 1,39,40
 1194 697 1194 697 1229.5 657 c 128,-1,41
 1265 617 1265 617 1294 559 c 2,42,-1
 1405 338 l 1,43,-1
 1176 338 l 1,44,-1
 1069 551 l 2,45,46
 1031 629 1031 629 1002 661.5 c 128,-1,47
 973 694 973 694 944 694 c 2,48,-1
 932 694 l 1,49,-1
 932 338 l 1,50,-1
 719 338 l 1,51,-1
 719 1174 l 1,52,-1
 1004 1174 l 2,33,34
1024 1485 m 256,53,54
 1176 1485 1176 1485 1307.5 1430 c 128,-1,55
 1439 1375 1439 1375 1548 1266 c 256,56,57
 1657 1157 1657 1157 1711 1026 c 128,-1,58
 1765 895 1765 895 1765 741 c 0,59,60
 1765 589 1765 589 1711 458.5 c 128,-1,61
 1657 328 1657 328 1548 219 c 256,62,63
 1439 110 1439 110 1307.5 55 c 128,-1,64
 1176 0 1176 0 1024 0 c 256,65,66
 872 0 872 0 740.5 55 c 128,-1,67
 609 110 609 110 500 219 c 256,68,69
 391 328 391 328 337 458.5 c 128,-1,70
 283 589 283 589 283 741 c 0,71,72
 283 895 283 895 337 1026 c 128,-1,73
 391 1157 391 1157 500 1266 c 256,74,75
 609 1375 609 1375 740.5 1430 c 128,-1,76
 872 1485 872 1485 1024 1485 c 256,53,54
EndSplineSet
Colour: aaaa88
EndChar
StartChar: copyright
Encoding: 169 169 139
Width: 2048
Flags: W
Fore
1323 1126 m 1,0,-1
 1323 911 l 1,1,2
 1266 948 1266 948 1210.5 965.5 c 128,-1,3
 1155 983 1155 983 1098 983 c 0,4,5
 985 983 985 983 921.5 919 c 128,-1,6
 858 855 858 855 858 741 c 0,7,8
 858 626 858 626 921 563 c 128,-1,9
 984 500 984 500 1098 500 c 0,10,11
 1162 500 1162 500 1219.5 518 c 128,-1,12
 1277 536 1277 536 1323 571 c 1,13,-1
 1323 358 l 1,14,15
 1258 336 1258 336 1192.5 324.5 c 128,-1,16
 1127 313 1127 313 1065 313 c 0,17,18
 854 313 854 313 727 430 c 128,-1,19
 600 547 600 547 600 741 c 0,20,21
 600 936 600 936 727 1052.5 c 128,-1,22
 854 1169 854 1169 1065 1169 c 0,23,24
 1134 1169 1134 1169 1198 1158.5 c 128,-1,25
 1262 1148 1262 1148 1323 1126 c 1,0,-1
1024 1331 m 256,26,27
 903 1331 903 1331 799 1287.5 c 128,-1,28
 695 1244 695 1244 608 1157 c 256,29,30
 521 1070 521 1070 477.5 966.5 c 128,-1,31
 434 863 434 863 434 741 c 0,32,33
 434 620 434 620 477.5 516.5 c 128,-1,34
 521 413 521 413 608 326 c 0,35,36
 694 240 694 240 798.5 197 c 128,-1,37
 903 154 903 154 1024 154 c 0,38,39
 1147 154 1147 154 1250 196.5 c 128,-1,40
 1353 239 1353 239 1440 326 c 256,41,42
 1527 413 1527 413 1570.5 516.5 c 128,-1,43
 1614 620 1614 620 1614 741 c 0,44,45
 1614 863 1614 863 1570.5 966.5 c 128,-1,46
 1527 1070 1527 1070 1440 1157 c 0,47,48
 1352 1245 1352 1245 1248.5 1288 c 128,-1,49
 1145 1331 1145 1331 1024 1331 c 256,26,27
1024 1485 m 256,50,51
 1176 1485 1176 1485 1307.5 1430 c 128,-1,52
 1439 1375 1439 1375 1548 1266 c 256,53,54
 1657 1157 1657 1157 1711 1026 c 128,-1,55
 1765 895 1765 895 1765 741 c 0,56,57
 1765 589 1765 589 1711 458.5 c 128,-1,58
 1657 328 1657 328 1548 219 c 256,59,60
 1439 110 1439 110 1307.5 55 c 128,-1,61
 1176 0 1176 0 1024 0 c 256,62,63
 872 0 872 0 740.5 55 c 128,-1,64
 609 110 609 110 500 219 c 256,65,66
 391 328 391 328 337 458.5 c 128,-1,67
 283 589 283 589 283 741 c 0,68,69
 283 895 283 895 337 1026 c 128,-1,70
 391 1157 391 1157 500 1266 c 256,71,72
 609 1375 609 1375 740.5 1430 c 128,-1,73
 872 1485 872 1485 1024 1485 c 256,50,51
EndSplineSet
Colour: aaaa88
EndChar
StartChar: trademark
Encoding: 8482 8482 140
Width: 2048
Flags: W
Fore
1153 1493 m 1,0,-1
 1272 1266 l 1,1,-1
 1391 1493 l 1,2,-1
 1618 1493 l 1,3,-1
 1618 915 l 1,4,-1
 1448 915 l 1,5,-1
 1448 1352 l 1,6,-1
 1311 1096 l 1,7,-1
 1235 1096 l 1,8,-1
 1098 1352 l 1,9,-1
 1098 915 l 1,10,-1
 926 915 l 1,11,-1
 926 1493 l 1,12,-1
 1153 1493 l 1,0,-1
813 1493 m 1,13,-1
 813 1350 l 1,14,-1
 639 1350 l 1,15,-1
 639 915 l 1,16,-1
 467 915 l 1,17,-1
 467 1350 l 1,18,-1
 295 1350 l 1,19,-1
 295 1493 l 1,20,-1
 813 1493 l 1,13,-1
EndSplineSet
Colour: aaaa88
EndChar
StartChar: acute
Encoding: 180 180 141
Width: 1024
Flags: W
Fore
811 1638 m 1,0,-1
 1104 1638 l 1,1,-1
 666 1262 l 1,2,-1
 465 1262 l 1,3,-1
 811 1638 l 1,0,-1
EndSplineSet
Colour: aaaa88
EndChar
StartChar: dieresis
Encoding: 168 168 142
Width: 1024
Flags: W
Fore
358 1585 m 1,0,-1
 596 1585 l 1,1,-1
 547 1339 l 1,2,-1
 311 1339 l 1,3,-1
 358 1585 l 1,0,-1
756 1585 m 1,4,-1
 991 1585 l 1,5,-1
 942 1339 l 1,6,-1
 707 1339 l 1,7,-1
 756 1585 l 1,4,-1
EndSplineSet
Colour: aaaa88
EndChar
StartChar: notequal
Encoding: 8800 8800 143
Width: 1716
Flags: W
Fore
217 987 m 1,0,-1
 1008 987 l 1,1,-1
 1260 1292 l 1,2,-1
 1409 1167 l 1,3,-1
 1264 987 l 1,4,-1
 1499 987 l 1,5,-1
 1499 752 l 1,6,-1
 1081 752 l 1,7,-1
 907 532 l 1,8,-1
 1499 532 l 1,9,-1
 1499 295 l 1,10,-1
 709 295 l 1,11,-1
 457 -10 l 1,12,-1
 307 117 l 1,13,-1
 453 295 l 1,14,-1
 217 295 l 1,15,-1
 217 532 l 1,16,-1
 641 532 l 1,17,-1
 817 752 l 1,18,-1
 217 752 l 1,19,-1
 217 987 l 1,0,-1
EndSplineSet
Colour: aaaa88
EndChar
StartChar: AE
Encoding: 198 198 144
Width: 2222
Flags: W
AnchorPoint: "TopCap" 1356 1493 basechar 0
AnchorPoint: "Bottom" 1066 0 basechar 0
Fore
985 1237 m 1,0,-1
 610 627 l 1,1,-1
 987 627 l 1,2,-1
 1106 1237 l 1,3,-1
 985 1237 l 1,0,-1
774 1493 m 1,4,-1
 2195 1493 l 1,5,-1
 2138 1202 l 1,6,-1
 1485 1202 l 1,7,-1
 1432 924 l 1,8,-1
 2046 924 l 1,9,-1
 1989 633 l 1,10,-1
 1374 633 l 1,11,-1
 1309 291 l 1,12,-1
 1982 291 l 1,13,-1
 1927 0 l 1,14,-1
 866 0 l 1,15,-1
 934 350 l 1,16,-1
 442 350 l 1,17,-1
 225 0 l 1,18,-1
 -160 0 l 1,19,-1
 774 1493 l 1,4,-1
EndSplineSet
Colour: aaaa88
EndChar
StartChar: Oslash
Encoding: 216 216 145
Width: 1741
Flags: W
Fore
1196 1128 m 1,0,1
 1156 1185 1156 1185 1095 1213 c 128,-1,2
 1034 1241 1034 1241 952 1241 c 0,3,4
 750 1241 750 1241 615.5 1062.5 c 128,-1,5
 481 884 481 884 481 612 c 0,6,7
 481 590 481 590 485 538 c 0,8,9
 485 532 l 1,10,-1
 1196 1128 l 1,0,1
158 258 m 1,11,12
 116 332 116 332 95 410.5 c 128,-1,13
 74 489 74 489 74 569 c 0,14,15
 74 752 74 752 129 914 c 128,-1,16
 184 1076 184 1076 291 1206 c 0,17,18
 420 1365 420 1365 596.5 1442.5 c 128,-1,19
 773 1520 773 1520 1006 1520 c 0,20,21
 1154 1520 1154 1520 1270.5 1481 c 128,-1,22
 1387 1442 1387 1442 1475 1364 c 1,23,-1
 1733 1579 l 1,24,-1
 1835 1456 l 1,25,-1
 1577 1243 l 1,26,27
 1622 1167 1622 1167 1644.5 1086 c 128,-1,28
 1667 1005 1667 1005 1667 920 c 0,29,30
 1667 738 1667 738 1611.5 576 c 128,-1,31
 1556 414 1556 414 1450 285 c 0,32,33
 1320 127 1320 127 1142 49 c 128,-1,34
 964 -29 964 -29 733 -29 c 0,35,36
 586 -29 586 -29 468 12 c 128,-1,37
 350 53 350 53 258 135 c 1,38,-1
 6 -78 l 1,39,-1
 -96 45 l 1,40,-1
 158 258 l 1,11,12
539 371 m 1,41,42
 578 312 578 312 639 281 c 128,-1,43
 700 250 700 250 778 250 c 0,44,45
 893 250 893 250 982.5 298.5 c 128,-1,46
 1072 347 1072 347 1135 442 c 0,47,48
 1195 534 1195 534 1228.5 648.5 c 128,-1,49
 1262 763 1262 763 1262 879 c 0,50,51
 1262 904 1262 904 1255 957 c 0,52,53
 1254 965 1254 965 1253 969 c 1,54,-1
 539 371 l 1,41,42
EndSplineSet
Colour: aaaa88
EndChar
StartChar: infinity
Encoding: 8734 8734 146
Width: 2056
Flags: W
Fore
1027 850 m 1,0,0
 1129 1031 1129 1031 1210 1103 c 0,53,54
 1317 1198 1317 1198 1480 1198 c 24,51,52
 1677 1198 1677 1198 1806 1051 c 0,37,38
 1941 895 1941 895 1941 641 c 24,35,36
 1941 395 1941 395 1806 230 c 0,34,35
 1684 83 1684 83 1480 83 c 0,32,33
 1374 83 1374 83 1296 125 c 128,-1,31
 1218 167 1218 167 1143 256 c 9,29,30
 1062 368 1062 368 1029 434 c 1,0,0
 927 253 927 253 846 181 c 0,53,54
 739 86 739 86 576 86 c 24,51,52
 379 86 379 86 250 233 c 0,37,38
 115 389 115 389 115 643 c 24,35,36
 115 889 115 889 250 1054 c 0,34,35
 372 1201 372 1201 576 1201 c 0,32,33
 682 1201 682 1201 760 1159 c 128,-1,31
 838 1117 838 1117 913 1028 c 9,29,30
 994 916 994 916 1027 850 c 1,0,0
567 352 m 24,45,46
 756 352 756 352 904 618 c 1,0,0
 718 936 718 936 567 936 c 0,45,46
 444 936 444 936 382 853 c 0,44,45
 315 762 315 762 315 643 c 24,42,43
 315 515 315 515 382.5 433.5 c 128,-1,44
 450 352 450 352 567 352 c 24,45,46
1489 932 m 24,45,46
 1300 932 1300 932 1152 666 c 1,0,0
 1338 348 1338 348 1489 348 c 0,45,46
 1612 348 1612 348 1674 431 c 0,44,45
 1741 522 1741 522 1741 641 c 24,42,43
 1741 769 1741 769 1673.5 850.5 c 128,-1,44
 1606 932 1606 932 1489 932 c 24,45,46
EndSplineSet
Colour: aaaa88
EndChar
StartChar: plusminus
Encoding: 177 177 147
Width: 1716
Flags: W
Fore
977 1284 m 1,0,-1
 977 930 l 1,1,-1
 1499 930 l 1,2,-1
 1499 694 l 1,3,-1
 977 694 l 1,4,-1
 977 340 l 1,5,-1
 739 340 l 1,6,-1
 739 694 l 1,7,-1
 217 694 l 1,8,-1
 217 930 l 1,9,-1
 739 930 l 1,10,-1
 739 1284 l 1,11,-1
 977 1284 l 1,0,-1
217 238 m 1,12,-1
 1499 238 l 1,13,-1
 1499 0 l 1,14,-1
 217 0 l 1,15,-1
 217 238 l 1,12,-1
EndSplineSet
Colour: aaaa88
EndChar
StartChar: lessequal
Encoding: 8804 8804 148
Width: 1716
Flags: W
Fore
1499 238 m 1,0,-1
 1499 0 l 1,1,-1
 217 0 l 1,2,-1
 217 238 l 1,3,-1
 1499 238 l 1,0,-1
1499 948 m 1,4,-1
 602 739 l 1,5,-1
 1499 530 l 1,6,-1
 1499 287 l 1,7,-1
 217 623 l 1,8,-1
 217 858 l 1,9,-1
 1499 1192 l 1,10,-1
 1499 948 l 1,4,-1
EndSplineSet
Colour: aaaa88
EndChar
StartChar: greaterequal
Encoding: 8805 8805 149
Width: 1716
Flags: W
Fore
217 238 m 1,0,-1
 1499 238 l 1,1,-1
 1499 0 l 1,2,-1
 217 0 l 1,3,-1
 217 238 l 1,0,-1
217 948 m 1,4,-1
 217 1192 l 1,5,-1
 1499 858 l 1,6,-1
 1499 623 l 1,7,-1
 217 287 l 1,8,-1
 217 530 l 1,9,-1
 1114 739 l 1,10,-1
 217 948 l 1,4,-1
EndSplineSet
Colour: aaaa88
EndChar
StartChar: yen
Encoding: 165 165 150
Width: 1425
Flags: W
Fore
1294 416 m 1,0,-1
 840 416 l 1,1,-1
 758 0 l 1,2,-1
 377 0 l 1,3,-1
 459 416 l 1,4,-1
 12 416 l 1,5,-1
 51 610 l 1,6,-1
 496 610 l 1,7,-1
 510 686 l 1,8,-1
 481 762 l 1,9,-1
 80 762 l 1,10,-1
 117 954 l 1,11,-1
 408 954 l 1,12,-1
 193 1493 l 1,13,-1
 561 1493 l 1,14,-1
 756 993 l 1,15,-1
 1141 1493 l 1,16,-1
 1546 1493 l 1,17,-1
 1106 954 l 1,18,-1
 1399 954 l 1,19,-1
 1362 762 l 1,20,-1
 954 762 l 1,21,-1
 895 686 l 1,22,-1
 877 610 l 1,23,-1
 1331 610 l 1,24,-1
 1294 416 l 1,0,-1
EndSplineSet
Colour: aaaa88
EndChar
StartChar: mu
Encoding: 181 181 151
Width: 1507
Flags: W
Fore
-55 -428 m 1,0,-1
 246 1120 l 1,1,-1
 606 1120 l 1,2,-1
 479 469 l 2,3,4
 475 448 475 448 473 428 c 128,-1,5
 471 408 471 408 471 391 c 0,6,7
 471 318 471 318 514 279 c 128,-1,8
 557 240 557 240 639 240 c 0,9,10
 741 240 741 240 801 296 c 128,-1,11
 861 352 861 352 885 469 c 2,12,-1
 1012 1120 l 1,13,-1
 1372 1120 l 1,14,-1
 1227 371 l 2,15,16
 1223 350 1223 350 1221 332.5 c 128,-1,17
 1219 315 1219 315 1219 301 c 0,18,19
 1219 272 1219 272 1232.5 258 c 128,-1,20
 1246 244 1246 244 1274 244 c 0,21,22
 1291 244 1291 244 1310.5 249.5 c 128,-1,23
 1330 255 1330 255 1350 266 c 1,24,-1
 1300 16 l 1,25,26
 1243 -7 1243 -7 1194 -18 c 128,-1,27
 1145 -29 1145 -29 1100 -29 c 0,28,29
 1012 -29 1012 -29 962.5 9 c 128,-1,30
 913 47 913 47 893 129 c 1,31,32
 831 50 831 50 755.5 10.5 c 128,-1,33
 680 -29 680 -29 592 -29 c 0,34,35
 518 -29 518 -29 471.5 -5.5 c 128,-1,36
 425 18 425 18 403 66 c 1,37,-1
 307 -428 l 1,38,-1
 -55 -428 l 1,0,-1
EndSplineSet
Colour: aaaa88
EndChar
StartChar: partialdiff
Encoding: 8706 8706 152
Width: 1114
Flags: W
HStem: -29 196<370 536.5> 637 240<382 587> 1178 203<470 705.628>
VStem: 57 247<264 458.19> 806 246<765 912.5>
Fore
302 1125 m 1,0,-1
 302 1345 l 9,1,2
 448 1381 448 1381 554 1381 c 0,3,4
 857 1381 857 1381 992 1120 c 0,5,6
 1052 1004 1052 1004 1052 821 c 0,7,8
 1052 708 1052 708 1024 577 c 0,9,10
 954 250 954 250 765 93 c 0,11,12
 618 -29 618 -29 455 -29 c 0,13,14
 285 -29 285 -29 181 62 c 0,15,16
 57 172 57 172 57 356 c 0,17,18
 57 560 57 560 168 720 c 0,19,20
 276 877 276 877 488 877 c 0,21,22
 598 877 598 877 702 808 c 0,23,24
 741 782 741 782 797 700 c 1,25,26
 806 765 806 765 806 838 c 0,27,28
 806 949 806 949 774 1007 c 0,29,30
 679 1178 679 1178 512 1178 c 0,31,32
 429 1178 429 1178 302 1125 c 1,0,-1
304 331 m 0,33,34
 304 258 304 258 344 213 c 0,35,36
 385 167 385 167 456 167 c 0,37,38
 514 167 514 167 565 203 c 0,39,40
 628 247 628 247 677 328 c 0,41,42
 715 391 715 391 737 464 c 1,43,44
 656 637 656 637 518 637 c 0,45,46
 388 637 388 637 337 497 c 0,47,48
 304 408 304 408 304 331 c 0,33,34
EndSplineSet
Colour: aaaa88
EndChar
StartChar: summation
Encoding: 8721 8721 153
Width: 1470
Flags: W
Fore
66 1473 m 1,0,-1
 1374 1473 l 1,1,-1
 1374 1208 l 1,2,-1
 496 1208 l 1,3,-1
 1116 563 l 1,4,-1
 494 -127 l 1,5,-1
 1427 -127 l 1,6,-1
 1427 -393 l 1,7,-1
 41 -393 l 1,8,-1
 41 -221 l 1,9,-1
 739 551 l 1,10,-1
 66 1241 l 1,11,-1
 66 1473 l 1,0,-1
EndSplineSet
Colour: aaaa88
EndChar
StartChar: product
Encoding: 8719 8719 154
Width: 1612
Flags: W
Fore
150 1473 m 1,0,-1
 1458 1473 l 1,1,-1
 1458 -393 l 1,2,-1
 1114 -393 l 1,3,-1
 1114 1184 l 1,4,-1
 494 1184 l 1,5,-1
 494 -393 l 1,6,-1
 150 -393 l 1,7,-1
 150 1473 l 1,0,-1
EndSplineSet
Colour: aaaa88
EndChar
StartChar: pi
Encoding: 960 960 155
Width: 1617
Flags: W
HStem: -29 21G<1165.5 1237.5> 0 21G<322 680> 1100 20G<545 1671>
AnchorPoint: "Ogonek" 780 0 basechar 0
AnchorPoint: "Top" 998 1120 basechar 0
AnchorPoint: "Bottom" 780 0 basechar 0
Fore
984 246 m 24,0,1
 986 341 986 341 1011 469 c 2,2,-1
 1095 899 l 1,3,-1
 855 899 l 1,4,-1
 680 0 l 1,5,-1
 322 0 l 1,6,-1
 497 899 l 1,7,-1
 444 899 l 2,8,9
 390 899 390 899 358 865 c 0,10,11
 332 836 332 836 318 766 c 1,12,-1
 105 766 l 1,13,14
 143 964 143 964 233 1042 c 0,15,16
 322 1120 322 1120 545 1120 c 2,17,-1
 1671 1120 l 1,18,-1
 1628 899 l 1,19,-1
 1454 899 l 1,20,-1
 1351 371 l 2,21,22
 1344 332 1344 332 1344 306 c 0,23,24
 1344 285 1344 285 1349 272 c 0,25,26
 1360 244 1360 244 1399 244 c 0,27,28
 1417 244 1417 244 1434 249 c 128,-1,29
 1451 254 1451 254 1473 266 c 1,30,-1
 1424 16 l 1,31,32
 1371 -7 1371 -7 1315 -18 c 128,-1,33
 1259 -29 1259 -29 1216 -29 c 0,34,35
 1115 -29 1115 -29 1075 9 c 0,36,37
 1034 45 1034 45 1002 129 c 8,38,39
 982 182 982 182 984 246 c 24,0,1
EndSplineSet
Colour: aaaa88
EndChar
StartChar: integral
Encoding: 8747 8747 156
Width: 1247
Flags: W
Fore
734 2 m 18,0,1
 734 -138 734 -138 697 -208 c 0,2,3
 650 -297 650 -297 599 -339 c 0,4,5
 493 -426 493 -426 370 -426 c 0,6,7
 221 -426 221 -426 142 -339 c 9,8,-1
 233 -211 l 17,9,10
 280 -264 280 -264 348 -264 c 128,-1,11
 416 -264 416 -264 464 -211 c 128,-1,13
 512 -158 512 -158 512 -81 c 2,14,-1
 512 1168 l 18,15,16
 512 1304 512 1304 550 1378 c 0,17,18
 596 1467 596 1467 648 1509 c 0,19,20
 754 1596 754 1596 877 1596 c 0,21,22
 1026 1596 1026 1596 1105 1509 c 9,23,-1
 1014 1381 l 17,24,25
 967 1434 967 1434 898.5 1434 c 128,-1,26
 830 1434 830 1434 782 1381 c 0,27,28
 734 1328 734 1328 734 1251 c 10,29,-1
 734 2 l 18,0,1
EndSplineSet
Colour: aaaa88
EndChar
StartChar: ordfeminine
Encoding: 170 170 157
Width: 1155
Flags: W
Fore
127 573 m 1,0,-1
 942 573 l 1,1,-1
 903 373 l 1,2,-1
 88 373 l 1,3,-1
 127 573 l 1,0,-1
692 1081 m 2,4,5
 544 1081 544 1081 488 1052.5 c 128,-1,6
 432 1024 432 1024 432 954 c 0,7,8
 432 910 432 910 463 884 c 128,-1,9
 494 858 494 858 547 858 c 0,10,11
 631 858 631 858 696 914.5 c 128,-1,12
 761 971 761 971 778 1059 c 2,13,-1
 782 1081 l 1,14,-1
 692 1081 l 2,4,5
1069 1165 m 2,15,-1
 983 717 l 1,16,-1
 735 717 l 1,17,-1
 760 842 l 1,18,19
 694 766 694 766 618.5 731 c 128,-1,20
 543 696 543 696 442 696 c 0,21,22
 317 696 317 696 247.5 751.5 c 128,-1,23
 178 807 178 807 178 907 c 0,24,25
 178 1062 178 1062 301.5 1140.5 c 128,-1,26
 425 1219 425 1219 668 1219 c 2,27,-1
 809 1219 l 1,28,-1
 813 1239 l 2,29,30
 814 1243 814 1243 814.5 1248 c 128,-1,31
 815 1253 815 1253 815 1264 c 0,32,33
 815 1308 815 1308 776.5 1331 c 128,-1,34
 738 1354 738 1354 662 1354 c 0,35,36
 574 1354 574 1354 487 1336.5 c 128,-1,37
 400 1319 400 1319 315 1284 c 1,38,-1
 350 1464 l 1,39,40
 448 1492 448 1492 535.5 1506 c 128,-1,41
 623 1520 623 1520 698 1520 c 0,42,43
 884 1520 884 1520 981.5 1456 c 128,-1,44
 1079 1392 1079 1392 1079 1270 c 0,45,46
 1079 1239 1079 1239 1076.5 1213.5 c 128,-1,47
 1074 1188 1074 1188 1069 1165 c 2,15,-1
EndSplineSet
Colour: aaaa88
EndChar
StartChar: ordmasculine
Encoding: 186 186 158
Width: 1155
Flags: W
Fore
719 1520 m 0,0,1
 902 1520 902 1520 1009 1429.5 c 128,-1,2
 1116 1339 1116 1339 1116 1186 c 0,3,4
 1116 967 1116 967 968.5 832.5 c 128,-1,5
 821 698 821 698 578 698 c 0,6,7
 396 698 396 698 287 789.5 c 128,-1,8
 178 881 178 881 178 1032 c 0,9,10
 178 1249 178 1249 327 1384.5 c 128,-1,11
 476 1520 476 1520 719 1520 c 0,0,1
133 573 m 1,12,-1
 956 573 l 1,13,-1
 918 373 l 1,14,-1
 94 373 l 1,15,-1
 133 573 l 1,12,-1
694 1350 m 0,16,17
 595 1350 595 1350 530 1257.5 c 128,-1,18
 465 1165 465 1165 465 1024 c 0,19,20
 465 948 465 948 500 908 c 128,-1,21
 535 868 535 868 602 868 c 0,22,23
 701 868 701 868 766 960 c 128,-1,24
 831 1052 831 1052 831 1194 c 0,25,26
 831 1269 831 1269 795.5 1309.5 c 128,-1,27
 760 1350 760 1350 694 1350 c 0,16,17
EndSplineSet
Colour: aaaa88
EndChar
StartChar: Omega
Encoding: 937 937 159
Width: 1583
Flags: W
HStem: 0 291<-32 521 1175 1375> 1227 282<882 937>
VStem: 98 364<639 689> 1138 371<939 987>
AnchorPoint: "Bottom" 643 0 basechar 0
AnchorPoint: "TopCap" 933 1493 basechar 0
AnchorPoint: "Ogonek" 643 0 basechar 0
Fore
1175 291 m 1,0,-1
 1432 291 l 1,1,-1
 1375 0 l 1,2,-1
 766 0 l 1,3,-1
 829 320 l 1,4,5
 944 412 944 412 1012 516 c 0,6,7
 1093 644 1093 644 1124 804 c 0,8,9
 1138 877 1138 877 1138 939 c 0,10,11
 1138 1043 1138 1043 1098 1114 c 0,12,13
 1033 1227 1033 1227 882 1227 c 0,14,15
 732 1227 732 1227 623 1114 c 0,16,17
 515 1001 515 1001 477 804 c 0,18,19
 462 725 462 725 462 653 c 128,-1,20
 462 581 462 581 477 516 c 0,21,22
 507 388 507 388 584 320 c 1,23,-1
 521 0 l 1,24,-1
 -88 0 l 1,25,-1
 -31 291 l 1,26,-1
 225 291 l 1,27,28
 152 382 152 382 117 516 c 0,29,30
 98 583 98 583 98 662 c 0,31,32
 98 735 98 735 115 819 c 0,33,34
 175 1132 175 1132 400 1320 c 0,35,36
 625 1509 625 1509 937 1509 c 0,37,38
 1250 1509 1250 1509 1401 1320 c 0,39,40
 1509 1185 1509 1185 1509 987 c 0,41,42
 1509 908 1509 908 1492 819 c 0,43,44
 1458 649 1458 649 1372 516 c 0,45,46
 1281 378 1281 378 1175 291 c 1,0,-1
EndSplineSet
Colour: aaaa88
EndChar
StartChar: ae
Encoding: 230 230 160
Width: 2146
Flags: W
AnchorPoint: "Top" 1130 1120 basechar 0
AnchorPoint: "Bottom" 913 0 basechar 0
Fore
674 504 m 2,0,1
 540 504 540 504 471.5 462.5 c 128,-1,2
 403 421 403 421 403 340 c 0,3,4
 403 279 403 279 443.5 244 c 128,-1,5
 484 209 484 209 555 209 c 0,6,7
 665 209 665 209 739 275.5 c 128,-1,8
 813 342 813 342 838 463 c 1,9,-1
 846 504 l 1,10,-1
 674 504 l 2,0,1
291 1090 m 1,11,12
 408 1118 408 1118 519.5 1132.5 c 128,-1,13
 631 1147 631 1147 735 1147 c 0,14,15
 884 1147 884 1147 982 1110.5 c 128,-1,16
 1080 1074 1080 1074 1137 997 c 1,17,18
 1232 1074 1232 1074 1338.5 1110.5 c 128,-1,19
 1445 1147 1445 1147 1575 1147 c 0,20,21
 1798 1147 1798 1147 1931 1025 c 128,-1,22
 2064 903 2064 903 2064 702 c 0,23,24
 2064 657 2064 657 2059 611 c 128,-1,25
 2054 565 2054 565 2044 518 c 1,26,-1
 2030 461 l 1,27,-1
 1194 461 l 1,28,29
 1194 455 1194 455 1193 443.5 c 128,-1,30
 1192 432 1192 432 1192 426 c 0,31,32
 1192 317 1192 317 1257.5 263 c 128,-1,33
 1323 209 1323 209 1454 209 c 0,34,35
 1566 209 1566 209 1690.5 242.5 c 128,-1,36
 1815 276 1815 276 1954 344 c 1,37,-1
 1901 66 l 1,38,39
 1770 18 1770 18 1639.5 -5.5 c 128,-1,40
 1509 -29 1509 -29 1374 -29 c 0,41,42
 1201 -29 1201 -29 1083 22.5 c 128,-1,43
 965 74 965 74 899 178 c 1,44,45
 782 73 782 73 658.5 22 c 128,-1,46
 535 -29 535 -29 397 -29 c 0,47,48
 227 -29 227 -29 131 52 c 128,-1,49
 35 133 35 133 35 274 c 0,50,51
 35 490 35 490 200.5 603.5 c 128,-1,52
 366 717 366 717 682 717 c 2,53,-1
 887 717 l 1,54,-1
 893 746 l 1,55,56
 896 759 896 759 896.5 765 c 128,-1,57
 897 771 897 771 897 776 c 0,58,59
 897 842 897 842 835 875.5 c 128,-1,60
 773 909 773 909 653 909 c 0,61,62
 539 909 539 909 435.5 886 c 128,-1,63
 332 863 332 863 238 817 c 1,64,-1
 291 1090 l 1,11,12
1706 682 m 1,65,66
 1709 695 1709 695 1710.5 708.5 c 128,-1,67
 1712 722 1712 722 1712 735 c 0,68,69
 1712 815 1712 815 1663.5 862 c 128,-1,70
 1615 909 1615 909 1534 909 c 0,71,72
 1429 909 1429 909 1354.5 851 c 128,-1,73
 1280 793 1280 793 1243 682 c 1,74,-1
 1706 682 l 1,65,66
EndSplineSet
Colour: aaaa88
EndChar
StartChar: oslash
Encoding: 248 248 161
Width: 1407
Flags: W
Fore
905 842 m 1,0,1
 882 866 882 866 847.5 878.5 c 128,-1,2
 813 891 813 891 768 891 c 0,3,4
 628 891 628 891 543.5 771.5 c 128,-1,5
 459 652 459 652 449 438 c 1,6,-1
 905 842 l 1,0,1
152 174 m 1,7,8
 113 233 113 233 93.5 301.5 c 128,-1,9
 74 370 74 370 74 446 c 0,10,11
 74 572 74 572 119.5 691.5 c 128,-1,12
 165 811 165 811 252 911 c 0,13,14
 352 1028 352 1028 490.5 1087.5 c 128,-1,15
 629 1147 629 1147 801 1147 c 0,16,17
 905 1147 905 1147 991 1124 c 128,-1,18
 1077 1101 1077 1101 1145 1055 c 1,19,-1
 1337 1223 l 1,20,-1
 1434 1112 l 1,21,-1
 1251 950 l 1,22,23
 1292 891 1292 891 1312.5 822 c 128,-1,24
 1333 753 1333 753 1333 674 c 0,25,26
 1333 547 1333 547 1288 427.5 c 128,-1,27
 1243 308 1243 308 1157 209 c 0,28,29
 1056 93 1056 93 915.5 32 c 128,-1,30
 775 -29 775 -29 606 -29 c 0,31,32
 497 -29 497 -29 409.5 -4.5 c 128,-1,33
 322 20 322 20 254 70 c 1,34,-1
 61 -102 l 1,35,-1
 -35 10 l 1,36,-1
 152 174 l 1,7,8
498 283 m 1,37,38
 523 255 523 255 557.5 241 c 128,-1,39
 592 227 592 227 639 227 c 0,40,41
 780 227 780 227 865.5 351 c 128,-1,42
 951 475 951 475 958 692 c 1,43,-1
 498 283 l 1,37,38
EndSplineSet
Colour: aaaa88
EndChar
StartChar: questiondown
Encoding: 191 191 162
Width: 1188
Flags: W
Fore
541 989 m 1,0,-1
 901 989 l 1,1,-1
 891 938 l 2,2,3
 876 858 876 858 833 796.5 c 128,-1,4
 790 735 790 735 659 633 c 2,5,-1
 584 573 l 2,6,7
 504 512 504 512 469 460 c 128,-1,8
 434 408 434 408 434 354 c 0,9,10
 434 297 434 297 474 266.5 c 128,-1,11
 514 236 514 236 590 236 c 0,12,13
 670 236 670 236 771.5 270 c 128,-1,14
 873 304 873 304 987 369 c 1,15,-1
 926 55 l 1,16,17
 799 13 799 13 693.5 -7 c 128,-1,18
 588 -27 588 -27 492 -27 c 0,19,20
 297 -27 297 -27 186.5 58.5 c 128,-1,21
 76 144 76 144 76 293 c 0,22,23
 76 412 76 412 129 506 c 128,-1,24
 182 600 182 600 309 702 c 2,25,-1
 385 762 l 2,26,27
 468 827 468 827 496 864.5 c 128,-1,28
 524 902 524 902 532 944 c 2,29,-1
 541 989 l 1,0,-1
930 1137 m 1,30,-1
 569 1137 l 1,31,-1
 639 1493 l 1,32,-1
 999 1493 l 1,33,-1
 930 1137 l 1,30,-1
EndSplineSet
Colour: aaaa88
EndChar
StartChar: exclamdown
Encoding: 161 161 163
Width: 934
Flags: W
Fore
723 1137 m 1,0,-1
 362 1137 l 1,1,-1
 432 1493 l 1,2,-1
 793 1493 l 1,3,-1
 723 1137 l 1,0,-1
502 0 m 1,4,-1
 141 0 l 1,5,-1
 254 573 l 1,6,-1
 385 991 l 1,7,-1
 643 991 l 1,8,-1
 614 573 l 1,9,-1
 502 0 l 1,4,-1
EndSplineSet
Colour: aaaa88
EndChar
StartChar: logicalnot
Encoding: 172 172 164
Width: 1716
Flags: W
Fore
217 909 m 1,0,-1
 1499 909 l 1,1,-1
 1499 287 l 1,2,-1
 1264 287 l 1,3,-1
 1264 672 l 1,4,-1
 217 672 l 1,5,-1
 217 909 l 1,0,-1
EndSplineSet
Colour: aaaa88
EndChar
StartChar: radical
Encoding: 8730 8730 165
Width: 1366
Flags: W
Fore
1155 1714 m 1,0,-1
 1370 1714 l 1,1,-1
 1370 1565 l 1,2,-1
 1274 1565 l 1,3,-1
 684 -41 l 1,4,-1
 565 -41 l 1,5,-1
 258 805 l 1,6,-1
 113 750 l 1,7,-1
 76 879 l 1,8,-1
 436 1006 l 1,9,-1
 659 371 l 1,10,-1
 1155 1714 l 1,0,-1
EndSplineSet
Colour: aaaa88
EndChar
StartChar: florin
Encoding: 402 402 166
Width: 891
Flags: W
HStem: -426 173<-121 65.5> 864 256<143 321 629 935> 1321 235<717 1052>
AnchorPoint: "Top" 661 1493 basechar 0
AnchorPoint: "Bottom" 286 0 basechar 0
Fore
459 -9 m 6,0,1
 419 -218 419 -218 287 -321 c 4,2,3
 152 -426 152 -426 -21 -426 c 28,4,5
 -221 -426 -221 -426 -283 -339 c 13,6,-1
 -167 -211 l 21,7,8
 -131 -253 -131 -253 -77 -253 c 4,9,10
 -19 -253 -19 -253 24 -216 c 4,11,12
 68 -178 68 -178 79 -123 c 6,13,-1
 271 864 l 5,14,-1
 93 864 l 1,15,-1
 143 1120 l 1,16,-1
 321 1120 l 1,17,-1
 336 1198 l 2,18,19
 372 1381 372 1381 490 1468 c 0,20,21
 610 1556 610 1556 824 1556 c 2,22,-1
 1098 1556 l 1,23,-1
 1052 1321 l 1,24,-1
 854 1321 l 2,25,26
 778 1321 778 1321 743 1294 c 0,27,28
 707 1266 707 1266 694 1198 c 2,29,-1
 679 1120 l 1,30,-1
 985 1120 l 1,31,-1
 935 864 l 1,32,-1
 629 864 l 5,33,-1
 459 -9 l 6,0,1
EndSplineSet
Colour: aaaa88
EndChar
StartChar: approxequal
Encoding: 8776 8776 167
Width: 1716
Flags: W
Fore
1499 1059 m 1,0,-1
 1499 815 l 1,1,2
 1393 735 1393 735 1303.5 700.5 c 128,-1,3
 1214 666 1214 666 1118 666 c 0,4,5
 1011 666 1011 666 868 724 c 0,6,7
 854 730 854 730 846 733 c 0,8,9
 839 736 839 736 824 742 c 0,10,11
 669 803 669 803 575 803 c 0,12,13
 487 803 487 803 401 764.5 c 128,-1,14
 315 726 315 726 217 643 c 1,15,-1
 217 887 l 1,16,17
 322 965 322 965 411.5 999.5 c 128,-1,18
 501 1034 501 1034 598 1034 c 0,19,20
 708 1034 708 1034 855 975 c 0,21,22
 865 971 865 971 870 969 c 0,23,24
 878 966 878 966 892 960 c 0,25,26
 1047 899 1047 899 1141 899 c 0,27,28
 1227 899 1227 899 1311.5 936.5 c 128,-1,29
 1396 974 1396 974 1499 1059 c 1,0,-1
1499 641 m 1,30,-1
 1499 397 l 1,31,32
 1393 317 1393 317 1303.5 282.5 c 128,-1,33
 1214 248 1214 248 1118 248 c 0,34,35
 1011 248 1011 248 868 306 c 0,36,37
 854 312 854 312 845 316 c 0,38,39
 839 318 839 318 824 324 c 0,40,41
 669 385 669 385 575 385 c 0,42,43
 487 385 487 385 401 347 c 128,-1,44
 315 309 315 309 217 225 c 1,45,-1
 217 469 l 1,46,47
 324 549 324 549 413 583.5 c 128,-1,48
 502 618 502 618 598 618 c 0,49,50
 705 618 705 618 848 560 c 0,51,52
 863 554 863 554 870 551 c 0,53,54
 878 548 878 548 892 543 c 0,55,56
 1047 481 1047 481 1141 481 c 0,57,58
 1227 481 1227 481 1311.5 518.5 c 128,-1,59
 1396 556 1396 556 1499 641 c 1,30,-1
EndSplineSet
Colour: aaaa88
EndChar
StartChar: Delta
Encoding: 8710 8710 168
Width: 1427
Flags: W
Fore
713 1110 m 1,0,-1
 387 256 l 1,1,-1
 1040 256 l 1,2,-1
 713 1110 l 1,0,-1
563 1473 m 1,3,-1
 864 1473 l 1,4,-1
 1427 0 l 1,5,-1
 0 0 l 1,6,-1
 563 1473 l 1,3,-1
EndSplineSet
Colour: aaaa88
EndChar
StartChar: guillemotleft
Encoding: 171 171 169
Width: 1331
Flags: W
Fore
1217 1063 m 1,0,-1
 1167 811 l 1,1,-1
 821 582 l 1,2,-1
 1079 360 l 1,3,-1
 1036 137 l 1,4,-1
 614 506 l 1,5,-1
 651 692 l 1,6,-1
 1217 1063 l 1,0,-1
727 1063 m 1,7,-1
 678 811 l 1,8,-1
 332 582 l 1,9,-1
 590 360 l 1,10,-1
 547 137 l 1,11,-1
 125 506 l 1,12,-1
 162 692 l 1,13,-1
 727 1063 l 1,7,-1
EndSplineSet
Colour: aaaa88
EndChar
StartChar: guillemotright
Encoding: 187 187 170
Width: 1331
Flags: W
Fore
117 135 m 1,0,-1
 166 389 l 1,1,-1
 510 618 l 1,2,-1
 254 840 l 1,3,-1
 297 1063 l 1,4,-1
 717 692 l 1,5,-1
 682 506 l 1,6,-1
 117 135 l 1,0,-1
606 135 m 1,7,-1
 655 389 l 1,8,-1
 999 618 l 1,9,-1
 741 840 l 1,10,-1
 786 1063 l 1,11,-1
 1206 692 l 1,12,-1
 1171 506 l 1,13,-1
 606 135 l 1,7,-1
EndSplineSet
Colour: aaaa88
EndChar
StartChar: ellipsis
Encoding: 8230 8230 171
Width: 2048
Flags: W
Fore
805 387 m 1,0,-1
 1165 387 l 1,1,-1
 1090 0 l 1,2,-1
 729 0 l 1,3,-1
 805 387 l 1,0,-1
170 387 m 1,4,-1
 530 387 l 1,5,-1
 455 0 l 1,6,-1
 94 0 l 1,7,-1
 170 387 l 1,4,-1
1440 387 m 1,8,-1
 1800 387 l 1,9,-1
 1724 0 l 1,10,-1
 1364 0 l 1,11,-1
 1440 387 l 1,8,-1
EndSplineSet
Colour: aaaa88
EndChar
StartChar: OE
Encoding: 338 338 176
Width: 2390
Flags: W
Fore
1268 1202 m 1,0,-1
 1163 1202 l 2,1,2
 1023 1202 1023 1202 919 1178.5 c 128,-1,3
 815 1155 815 1155 739 1106 c 0,4,5
 626 1032 626 1032 557.5 907 c 128,-1,6
 489 782 489 782 489 647 c 0,7,8
 489 464 489 464 609.5 377.5 c 128,-1,9
 730 291 730 291 985 291 c 2,10,-1
 1092 291 l 1,11,-1
 1268 1202 l 1,0,-1
1235 1493 m 1,12,-1
 2363 1493 l 1,13,-1
 2306 1202 l 1,14,-1
 1655 1202 l 1,15,-1
 1599 924 l 1,16,-1
 2214 924 l 1,17,-1
 2157 633 l 1,18,-1
 1542 633 l 1,19,-1
 1477 291 l 1,20,-1
 2152 291 l 1,21,-1
 2095 0 l 1,22,-1
 936 0 l 1,23,-1
 881 0 l 2,24,25
 502 0 502 0 294 151 c 128,-1,26
 86 302 86 302 86 575 c 0,27,28
 86 817 86 817 204 1022.5 c 128,-1,29
 322 1228 322 1228 530 1350 c 0,30,31
 658 1423 658 1423 815.5 1458 c 128,-1,32
 973 1493 973 1493 1178 1493 c 2,33,-1
 1235 1493 l 1,12,-1
EndSplineSet
Colour: aaaa88
EndChar
StartChar: oe
Encoding: 339 339 177
Width: 2241
Flags: W
Fore
1798 682 m 1,0,1
 1801 695 1801 695 1802.5 708.5 c 128,-1,2
 1804 722 1804 722 1804 735 c 0,3,4
 1804 815 1804 815 1756 862 c 128,-1,5
 1708 909 1708 909 1626 909 c 0,6,7
 1521 909 1521 909 1445.5 850.5 c 128,-1,8
 1370 792 1370 792 1333 682 c 1,9,-1
 1798 682 l 1,0,1
2136 518 m 2,10,-1
 2124 461 l 1,11,-1
 1286 461 l 1,12,13
 1286 455 1286 455 1285 443.5 c 128,-1,14
 1284 432 1284 432 1284 426 c 0,15,16
 1284 317 1284 317 1349.5 263 c 128,-1,17
 1415 209 1415 209 1546 209 c 0,18,19
 1658 209 1658 209 1784 243 c 128,-1,20
 1910 277 1910 277 2048 344 c 1,21,-1
 1993 66 l 1,22,23
 1862 18 1862 18 1732 -5.5 c 128,-1,24
 1602 -29 1602 -29 1466 -29 c 0,25,26
 1311 -29 1311 -29 1211 10 c 128,-1,27
 1111 49 1111 49 1053 131 c 1,28,29
 963 49 963 49 856 10 c 128,-1,30
 749 -29 749 -29 612 -29 c 0,31,32
 361 -29 361 -29 217.5 97.5 c 128,-1,33
 74 224 74 224 74 444 c 0,34,35
 74 571 74 571 119.5 691.5 c 128,-1,36
 165 812 165 812 250 911 c 0,37,38
 351 1028 351 1028 491 1087.5 c 128,-1,39
 631 1147 631 1147 803 1147 c 0,40,41
 943 1147 943 1147 1044.5 1106.5 c 128,-1,42
 1146 1066 1146 1066 1210 985 c 1,43,44
 1304 1066 1304 1066 1418 1106.5 c 128,-1,45
 1532 1147 1532 1147 1669 1147 c 0,46,47
 1892 1147 1892 1147 2025.5 1025 c 128,-1,48
 2159 903 2159 903 2159 702 c 0,49,50
 2159 662 2159 662 2153 615.5 c 128,-1,51
 2147 569 2147 569 2136 518 c 2,10,-1
768 891 m 0,52,53
 629 891 629 891 539 765 c 128,-1,54
 449 639 449 639 449 444 c 0,55,56
 449 338 449 338 497.5 282.5 c 128,-1,57
 546 227 546 227 639 227 c 0,58,59
 778 227 778 227 868 353.5 c 128,-1,60
 958 480 958 480 958 676 c 0,61,62
 958 781 958 781 909.5 836 c 128,-1,63
 861 891 861 891 768 891 c 0,52,53
EndSplineSet
Colour: aaaa88
EndChar
StartChar: endash
Encoding: 8211 8211 178
Width: 1024
Flags: W
Fore
-10 690 m 1,0,-1
 1014 690 l 1,1,-1
 963 432 l 1,2,-1
 -61 432 l 1,3,-1
 -10 690 l 1,0,-1
EndSplineSet
Colour: aaaa88
EndChar
StartChar: emdash
Encoding: 8212 8212 179
Width: 2048
Flags: W
Fore
-10 690 m 1,0,-1
 2038 690 l 1,1,-1
 1987 432 l 1,2,-1
 -61 432 l 1,3,-1
 -10 690 l 1,0,-1
EndSplineSet
Colour: aaaa88
EndChar
StartChar: quotedblleft
Encoding: 8220 8220 180
Width: 1319
Flags: W
Fore
1112 856 m 1,0,-1
 772 856 l 1,1,-1
 827 1141 l 1,2,-1
 1122 1493 l 1,3,-1
 1335 1493 l 1,4,-1
 1167 1141 l 1,5,-1
 1112 856 l 1,0,-1
571 856 m 1,6,-1
 231 856 l 1,7,-1
 289 1141 l 1,8,-1
 584 1493 l 1,9,-1
 797 1493 l 1,10,-1
 627 1141 l 1,11,-1
 571 856 l 1,6,-1
EndSplineSet
Colour: aaaa88
EndChar
StartChar: quotedblright
Encoding: 8221 8221 181
Width: 1319
Flags: W
Fore
913 1493 m 1,0,-1
 1253 1493 l 1,1,-1
 1198 1208 l 1,2,-1
 903 856 l 1,3,-1
 690 856 l 1,4,-1
 858 1208 l 1,5,-1
 913 1493 l 1,0,-1
375 1493 m 1,6,-1
 715 1493 l 1,7,-1
 659 1208 l 1,8,-1
 362 856 l 1,9,-1
 150 856 l 1,10,-1
 319 1208 l 1,11,-1
 375 1493 l 1,6,-1
EndSplineSet
Colour: aaaa88
EndChar
StartChar: quoteleft
Encoding: 8216 8216 182
Width: 778
Flags: W
Fore
571 856 m 1,0,-1
 231 856 l 1,1,-1
 289 1141 l 1,2,-1
 584 1493 l 1,3,-1
 797 1493 l 1,4,-1
 627 1141 l 1,5,-1
 571 856 l 1,0,-1
EndSplineSet
Colour: aaaa88
EndChar
StartChar: quoteright
Encoding: 8217 8217 183
Width: 778
Flags: W
Fore
375 1493 m 1,0,-1
 715 1493 l 1,1,-1
 659 1208 l 1,2,-1
 362 856 l 1,3,-1
 150 856 l 1,4,-1
 319 1208 l 1,5,-1
 375 1493 l 1,0,-1
EndSplineSet
Colour: aaaa88
EndChar
StartChar: divide
Encoding: 247 247 184
Width: 1716
Flags: W
Fore
705 395 m 1,0,-1
 1012 395 l 1,1,-1
 1012 86 l 1,2,-1
 705 86 l 1,3,-1
 705 395 l 1,0,-1
705 1198 m 1,4,-1
 1012 1198 l 1,5,-1
 1012 889 l 1,6,-1
 705 889 l 1,7,-1
 705 1198 l 1,4,-1
217 760 m 1,8,-1
 1499 760 l 1,9,-1
 1499 524 l 1,10,-1
 217 524 l 1,11,-1
 217 760 l 1,8,-1
EndSplineSet
Colour: aaaa88
EndChar
StartChar: lozenge
Encoding: 9674 9674 185
Width: 1012
Flags: W
Fore
506 1409 m 1,0,-1
 121 592 l 1,1,-1
 506 -233 l 1,2,-1
 891 592 l 1,3,-1
 506 1409 l 1,0,-1
506 1653 m 1,4,-1
 1006 592 l 1,5,-1
 506 -477 l 1,6,-1
 6 592 l 1,7,-1
 506 1653 l 1,4,-1
EndSplineSet
Colour: aaaa88
EndChar
StartChar: fraction
Encoding: 8725 8725 188
AltUni: 8260
Width: 342
Flags: W
Fore
-324 -29 m 1,0,-1
 -569 -29 l 1,1,-1
 666 1520 l 1,2,-1
 911 1520 l 1,3,-1
 -324 -29 l 1,0,-1
EndSplineSet
Colour: aaaa88
EndChar
StartChar: currency
Encoding: 164 164 189
Width: 1303
Flags: W
Fore
434 268 m 1,0,-1
 227 61 l 1,1,-1
 74 215 l 1,2,-1
 281 422 l 1,3,4
 253 471 253 471 239 524.5 c 128,-1,5
 225 578 225 578 225 641 c 256,6,7
 225 704 225 704 240 758 c 128,-1,8
 255 812 255 812 285 858 c 1,9,-1
 76 1063 l 1,10,-1
 229 1217 l 1,11,-1
 436 1010 l 1,12,13
 484 1040 484 1040 538 1054.5 c 128,-1,14
 592 1069 592 1069 653 1069 c 0,15,16
 707 1069 707 1069 761 1055.5 c 128,-1,17
 815 1042 815 1042 872 1014 c 1,18,-1
 1079 1221 l 1,19,-1
 1231 1067 l 1,20,-1
 1024 860 l 1,21,22
 1053 805 1053 805 1067 750 c 128,-1,23
 1081 695 1081 695 1081 641 c 0,24,25
 1081 578 1081 578 1066.5 525.5 c 128,-1,26
 1052 473 1052 473 1022 426 c 1,27,-1
 1229 219 l 1,28,-1
 1075 66 l 1,29,-1
 868 272 l 1,30,31
 822 242 822 242 769 227.5 c 128,-1,32
 716 213 716 213 653 213 c 0,33,34
 595 213 595 213 541 226.5 c 128,-1,35
 487 240 487 240 434 268 c 1,0,-1
653 422 m 0,36,37
 744 422 744 422 808 485.5 c 128,-1,38
 872 549 872 549 872 641 c 256,39,40
 872 733 872 733 808.5 796.5 c 128,-1,41
 745 860 745 860 653 860 c 0,42,43
 562 860 562 860 498 796.5 c 128,-1,44
 434 733 434 733 434 641 c 0,45,46
 434 548 434 548 497 485 c 128,-1,47
 560 422 560 422 653 422 c 0,36,37
EndSplineSet
Colour: aaaa88
EndChar
StartChar: guilsinglleft
Encoding: 8249 8249 190
Width: 844
Flags: W
Fore
727 1063 m 1,0,-1
 678 811 l 1,1,-1
 332 582 l 1,2,-1
 590 360 l 1,3,-1
 547 137 l 1,4,-1
 125 506 l 1,5,-1
 162 692 l 1,6,-1
 727 1063 l 1,0,-1
EndSplineSet
Colour: aaaa88
EndChar
StartChar: guilsinglright
Encoding: 8250 8250 191
Width: 844
Flags: W
Fore
78 135 m 1,0,-1
 127 389 l 1,1,-1
 471 618 l 1,2,-1
 215 840 l 1,3,-1
 258 1063 l 1,4,-1
 678 692 l 1,5,-1
 643 506 l 1,6,-1
 78 135 l 1,0,-1
EndSplineSet
Colour: aaaa88
EndChar
StartChar: fi
Encoding: 64257 64257 192
Width: 1612
Flags: W
Fore
1274 1556 m 1,0,-1
 1634 1556 l 1,1,-1
 1577 1264 l 1,2,-1
 1217 1264 l 1,3,-1
 1274 1556 l 1,0,-1
1190 1120 m 1,4,-1
 1550 1120 l 1,5,-1
 1331 0 l 1,6,-1
 973 0 l 1,7,-1
 1190 1120 l 1,4,-1
1106 1556 m 1,8,-1
 1059 1321 l 1,9,-1
 862 1321 l 2,10,11
 787 1321 787 1321 752.5 1293.5 c 128,-1,12
 718 1266 718 1266 705 1199 c 1,13,-1
 688 1120 l 1,14,-1
 991 1120 l 1,15,-1
 942 864 l 1,16,-1
 639 864 l 1,17,-1
 471 0 l 1,18,-1
 111 0 l 1,19,-1
 279 864 l 1,20,-1
 102 864 l 1,21,-1
 152 1120 l 1,22,-1
 328 1120 l 1,23,-1
 344 1198 l 1,24,25
 381 1384 381 1384 498 1470 c 128,-1,26
 615 1556 615 1556 831 1556 c 2,27,-1
 1106 1556 l 1,8,-1
EndSplineSet
Ligature: 0 0 'liga' f i
Colour: aaaa88
EndChar
StartChar: fl
Encoding: 64258 64258 193
Width: 1612
Flags: W
Fore
831 1556 m 2,0,-1
 1634 1556 l 1,1,-1
 1331 0 l 1,2,-1
 973 0 l 1,3,-1
 1227 1321 l 1,4,-1
 862 1321 l 2,5,6
 787 1321 787 1321 752.5 1293.5 c 128,-1,7
 718 1266 718 1266 705 1199 c 1,8,-1
 688 1120 l 1,9,-1
 991 1120 l 1,10,-1
 942 864 l 1,11,-1
 639 864 l 1,12,-1
 471 0 l 1,13,-1
 111 0 l 1,14,-1
 279 864 l 1,15,-1
 102 864 l 1,16,-1
 152 1120 l 1,17,-1
 328 1120 l 1,18,-1
 344 1198 l 1,19,20
 381 1384 381 1384 498 1470 c 128,-1,21
 615 1556 615 1556 831 1556 c 2,0,-1
EndSplineSet
Ligature: 0 0 'liga' f l
Colour: aaaa88
EndChar
StartChar: daggerdbl
Encoding: 8225 8225 194
Width: 1024
Flags: W
Fore
487 1493 m 1,0,-1
 817 1493 l 1,1,-1
 743 1112 l 1,2,-1
 1032 1112 l 1,3,-1
 987 874 l 1,4,-1
 696 874 l 1,5,-1
 608 422 l 1,6,-1
 899 422 l 1,7,-1
 852 184 l 1,8,-1
 563 184 l 1,9,-1
 489 -197 l 1,10,-1
 158 -197 l 1,11,-1
 231 184 l 1,12,-1
 -57 184 l 1,13,-1
 -10 422 l 1,14,-1
 279 422 l 1,15,-1
 367 874 l 1,16,-1
 78 874 l 1,17,-1
 123 1112 l 1,18,-1
 412 1112 l 1,19,-1
 487 1493 l 1,0,-1
EndSplineSet
Colour: aaaa88
EndChar
StartChar: periodcentered
Encoding: 183 183 195
Width: 778
Flags: W
Fore
248 905 m 1,0,-1
 608 905 l 1,1,-1
 532 518 l 1,2,-1
 172 518 l 1,3,-1
 248 905 l 1,0,-1
EndSplineSet
Colour: aaaa88
EndChar
StartChar: quotesinglbase
Encoding: 8218 8218 196
Width: 778
Flags: W
Fore
156 387 m 1,0,-1
 496 387 l 1,1,-1
 440 102 l 1,2,-1
 143 -250 l 1,3,-1
 -70 -250 l 1,4,-1
 100 102 l 1,5,-1
 156 387 l 1,0,-1
EndSplineSet
Colour: aaaa88
EndChar
StartChar: quotedblbase
Encoding: 8222 8222 197
Width: 1319
Flags: W
Fore
694 387 m 1,0,-1
 1034 387 l 1,1,-1
 979 102 l 1,2,-1
 684 -250 l 1,3,-1
 471 -250 l 1,4,-1
 639 102 l 1,5,-1
 694 387 l 1,0,-1
156 387 m 1,6,-1
 496 387 l 1,7,-1
 440 102 l 1,8,-1
 143 -250 l 1,9,-1
 -70 -250 l 1,10,-1
 100 102 l 1,11,-1
 156 387 l 1,6,-1
EndSplineSet
Colour: aaaa88
EndChar
StartChar: perthousand
Encoding: 8240 8240 198
Width: 2978
Flags: W
Fore
2523 784 m 0,0,1
 2679 784 2679 784 2774 698.5 c 128,-1,2
 2869 613 2869 613 2869 473 c 0,3,4
 2869 250 2869 250 2736 110.5 c 128,-1,5
 2603 -29 2603 -29 2388 -29 c 0,6,7
 2231 -29 2231 -29 2136.5 57.5 c 128,-1,8
 2042 144 2042 144 2042 285 c 0,9,10
 2042 507 2042 507 2175.5 645.5 c 128,-1,11
 2309 784 2309 784 2523 784 c 0,0,1
2492 616 m 0,12,13
 2406 616 2406 616 2351 532 c 128,-1,14
 2296 448 2296 448 2296 315 c 0,15,16
 2296 228 2296 228 2326.5 184.5 c 128,-1,17
 2357 141 2357 141 2419 141 c 0,18,19
 2506 141 2506 141 2560.5 225 c 128,-1,20
 2615 309 2615 309 2615 444 c 0,21,22
 2615 529 2615 529 2584 572.5 c 128,-1,23
 2553 616 2553 616 2492 616 c 0,12,13
1565 616 m 0,24,25
 1479 616 1479 616 1423.5 532 c 128,-1,26
 1368 448 1368 448 1368 315 c 0,27,28
 1368 228 1368 228 1398.5 184.5 c 128,-1,29
 1429 141 1429 141 1491 141 c 0,30,31
 1578 141 1578 141 1633 225 c 128,-1,32
 1688 309 1688 309 1688 444 c 0,33,34
 1688 529 1688 529 1656.5 572.5 c 128,-1,35
 1625 616 1625 616 1565 616 c 0,24,25
1593 784 m 0,36,37
 1750 784 1750 784 1844.5 698.5 c 128,-1,38
 1939 613 1939 613 1939 473 c 0,39,40
 1939 249 1939 249 1806.5 110 c 128,-1,41
 1674 -29 1674 -29 1460 -29 c 0,42,43
 1303 -29 1303 -29 1208.5 57.5 c 128,-1,44
 1114 144 1114 144 1114 285 c 0,45,46
 1114 507 1114 507 1246.5 645.5 c 128,-1,47
 1379 784 1379 784 1593 784 c 0,36,37
532 -29 m 1,48,-1
 287 -29 l 1,49,-1
 1522 1520 l 1,50,-1
 1767 1520 l 1,51,-1
 532 -29 l 1,48,-1
594 1520 m 0,52,53
 750 1520 750 1520 845 1434 c 128,-1,54
 940 1348 940 1348 940 1208 c 0,55,56
 940 985 940 985 806.5 846 c 128,-1,57
 673 707 673 707 459 707 c 0,58,59
 302 707 302 707 207.5 792 c 128,-1,60
 113 877 113 877 113 1018 c 0,61,62
 113 1240 113 1240 246.5 1380 c 128,-1,63
 380 1520 380 1520 594 1520 c 0,52,53
563 1352 m 0,64,65
 477 1352 477 1352 422 1267.5 c 128,-1,66
 367 1183 367 1183 367 1051 c 0,67,68
 367 963 367 963 397.5 918.5 c 128,-1,69
 428 874 428 874 489 874 c 0,70,71
 576 874 576 874 631 959 c 128,-1,72
 686 1044 686 1044 686 1180 c 0,73,74
 686 1264 686 1264 654.5 1308 c 128,-1,75
 623 1352 623 1352 563 1352 c 0,64,65
EndSplineSet
Colour: aaaa88
EndChar
StartChar: dotlessi
Encoding: 305 305 214
Width: 702
Flags: W
Fore
281 1120 m 1,0,-1
 641 1120 l 1,1,-1
 422 0 l 1,2,-1
 63 0 l 1,3,-1
 281 1120 l 1,0,-1
EndSplineSet
Colour: aaaa88
EndChar
StartChar: circumflex
Encoding: 710 710 215
Width: 1024
Flags: W
Fore
545 1638 m 1,0,-1
 807 1638 l 1,1,-1
 989 1262 l 1,2,-1
 811 1262 l 1,3,-1
 655 1487 l 1,4,-1
 414 1262 l 1,5,-1
 217 1262 l 1,6,-1
 545 1638 l 1,0,-1
EndSplineSet
Colour: aaaa88
EndChar
StartChar: tilde
Encoding: 732 732 216
Width: 1024
Flags: W
Fore
635 1364 m 2,0,-1
 586 1401 l 2,1,2
 583 1403 583 1403 576 1408 c 0,3,4
 538 1438 538 1438 508 1438 c 0,5,6
 474 1438 474 1438 448 1403.5 c 128,-1,7
 422 1369 422 1369 412 1309 c 1,8,-1
 272 1309 l 1,9,10
 299 1446 299 1446 364.5 1519.5 c 128,-1,11
 430 1593 430 1593 524 1593 c 0,12,13
 560 1593 560 1593 593.5 1579.5 c 128,-1,14
 627 1566 627 1566 664 1536 c 2,15,-1
 717 1493 l 2,16,17
 735 1478 735 1478 752 1470 c 128,-1,18
 769 1462 769 1462 784 1462 c 0,19,20
 822 1462 822 1462 848 1495.5 c 128,-1,21
 874 1529 874 1529 885 1591 c 1,22,-1
 1024 1591 l 1,23,24
 998 1455 998 1455 933 1381 c 128,-1,25
 868 1307 868 1307 774 1307 c 0,26,27
 740 1307 740 1307 710 1318.5 c 128,-1,28
 680 1330 680 1330 635 1364 c 2,0,-1
EndSplineSet
Colour: aaaa88
EndChar
StartChar: macron
Encoding: 175 175 217
Width: 1024
Flags: W
Fore
354 1556 m 1,0,-1
 985 1556 l 1,1,-1
 948 1368 l 1,2,-1
 317 1368 l 1,3,-1
 354 1556 l 1,0,-1
EndSplineSet
Colour: aaaa88
EndChar
StartChar: breve
Encoding: 728 728 218
Width: 1024
Flags: W
Fore
343 1606 m 1,0,-1
 485 1606 l 1,1,-1
 485 1597 l 2,2,3
 485 1532 485 1532 528 1497 c 128,-1,4
 571 1462 571 1462 651 1462 c 0,5,6
 732 1462 732 1462 784 1497.5 c 128,-1,7
 836 1533 836 1533 864 1606 c 1,8,-1
 1016 1606 l 1,9,10
 982 1463 982 1463 879.5 1386 c 128,-1,11
 777 1309 777 1309 621 1309 c 0,12,13
 481 1309 481 1309 410.5 1371 c 128,-1,14
 340 1433 340 1433 340 1554 c 0,15,16
 340 1575 340 1575 340.5 1585.5 c 128,-1,17
 341 1596 341 1596 343 1606 c 1,0,-1
EndSplineSet
Colour: aaaa88
EndChar
StartChar: dotaccent
Encoding: 729 729 219
Width: 1024
Flags: W
Fore
539 1585 m 1,0,-1
 813 1585 l 1,1,-1
 764 1339 l 1,2,-1
 489 1339 l 1,3,-1
 539 1585 l 1,0,-1
EndSplineSet
Colour: aaaa88
EndChar
StartChar: ring
Encoding: 730 730 220
Width: 1024
Flags: W
Fore
946 1524 m 256,0,1
 946 1404 946 1404 863.5 1321.5 c 128,-1,2
 781 1239 781 1239 662 1239 c 0,3,4
 542 1239 542 1239 459.5 1321.5 c 128,-1,5
 377 1404 377 1404 377 1524 c 256,6,7
 377 1644 377 1644 459.5 1726 c 128,-1,8
 542 1808 542 1808 662 1808 c 0,9,10
 781 1808 781 1808 863.5 1726 c 128,-1,11
 946 1644 946 1644 946 1524 c 256,0,1
811 1524 m 0,12,13
 811 1589 811 1589 769 1631 c 128,-1,14
 727 1673 727 1673 662 1673 c 0,15,16
 596 1673 596 1673 554 1631 c 128,-1,17
 512 1589 512 1589 512 1524 c 256,18,19
 512 1459 512 1459 554.5 1416.5 c 128,-1,20
 597 1374 597 1374 662 1374 c 256,21,22
 727 1374 727 1374 769 1416 c 128,-1,23
 811 1458 811 1458 811 1524 c 0,12,13
EndSplineSet
Colour: aaaa88
EndChar
StartChar: cedilla
Encoding: 184 184 221
Width: 1024
Flags: W
Fore
459 0 m 1,0,1
 496 -52 496 -52 513 -96 c 128,-1,2
 530 -140 530 -140 530 -182 c 0,3,4
 530 -286 530 -286 454.5 -343.5 c 128,-1,5
 379 -401 379 -401 242 -401 c 0,6,7
 193 -401 193 -401 144.5 -394.5 c 128,-1,8
 96 -388 96 -388 45 -375 c 1,9,-1
 74 -219 l 1,10,11
 114 -236 114 -236 154.5 -245 c 128,-1,12
 195 -254 195 -254 233 -254 c 0,13,14
 299 -254 299 -254 337 -225.5 c 128,-1,15
 375 -197 375 -197 375 -150 c 0,16,17
 375 -124 375 -124 361.5 -89.5 c 128,-1,18
 348 -55 348 -55 317 0 c 1,19,-1
 459 0 l 1,0,1
EndSplineSet
Colour: aaaa88
EndChar
StartChar: hungarumlaut
Encoding: 733 733 222
Width: 1024
Flags: W
Fore
528 1638 m 1,0,-1
 778 1638 l 1,1,-1
 467 1262 l 1,2,-1
 293 1262 l 1,3,-1
 528 1638 l 1,0,-1
903 1638 m 1,4,-1
 1153 1638 l 1,5,-1
 809 1262 l 1,6,-1
 635 1262 l 1,7,-1
 903 1638 l 1,4,-1
EndSplineSet
Colour: aaaa88
EndChar
StartChar: ogonek
Encoding: 731 731 223
Width: 1024
Flags: W
Fore
307 0 m 1,0,-1
 449 0 l 1,1,2
 378 -74 378 -74 352 -114 c 128,-1,3
 326 -154 326 -154 326 -182 c 0,4,5
 326 -216 326 -216 350.5 -235 c 128,-1,6
 375 -254 375 -254 420 -254 c 0,7,8
 457 -254 457 -254 498 -246 c 128,-1,9
 539 -238 539 -238 582 -223 c 1,10,-1
 553 -375 l 1,11,12
 496 -388 496 -388 451 -394.5 c 128,-1,13
 406 -401 406 -401 367 -401 c 0,14,15
 261 -401 261 -401 205.5 -366.5 c 128,-1,16
 150 -332 150 -332 150 -266 c 0,17,18
 150 -201 150 -201 187 -138 c 128,-1,19
 224 -75 224 -75 307 0 c 1,0,-1
EndSplineSet
Colour: aaaa88
EndChar
StartChar: caron
Encoding: 711 711 224
Width: 1024
Flags: W
Fore
752 1262 m 1,0,-1
 492 1262 l 1,1,-1
 309 1638 l 1,2,-1
 485 1638 l 1,3,-1
 641 1411 l 1,4,-1
 885 1638 l 1,5,-1
 1081 1638 l 1,6,-1
 752 1262 l 1,0,-1
EndSplineSet
Colour: aaaa88
EndChar
StartChar: Lslash
Encoding: 321 321 225
Width: 1352
Flags: W
Fore
410 1493 m 1,0,-1
 795 1493 l 1,1,-1
 694 977 l 1,2,-1
 1034 1128 l 1,3,-1
 1139 918 l 1,4,-1
 639 698 l 1,5,-1
 561 291 l 1,6,-1
 1235 291 l 1,7,-1
 1180 0 l 1,8,-1
 119 0 l 1,9,-1
 217 502 l 1,10,-1
 57 428 l 1,11,-1
 -47 643 l 1,12,-1
 270 778 l 1,13,-1
 410 1493 l 1,0,-1
EndSplineSet
Colour: aaaa88
EndChar
StartChar: lslash
Encoding: 322 322 226
Width: 768
Flags: W
Fore
408 1556 m 1,0,-1
 768 1556 l 1,1,-1
 666 1040 l 1,2,-1
 834 1118 l 1,3,-1
 934 915 l 1,4,-1
 614 770 l 1,5,-1
 465 0 l 1,6,-1
 104 0 l 1,7,-1
 221 598 l 1,8,-1
 82 530 l 1,9,-1
 -14 733 l 1,10,-1
 274 868 l 1,11,-1
 408 1556 l 1,0,-1
EndSplineSet
Colour: aaaa88
EndChar
StartChar: brokenbar
Encoding: 166 166 231
Width: 748
Flags: W
Fore
487 1432 m 1,0,-1
 487 674 l 1,1,-1
 260 674 l 1,2,-1
 260 1432 l 1,3,-1
 487 1432 l 1,0,-1
487 408 m 1,4,-1
 487 -350 l 1,5,-1
 260 -350 l 1,6,-1
 260 408 l 1,7,-1
 487 408 l 1,4,-1
EndSplineSet
Colour: aaaa88
EndChar
StartChar: Eth
Encoding: 208 208 232
Width: 1731
Flags: W
Fore
696 1202 m 1,0,-1
 639 903 l 1,1,-1
 885 903 l 1,2,-1
 834 643 l 1,3,-1
 588 643 l 1,4,-1
 518 291 l 1,5,-1
 655 291 l 2,6,7
 926 291 926 291 1083.5 442.5 c 128,-1,8
 1241 594 1241 594 1241 850 c 0,9,10
 1241 1024 1241 1024 1137.5 1113 c 128,-1,11
 1034 1202 1034 1202 831 1202 c 2,12,-1
 696 1202 l 1,0,-1
367 1493 m 1,13,-1
 772 1493 l 2,14,15
 1062 1493 1062 1493 1207 1458.5 c 128,-1,16
 1352 1424 1352 1424 1448 1343 c 0,17,18
 1545 1262 1545 1262 1595 1146 c 128,-1,19
 1645 1030 1645 1030 1645 885 c 0,20,21
 1645 684 1645 684 1560.5 504 c 128,-1,22
 1476 324 1476 324 1325 201 c 0,23,24
 1193 92 1193 92 1018.5 46 c 128,-1,25
 844 0 844 0 481 0 c 2,26,-1
 76 0 l 1,27,-1
 201 643 l 1,28,-1
 -4 643 l 1,29,-1
 47 903 l 1,30,-1
 252 903 l 1,31,-1
 367 1493 l 1,13,-1
EndSplineSet
Colour: aaaa88
EndChar
StartChar: eth
Encoding: 240 240 233
Width: 1407
Flags: W
Fore
958 743 m 1,0,1
 906 770 906 770 855 783.5 c 128,-1,2
 804 797 804 797 752 797 c 0,3,4
 612 797 612 797 530.5 703 c 128,-1,5
 449 609 449 609 449 451 c 0,6,7
 449 342 449 342 499 284.5 c 128,-1,8
 549 227 549 227 643 227 c 0,9,10
 783 227 783 227 873 353.5 c 128,-1,11
 963 480 963 480 963 678 c 0,12,13
 963 691 963 691 959 731 c 0,14,15
 959 738 959 738 958 743 c 1,0,1
1204 1100 m 2,16,17
 1268 1008 1268 1008 1300.5 902 c 128,-1,18
 1333 796 1333 796 1333 680 c 0,19,20
 1333 550 1333 550 1287.5 428.5 c 128,-1,21
 1242 307 1242 307 1155 207 c 0,22,23
 1054 91 1054 91 914.5 31 c 128,-1,24
 775 -29 775 -29 604 -29 c 0,25,26
 363 -29 363 -29 218.5 96 c 128,-1,27
 74 221 74 221 74 426 c 0,28,29
 74 706 74 706 256 880.5 c 128,-1,30
 438 1055 438 1055 731 1055 c 0,31,32
 780 1055 780 1055 823.5 1048 c 128,-1,33
 867 1041 867 1041 903 1028 c 1,34,-1
 752 1243 l 1,35,-1
 367 1135 l 1,36,-1
 332 1264 l 1,37,-1
 672 1358 l 1,38,-1
 535 1556 l 1,39,-1
 887 1556 l 1,40,-1
 969 1440 l 1,41,-1
 1354 1546 l 1,42,-1
 1389 1419 l 1,43,-1
 1049 1325 l 1,44,-1
 1204 1100 l 2,16,17
EndSplineSet
Colour: aaaa88
EndChar
StartChar: Thorn
Encoding: 222 222 236
Width: 1520
Flags: W
Fore
334 1493 m 1,0,-1
 719 1493 l 1,1,-1
 676 1270 l 1,2,-1
 922 1270 l 2,3,4
 1157 1270 1157 1270 1290 1162.5 c 128,-1,5
 1423 1055 1423 1055 1423 864 c 0,6,7
 1423 747 1423 747 1379.5 642.5 c 128,-1,8
 1336 538 1336 538 1253 459 c 0,9,10
 1164 373 1164 373 1039.5 334 c 128,-1,11
 915 295 915 295 731 295 c 2,12,-1
 485 295 l 1,13,-1
 428 0 l 1,14,-1
 43 0 l 1,15,-1
 334 1493 l 1,0,-1
621 993 m 1,16,-1
 541 573 l 1,17,-1
 745 573 l 2,18,19
 881 573 881 573 953.5 638 c 128,-1,20
 1026 703 1026 703 1026 825 c 0,21,22
 1026 907 1026 907 975.5 950 c 128,-1,23
 925 993 925 993 827 993 c 2,24,-1
 621 993 l 1,16,-1
EndSplineSet
Colour: aaaa88
EndChar
StartChar: thorn
Encoding: 254 254 237
Width: 1466
Flags: W
Fore
455 162 m 1,0,-1
 340 -426 l 1,1,-1
 -20 -426 l 1,2,-1
 365 1556 l 1,3,-1
 725 1556 l 1,4,-1
 608 956 l 1,5,6
 690 1054 690 1054 780 1100.5 c 128,-1,7
 870 1147 870 1147 977 1147 c 0,8,9
 1166 1147 1166 1147 1276 1027 c 128,-1,10
 1386 907 1386 907 1386 700 c 0,11,12
 1386 571 1386 571 1347.5 449 c 128,-1,13
 1309 327 1309 327 1237 227 c 0,14,15
 1146 101 1146 101 1031.5 36 c 128,-1,16
 917 -29 917 -29 786 -29 c 0,17,18
 671 -29 671 -29 590.5 17.5 c 128,-1,19
 510 64 510 64 455 162 c 1,0,-1
831 887 m 0,20,21
 693 887 693 887 605.5 759.5 c 128,-1,22
 518 632 518 632 518 428 c 0,23,24
 518 336 518 336 567.5 283.5 c 128,-1,25
 617 231 617 231 705 231 c 0,26,27
 840 231 840 231 928 356.5 c 128,-1,28
 1016 482 1016 482 1016 678 c 0,29,30
 1016 780 1016 780 968.5 833.5 c 128,-1,31
 921 887 921 887 831 887 c 0,20,21
EndSplineSet
Colour: aaaa88
EndChar
StartChar: minus
Encoding: 8722 8722 238
Width: 1716
Flags: W
Fore
217 760 m 1,0,-1
 1499 760 l 1,1,-1
 1499 524 l 1,2,-1
 217 524 l 1,3,-1
 217 760 l 1,0,-1
EndSplineSet
Colour: aaaa88
EndChar
StartChar: multiply
Encoding: 215 215 239
Width: 1716
Flags: W
Fore
1460 1075 m 1,0,-1
 1026 641 l 1,1,-1
 1460 209 l 1,2,-1
 1292 41 l 1,3,-1
 858 473 l 1,4,-1
 424 41 l 1,5,-1
 256 209 l 1,6,-1
 690 641 l 1,7,-1
 256 1075 l 1,8,-1
 424 1243 l 1,9,-1
 858 809 l 1,10,-1
 1292 1243 l 1,11,-1
 1460 1075 l 1,0,-1
EndSplineSet
Colour: aaaa88
EndChar
StartChar: onesuperior
Encoding: 185 185 240
Width: 897
Flags: W
Fore
168 825 m 1,0,-1
 373 825 l 1,1,-1
 475 1346 l 1,2,-1
 242 1294 l 1,3,-1
 272 1454 l 1,4,-1
 516 1503 l 1,5,-1
 735 1503 l 1,6,-1
 602 825 l 1,7,-1
 809 825 l 1,8,-1
 778 668 l 1,9,-1
 137 668 l 1,10,-1
 168 825 l 1,0,-1
EndSplineSet
Colour: aaaa88
EndChar
StartChar: twosuperior
Encoding: 178 178 241
Width: 897
Flags: W
Fore
424 836 m 1,0,-1
 801 836 l 1,1,-1
 768 668 l 1,2,-1
 92 668 l 1,3,-1
 123 821 l 1,4,-1
 489 1087 l 2,5,6
 569 1145 569 1145 608 1194.5 c 128,-1,7
 647 1244 647 1244 647 1286 c 0,8,9
 647 1326 647 1326 614.5 1349 c 128,-1,10
 582 1372 582 1372 524 1372 c 0,11,12
 456 1372 456 1372 382.5 1349 c 128,-1,13
 309 1326 309 1326 238 1282 c 1,14,-1
 274 1468 l 1,15,16
 357 1494 357 1494 431.5 1507 c 128,-1,17
 506 1520 506 1520 575 1520 c 0,18,19
 724 1520 724 1520 803.5 1465.5 c 128,-1,20
 883 1411 883 1411 883 1311 c 0,21,22
 883 1232 883 1232 829 1157.5 c 128,-1,23
 775 1083 775 1083 655 999 c 2,24,-1
 424 836 l 1,0,-1
EndSplineSet
Colour: aaaa88
EndChar
StartChar: threesuperior
Encoding: 179 179 242
Width: 897
Flags: W
Fore
666 1120 m 1,0,1
 741 1107 741 1107 780 1060.5 c 128,-1,2
 819 1014 819 1014 819 938 c 0,3,4
 819 801 819 801 702 727 c 128,-1,5
 585 653 585 653 369 653 c 0,6,7
 289 653 289 653 216.5 665 c 128,-1,8
 144 677 144 677 82 700 c 1,9,-1
 115 872 l 1,10,11
 173 836 173 836 232.5 817.5 c 128,-1,12
 292 799 292 799 352 799 c 0,13,14
 461 799 461 799 522.5 837 c 128,-1,15
 584 875 584 875 584 942 c 0,16,17
 584 996 584 996 534.5 1021.5 c 128,-1,18
 485 1047 485 1047 381 1047 c 2,19,-1
 305 1047 l 1,20,-1
 332 1184 l 1,21,-1
 418 1184 l 2,22,23
 524 1184 524 1184 580.5 1213 c 128,-1,24
 637 1242 637 1242 637 1296 c 0,25,26
 637 1334 637 1334 599 1353 c 128,-1,27
 561 1372 561 1372 487 1372 c 0,28,29
 433 1372 433 1372 369.5 1359 c 128,-1,30
 306 1346 306 1346 229 1319 c 1,31,-1
 260 1485 l 1,32,33
 332 1502 332 1502 406 1511 c 128,-1,34
 480 1520 480 1520 553 1520 c 0,35,36
 708 1520 708 1520 791 1470 c 128,-1,37
 874 1420 874 1420 874 1327 c 0,38,39
 874 1246 874 1246 817.5 1190 c 128,-1,40
 761 1134 761 1134 666 1120 c 1,0,1
EndSplineSet
Colour: aaaa88
EndChar
StartChar: onequarter
Encoding: 188 188 243
Width: 2181
Flags: W
Fore
1700 651 m 1,0,-1
 1393 317 l 1,1,-1
 1632 317 l 1,2,-1
 1700 651 l 1,0,-1
1712 836 m 1,3,-1
 1962 836 l 1,4,-1
 1862 317 l 1,5,-1
 1997 317 l 1,6,-1
 1968 162 l 1,7,-1
 1831 162 l 1,8,-1
 1798 0 l 1,9,-1
 1569 0 l 1,10,-1
 1602 162 l 1,11,-1
 1210 162 l 1,12,-1
 1243 330 l 1,13,-1
 1712 836 l 1,3,-1
616 -29 m 1,14,-1
 371 -29 l 1,15,-1
 1606 1520 l 1,16,-1
 1851 1520 l 1,17,-1
 616 -29 l 1,14,-1
168 825 m 1,18,-1
 373 825 l 1,19,-1
 475 1346 l 1,20,-1
 242 1294 l 1,21,-1
 272 1454 l 1,22,-1
 516 1503 l 1,23,-1
 735 1503 l 1,24,-1
 602 825 l 1,25,-1
 809 825 l 1,26,-1
 778 668 l 1,27,-1
 137 668 l 1,28,-1
 168 825 l 1,18,-1
EndSplineSet
Ligature: 0 1 'frac' one slash four
Ligature: 0 1 'frac' one fraction four
Colour: aaaa88
EndChar
StartChar: onehalf
Encoding: 189 189 244
Width: 2181
Flags: W
Fore
1604 168 m 1,0,-1
 1978 168 l 1,1,-1
 1946 0 l 1,2,-1
 1272 0 l 1,3,-1
 1303 154 l 1,4,-1
 1669 420 l 2,5,6
 1750 478 1750 478 1788.5 526.5 c 128,-1,7
 1827 575 1827 575 1827 616 c 256,8,9
 1827 657 1827 657 1794 681 c 128,-1,10
 1761 705 1761 705 1704 705 c 0,11,12
 1636 705 1636 705 1561 681.5 c 128,-1,13
 1486 658 1486 658 1415 614 c 1,14,-1
 1452 801 l 1,15,16
 1535 827 1535 827 1609 839.5 c 128,-1,17
 1683 852 1683 852 1753 852 c 0,18,19
 1902 852 1902 852 1982 797.5 c 128,-1,20
 2062 743 2062 743 2062 643 c 0,21,22
 2062 564 2062 564 2008 490 c 128,-1,23
 1954 416 1954 416 1835 332 c 2,24,-1
 1604 168 l 1,0,-1
616 -29 m 1,25,-1
 371 -29 l 1,26,-1
 1606 1520 l 1,27,-1
 1851 1520 l 1,28,-1
 616 -29 l 1,25,-1
168 825 m 1,29,-1
 373 825 l 1,30,-1
 475 1346 l 1,31,-1
 242 1294 l 1,32,-1
 272 1454 l 1,33,-1
 516 1503 l 1,34,-1
 735 1503 l 1,35,-1
 602 825 l 1,36,-1
 809 825 l 1,37,-1
 778 668 l 1,38,-1
 137 668 l 1,39,-1
 168 825 l 1,29,-1
EndSplineSet
Ligature: 0 1 'frac' one slash two
Ligature: 0 1 'frac' one fraction two
Colour: aaaa88
EndChar
StartChar: threequarters
Encoding: 190 190 245
Width: 2181
Flags: W
Fore
674 1120 m 1,0,1
 750 1106 750 1106 789.5 1060 c 128,-1,2
 829 1014 829 1014 829 938 c 0,3,4
 829 801 829 801 712.5 727 c 128,-1,5
 596 653 596 653 379 653 c 0,6,7
 298 653 298 653 225 665 c 128,-1,8
 152 677 152 677 90 700 c 1,9,-1
 125 872 l 1,10,11
 183 836 183 836 242.5 817.5 c 128,-1,12
 302 799 302 799 362 799 c 0,13,14
 471 799 471 799 532.5 837 c 128,-1,15
 594 875 594 875 594 942 c 0,16,17
 594 996 594 996 545 1021.5 c 128,-1,18
 496 1047 496 1047 391 1047 c 2,19,-1
 315 1047 l 1,20,-1
 342 1184 l 1,21,-1
 428 1184 l 2,22,23
 534 1184 534 1184 589.5 1213 c 128,-1,24
 645 1242 645 1242 645 1296 c 0,25,26
 645 1334 645 1334 607.5 1353 c 128,-1,27
 570 1372 570 1372 498 1372 c 0,28,29
 442 1372 442 1372 377.5 1359 c 128,-1,30
 313 1346 313 1346 238 1319 c 1,31,-1
 270 1485 l 1,32,33
 342 1502 342 1502 416 1511 c 128,-1,34
 490 1520 490 1520 563 1520 c 0,35,36
 718 1520 718 1520 800.5 1470 c 128,-1,37
 883 1420 883 1420 883 1327 c 0,38,39
 883 1246 883 1246 826.5 1190 c 128,-1,40
 770 1134 770 1134 674 1120 c 1,0,1
1704 651 m 1,41,-1
 1399 317 l 1,42,-1
 1638 317 l 1,43,-1
 1704 651 l 1,41,-1
1718 836 m 1,44,-1
 1966 836 l 1,45,-1
 1866 317 l 1,46,-1
 2003 317 l 1,47,-1
 1972 162 l 1,48,-1
 1835 162 l 1,49,-1
 1804 0 l 1,50,-1
 1575 0 l 1,51,-1
 1606 162 l 1,52,-1
 1217 162 l 1,53,-1
 1247 330 l 1,54,-1
 1718 836 l 1,44,-1
631 -29 m 1,55,-1
 385 -29 l 1,56,-1
 1620 1520 l 1,57,-1
 1866 1520 l 1,58,-1
 631 -29 l 1,55,-1
EndSplineSet
Ligature: 0 1 'frac' three slash four
Ligature: 0 1 'frac' three fraction four
Colour: aaaa88
EndChar
StartChar: dcroat
Encoding: 273 273 255
Width: 1466
Flags: W
Fore
629 231 m 0,0,1
 767 231 767 231 853.5 358 c 128,-1,2
 940 485 940 485 940 690 c 0,3,4
 940 783 940 783 891.5 835 c 128,-1,5
 843 887 843 887 756 887 c 0,6,7
 620 887 620 887 532 761.5 c 128,-1,8
 444 636 444 636 444 440 c 0,9,10
 444 338 444 338 491.5 284.5 c 128,-1,11
 539 231 539 231 629 231 c 0,0,1
1006 956 m 1,12,-1
 1063 1251 l 1,13,-1
 668 1251 l 1,14,-1
 705 1440 l 1,15,-1
 1100 1440 l 1,16,-1
 1122 1556 l 1,17,-1
 1483 1556 l 1,18,-1
 1460 1440 l 1,19,-1
 1673 1440 l 1,20,-1
 1636 1251 l 1,21,-1
 1423 1251 l 1,22,-1
 1180 0 l 1,23,-1
 819 0 l 1,24,-1
 852 162 l 1,25,26
 770 64 770 64 680 17.5 c 128,-1,27
 590 -29 590 -29 483 -29 c 0,28,29
 294 -29 294 -29 184 91 c 128,-1,30
 74 211 74 211 74 418 c 0,31,32
 74 547 74 547 112.5 669 c 128,-1,33
 151 791 151 791 223 891 c 0,34,35
 314 1017 314 1017 428.5 1082 c 128,-1,36
 543 1147 543 1147 674 1147 c 0,37,38
 789 1147 789 1147 869.5 1100.5 c 128,-1,39
 950 1054 950 1054 1006 956 c 1,12,-1
EndSplineSet
Colour: aaaa88
EndChar
StartChar: sfthyphen
Encoding: 173 173 256
Width: 850
Flags: W
Fore
109 735 m 1,0,-1
 737 735 l 1,1,-1
 680 444 l 1,2,-1
 51 444 l 1,3,-1
 109 735 l 1,0,-1
EndSplineSet
Colour: aaaa88
EndChar
StartChar: periodcentered
Encoding: 8729 8729 257
Width: 778
Flags: W
Fore
248 905 m 1,0,-1
 608 905 l 1,1,-1
 532 518 l 1,2,-1
 172 518 l 1,3,-1
 248 905 l 1,0,-1
EndSplineSet
Colour: aaaa88
EndChar
StartChar: Euro
Encoding: 8364 8364 258
Width: 1425
Flags: W
Fore
1190 70 m 1,0,1
 1066 21 1066 21 951.5 -4 c 128,-1,2
 837 -29 837 -29 735 -29 c 0,3,4
 489 -29 489 -29 335.5 103 c 128,-1,5
 182 235 182 235 145 477 c 1,6,-1
 -84 477 l 1,7,-1
 4 672 l 1,8,-1
 143 672 l 1,9,10
 145 704 145 704 150.5 739 c 128,-1,11
 156 774 156 774 168 821 c 1,12,-1
 -8 821 l 1,13,-1
 78 1016 l 1,14,-1
 233 1016 l 1,15,16
 331 1247 331 1247 534 1383.5 c 128,-1,17
 737 1520 737 1520 983 1520 c 0,18,19
 1088 1520 1088 1520 1193.5 1492.5 c 128,-1,20
 1299 1465 1299 1465 1407 1409 c 1,21,-1
 1352 1100 l 1,22,23
 1270 1181 1270 1181 1184.5 1219 c 128,-1,24
 1099 1257 1099 1257 997 1257 c 0,25,26
 885 1257 885 1257 789 1195 c 128,-1,27
 693 1133 693 1133 625 1016 c 1,28,-1
 1122 1016 l 1,29,-1
 1036 821 l 1,30,-1
 553 821 l 1,31,32
 546 787 546 787 541 751 c 128,-1,33
 536 715 536 715 533 672 c 1,34,-1
 971 672 l 1,35,-1
 883 477 l 1,36,-1
 545 477 l 1,37,38
 569 358 569 358 646.5 295.5 c 128,-1,39
 724 233 724 233 846 233 c 0,40,41
 938 233 938 233 1041.5 276.5 c 128,-1,42
 1145 320 1145 320 1249 401 c 1,43,-1
 1190 70 l 1,0,1
EndSplineSet
Colour: aaaa88
EndChar
StartChar: Dieresis
Encoding: 65539 -1 259
Width: 1024
Flags: W
Fore
346 1526 m 1,0,-1
 582 1526 l 1,1,-1
 535 1280 l 1,2,-1
 299 1280 l 1,3,-1
 346 1526 l 1,0,-1
741 1526 m 1,4,-1
 979 1526 l 1,5,-1
 930 1280 l 1,6,-1
 694 1280 l 1,7,-1
 741 1526 l 1,4,-1
EndSplineSet
Colour: aaaa88
EndChar
StartChar: Acute
Encoding: 65540 -1 260
Width: 1024
Flags: W
Fore
711 1526 m 1,0,-1
 991 1526 l 1,1,-1
 672 1262 l 1,2,-1
 465 1262 l 1,3,-1
 711 1526 l 1,0,-1
EndSplineSet
Colour: aaaa88
EndChar
StartChar: Tilde
Encoding: 65541 -1 261
Width: 1024
Flags: W
Fore
618 1313 m 2,0,-1
 569 1350 l 2,1,2
 545 1369 545 1369 528.5 1375.5 c 128,-1,3
 512 1382 512 1382 494 1382 c 0,4,5
 458 1382 458 1382 432 1350 c 128,-1,6
 406 1318 406 1318 395 1262 c 1,7,-1
 258 1262 l 1,8,9
 284 1390 284 1390 349.5 1459 c 128,-1,10
 415 1528 415 1528 510 1528 c 0,11,12
 547 1528 547 1528 579.5 1516 c 128,-1,13
 612 1504 612 1504 647 1477 c 2,14,-1
 700 1436 l 2,15,16
 716 1423 716 1423 734 1416 c 128,-1,17
 752 1409 752 1409 768 1409 c 0,18,19
 807 1409 807 1409 833.5 1439.5 c 128,-1,20
 860 1470 860 1470 870 1528 c 1,21,-1
 1008 1528 l 1,22,23
 982 1400 982 1400 916.5 1331 c 128,-1,24
 851 1262 851 1262 758 1262 c 0,25,26
 720 1262 720 1262 688 1273 c 128,-1,27
 656 1284 656 1284 618 1313 c 2,0,-1
EndSplineSet
Colour: aaaa88
EndChar
StartChar: Grave
Encoding: 65542 -1 262
Width: 1024
Flags: W
Fore
616 1526 m 1,0,-1
 760 1262 l 1,1,-1
 582 1262 l 1,2,-1
 352 1526 l 1,3,-1
 616 1526 l 1,0,-1
EndSplineSet
Colour: aaaa88
EndChar
StartChar: Circumflex
Encoding: 65543 -1 263
Width: 1024
Flags: W
Fore
475 1526 m 1,0,-1
 823 1526 l 1,1,-1
 975 1262 l 1,2,-1
 805 1262 l 1,3,-1
 641 1423 l 1,4,-1
 410 1262 l 1,5,-1
 231 1262 l 1,6,-1
 475 1526 l 1,0,-1
EndSplineSet
Colour: aaaa88
EndChar
StartChar: Caron
Encoding: 65544 -1 264
Width: 1024
Flags: W
Fore
793 1262 m 1,0,-1
 444 1262 l 1,1,-1
 307 1526 l 1,2,-1
 479 1526 l 1,3,-1
 627 1364 l 1,4,-1
 858 1526 l 1,5,-1
 1036 1526 l 1,6,-1
 793 1262 l 1,0,-1
EndSplineSet
Colour: aaaa88
EndChar
StartChar: Breve
Encoding: 65545 -1 265
Width: 1024
Flags: W
Fore
334 1526 m 1,0,-1
 477 1526 l 1,1,2
 487 1466 487 1466 527.5 1438.5 c 128,-1,3
 568 1411 568 1411 647 1411 c 0,4,5
 719 1411 719 1411 772 1441.5 c 128,-1,6
 825 1472 825 1472 848 1526 c 1,7,-1
 1001 1526 l 1,8,9
 962 1397 962 1397 863 1329.5 c 128,-1,10
 764 1262 764 1262 616 1262 c 0,11,12
 480 1262 480 1262 407 1329.5 c 128,-1,13
 334 1397 334 1397 334 1522 c 2,14,-1
 334 1526 l 1,0,-1
EndSplineSet
Colour: aaaa88
EndChar
StartChar: Dotaccent
Encoding: 65546 -1 266
Width: 1024
Flags: W
Fore
526 1526 m 1,0,-1
 801 1526 l 1,1,-1
 754 1280 l 1,2,-1
 479 1280 l 1,3,-1
 526 1526 l 1,0,-1
EndSplineSet
Colour: aaaa88
EndChar
StartChar: Hungarumlaut
Encoding: 65547 -1 267
Width: 1024
Flags: W
TeX: 78 0 0 0
AnchorPoint: "TopCapMkMk" 586 1120 mark 0
AnchorPoint: "TopCapMkMk" 658 1493 basemark 0
AnchorPoint: "TopCap" 586 1120 mark 0
Fore
526 1526 m 1,0,-1
 727 1526 l 1,1,-1
 501 1262 l 1,2,-1
 338 1262 l 1,3,-1
 526 1526 l 1,0,-1
883 1526 m 1,4,-1
 1097 1526 l 1,5,-1
 854 1262 l 1,6,-1
 680 1262 l 1,7,-1
 883 1526 l 1,4,-1
EndSplineSet
EndChar
StartChar: HepBar
Encoding: 65548 -1 268
Width: 1024
Flags: W
TeX: 78 0 0 0
Fore
443 1830 m 5,0,-1
 1293 1830 l 5,1,-1
 1265.5 1690 l 5,2,-1
 416 1690 l 5,3,-1
 443 1830 l 5,0,-1
EndSplineSet
EndChar
StartChar: Uni030F
Encoding: 65549 -1 269
Width: 1024
Flags: W
TeX: 78 0 0 0
AnchorPoint: "TopCapMkMk" 646 1120 mark 0
AnchorPoint: "TopCapMkMk" 718 1494 basemark 0
AnchorPoint: "TopCap" 646 1120 mark 0
Fore
886 1527 m 5,0,-1
 970 1262 l 5,3,-1
 807 1262 l 5,2,-1
 685 1527 l 5,1,-1
 886 1527 l 5,0,-1
529 1527 m 5,4,-1
 628 1262 l 5,7,-1
 454 1262 l 5,6,-1
 315 1527 l 5,5,-1
 529 1527 l 5,4,-1
EndSplineSet
EndChar
StartChar: Uni0311
Encoding: 65550 -1 270
Width: 1024
Flags: W
TeX: 78 0 0 0
AnchorPoint: "TopCap" 646 1120 mark 0
AnchorPoint: "TopCapMkMk" 718 1493 basemark 0
AnchorPoint: "TopCapMkMk" 646 1120 mark 0
Fore
1009 1262 m 5,0,-1
 866 1262 l 5,1,2
 857 1323 857 1323 815 1353 c 132,-1,3
 773 1383 773 1383 697 1383 c 4,4,5
 621 1383 621 1383 567 1353 c 132,-1,6
 513 1323 513 1323 480 1262 c 5,7,-1
 337 1262 l 5,8,9
 378 1391 378 1391 477 1458 c 132,-1,10
 577 1526 577 1526 725 1526 c 4,11,12
 873 1526 873 1526 945 1458 c 132,-1,13
 1018 1391 1018 1391 1009 1262 c 5,0,-1
EndSplineSet
EndChar
StartChar: Macron
Encoding: 65551 -1 271
Width: 1024
Flags: W
TeX: 78 0 0 0
AnchorPoint: "TopCapMkMk" 646 1120 mark 0
AnchorPoint: "TopCapMkMk" 718 1493 basemark 0
AnchorPoint: "TopCap" 646 1120 mark 0
Fore
405 1500 m 5,0,-1
 1035 1500 l 5,1,-1
 998 1312 l 5,2,-1
 368 1312 l 5,3,-1
 405 1500 l 5,0,-1
EndSplineSet
EndChar
StartChar: uniFFFD
Encoding: 65533 65533 272
Width: 1087
Flags: W
TeX: 117 0 0 0
HStem: -105 105<-137 888> 254 147<294 520> 1520 90<197 778>
Fore
197 1610 m 1,0,-1
 1222 1610 l 1,1,-1
 888 -105 l 1,2,-1
 -137 -105 l 1,3,-1
 197 1610 l 1,0,-1
294 254 m 1,4,-1
 245 0 l 1,5,-1
 448 0 l 1,6,-1
 497 254 l 1,7,-1
 294 254 l 1,4,-1
520 401 m 1,8,-1
 544 524 l 2,9,10
 554 576 554 576 563 606 c 0,11,12
 571 636 571 636 582 657 c 0,13,14
 594 682 594 682 619 708 c 0,15,16
 644 735 644 735 700 782 c 2,17,-1
 805 868 l 2,18,19
 911 954 911 954 961 1022 c 0,20,21
 1010 1091 1010 1091 1025 1167 c 0,22,23
 1032 1207 1032 1207 1032 1243 c 0,24,25
 1032 1350 1032 1350 963 1423 c 0,26,27
 870 1520 870 1520 686 1520 c 0,28,29
 583 1520 583 1520 481 1492 c 128,-1,30
 379 1464 379 1464 274 1407 c 1,31,-1
 238 1219 l 1,32,33
 348 1286 348 1286 444 1321 c 128,-1,34
 540 1356 540 1356 619 1356 c 0,35,36
 727 1356 727 1356 782 1301 c 0,37,38
 824 1259 824 1259 824 1198 c 0,39,40
 824 1178 824 1178 820 1157 c 0,41,42
 810 1108 810 1108 776 1061 c 0,43,44
 741 1014 741 1014 674 961 c 1,45,-1
 566 872 l 1,46,47
 460 786 460 786 419 721 c 128,-1,48
 378 656 378 656 359 555 c 2,49,-1
 329 401 l 1,50,-1
 520 401 l 1,8,-1
EndSplineSet
EndChar
StartChar: uni0237
Encoding: 567 567 273
Width: 702
Flags: W
TeX: 117 0 0 0
Fore
281 1120 m 1,0,-1
 641 1120 l 1,1,-1
 426 20 l 2,2,3
 380 -215 380 -215 254 -328 c 0,4,5
 129 -442 129 -442 -84 -442 c 2,6,-1
 -262 -442 l 1,7,-1
 -217 -207 l 1,8,-1
 -154 -207 l 2,9,10
 -53 -207 -53 -207 -6 -162 c 0,11,12
 40 -116 40 -116 66 20 c 1,13,-1
 281 1120 l 1,0,-1
EndSplineSet
EndChar
StartChar: uni02B0
Encoding: 688 688 274
Width: 1020
VWidth: 2049
Flags: W
TeX: 117 0 0 0
HStem: 1347 162<615.5 847>
Fore
1002 1230 m 2,0,-1
 922 821 l 1,1,-1
 670 821 l 1,2,-1
 683 888 l 1,3,-1
 731 1133 l 2,4,5
 748 1221 748 1221 750 1254 c 128,-1,6
 752 1287 752 1287 743 1303 c 0,7,8
 733 1324 733 1324 710 1336 c 0,9,10
 687 1347 687 1347 655 1347 c 0,11,12
 576 1347 576 1347 521 1295 c 0,13,14
 467 1243 467 1243 449 1152 c 2,15,-1
 384 821 l 1,16,-1
 134 821 l 1,17,-1
 315 1755 l 1,18,-1
 566 1755 l 1,19,-1
 496 1395 l 1,20,21
 564 1453 564 1453 633 1481 c 128,-1,22
 702 1509 702 1509 779 1509 c 0,23,24
 915 1509 915 1509 972 1438 c 0,25,26
 1010 1389 1010 1389 1010 1311 c 0,27,28
 1010 1274 1010 1274 1002 1230 c 2,0,-1
EndSplineSet
EndChar
StartChar: uni02B1
Encoding: 689 689 275
Width: 1020
VWidth: 2049
Flags: W
TeX: 117 0 0 0
HStem: 1347 162<615.5 847> 1629 104<529.5 660>
Fore
731 1133 m 18,0,1
 748 1221 748 1221 750 1254 c 128,-1,2
 752 1287 752 1287 743 1303 c 0,3,4
 733 1324 733 1324 710 1336 c 0,5,6
 687 1347 687 1347 655 1347 c 0,7,8
 576 1347 576 1347 521 1295 c 0,9,10
 467 1243 467 1243 449 1152 c 2,11,-1
 384 821 l 1,12,-1
 134 821 l 9,13,-1
 262 1483 l 22,14,15
 287 1608 287 1608 377 1670 c 4,16,17
 469 1733 469 1733 590 1733 c 28,18,19
 730 1733 730 1733 776 1681 c 13,20,-1
 697 1604 l 21,21,22
 671 1629 671 1629 633 1629 c 4,23,24
 593 1629 593 1629 563 1607 c 4,25,26
 533 1584 533 1584 526 1551 c 6,27,-1
 496 1395 l 5,28,29
 564 1453 564 1453 633 1481 c 128,-1,30
 702 1509 702 1509 779 1509 c 0,31,32
 915 1509 915 1509 972 1438 c 0,33,34
 1010 1389 1010 1389 1010 1311 c 0,35,36
 1010 1274 1010 1274 1002 1230 c 2,37,-1
 922 821 l 1,38,-1
 670 821 l 9,39,-1
 731 1133 l 18,0,1
EndSplineSet
EndChar
StartChar: uni02B2
Encoding: 690 690 276
Width: 491
VWidth: 2049
Flags: W
TeX: 117 0 0 0
HStem: 556 141<-58 110> 1473 20G<264 515> 1579 176<315 532>
Fore
264 1493 m 1,0,-1
 515 1493 l 1,1,-1
 387 833 l 2,2,3
 361 698 361 698 271 627 c 0,4,5
 182 556 182 556 38 556 c 2,6,-1
 -86 556 l 1,7,-1
 -58 697 l 1,8,-1
 -15 697 l 2,9,10
 56 697 56 697 88 724 c 0,11,12
 120 752 120 752 136 833 c 2,13,-1
 264 1493 l 1,0,-1
315 1755 m 1,14,-1
 566 1755 l 1,15,-1
 532 1579 l 1,16,-1
 281 1579 l 1,17,-1
 315 1755 l 1,14,-1
EndSplineSet
EndChar
StartChar: uni02B3
Encoding: 691 691 277
Width: 707
VWidth: 2049
Flags: W
TeX: 117 0 0 0
HStem: 1336 173<637 785.5>
Fore
811 1310 m 1,0,1
 781 1323 781 1323 750 1330 c 0,2,3
 718 1336 718 1336 685 1336 c 0,4,5
 589 1336 589 1336 526 1283 c 0,6,7
 464 1230 464 1230 445 1131 c 2,8,-1
 384 821 l 1,9,-1
 134 821 l 1,10,-1
 264 1493 l 1,11,-1
 515 1493 l 1,12,-1
 494 1383 l 1,13,14
 555 1449 555 1449 623 1479 c 0,15,16
 692 1509 692 1509 779 1509 c 0,17,18
 792 1509 792 1509 806 1508 c 0,19,20
 823 1507 823 1507 849 1504 c 1,21,-1
 811 1310 l 1,0,1
EndSplineSet
EndChar
StartChar: uni02B4
Encoding: 692 692 278
Width: 707
VWidth: 2049
Flags: W
TeX: 117 0 0 0
HStem: 804 174<83 231.5> 1473 20G<484 735>
Fore
57 1003 m 5,0,1
 84 992 84 992 119 984 c 4,2,3
 150 978 150 978 183 978 c 4,4,5
 280 978 280 978 343 1031 c 4,6,7
 405 1084 405 1084 424 1183 c 6,8,-1
 484 1493 l 5,9,-1
 735 1493 l 5,10,-1
 604 821 l 5,11,-1
 354 821 l 5,12,-1
 375 930 l 5,13,14
 306 856 306 856 245 834 c 4,15,16
 164 804 164 804 89 804 c 4,17,18
 77 804 77 804 62 805 c 4,19,20
 46 805 46 805 19 808 c 5,21,-1
 57 1003 l 5,0,1
EndSplineSet
EndChar
StartChar: uni02B5
Encoding: 693 693 279
Width: 707
VWidth: 2049
Flags: W
TeX: 117 0 0 0
HStem: 565 104<522.5 685> 804 174<83 231.5>
Fore
590 747 m 18,0,1
 583 714 583 714 604 691 c 0,2,3
 625 669 625 669 666 669 c 0,4,5
 704 669 704 669 740 694 c 9,6,-1
 789 618 l 17,7,8
 723 565 723 565 583 565 c 24,9,10
 462 565 462 565 395 628 c 0,11,12
 346 674 346 674 346 753 c 0,13,14
 346 782 346 782 353 816 c 2,15,-1
 375 930 l 1,16,17
 306 856 306 856 245 834 c 0,18,19
 156 801 156 801 89 804 c 0,20,21
 77 804 77 804 62 805 c 0,22,23
 46 805 46 805 19 808 c 1,24,-1
 57 1003 l 1,25,26
 84 992 84 992 119 984 c 0,27,28
 150 978 150 978 183 978 c 0,29,30
 280 978 280 978 343 1031 c 0,31,32
 405 1084 405 1084 424 1183 c 2,33,-1
 528 1717 l 1,34,-1
 778 1717 l 9,35,-1
 590 747 l 18,0,1
EndSplineSet
EndChar
StartChar: uni02B6
Encoding: 694 694 280
Width: 920
VWidth: 2049
Flags: W
TeX: 117 0 0 0
HStem: 821 131<338 490.5> 1115 133<369 456.5> 1473 20G<192 443 710 964>
Fore
425 1115 m 6,0,-1
 369 1115 l 5,1,-1
 338 952 l 5,2,-1
 393 952 l 6,3,4
 457 952 457 952 488 970 c 4,5,6
 519 990 519 990 528 1033 c 4,7,8
 530 1044 530 1044 530 1054 c 0,9,10
 530 1082 530 1082 512 1096 c 4,11,12
 488 1115 488 1115 425 1115 c 6,0,-1
395 1248 m 5,13,-1
 421 1248 l 6,14,15
 474 1248 474 1248 509 1266 c 4,16,17
 542 1284 542 1284 576 1326 c 6,18,-1
 710 1493 l 5,19,-1
 964 1493 l 5,20,-1
 810 1302 l 6,21,22
 763 1244 763 1244 723 1216 c 4,23,24
 682 1187 682 1187 637 1179 c 5,25,26
 713 1159 713 1159 745 1116 c 4,27,28
 767 1086 767 1086 767 1043 c 0,29,30
 767 1026 767 1026 763 1006 c 4,31,32
 745 910 745 910 659 865 c 4,33,34
 573 821 573 821 408 821 c 6,35,-1
 62 821 l 5,36,-1
 192 1493 l 5,37,-1
 443 1493 l 5,38,-1
 395 1248 l 5,13,-1
EndSplineSet
EndChar
StartChar: uni02B7
Encoding: 695 695 281
Width: 1324
VWidth: 2049
Flags: W
TeX: 117 0 0 0
HStem: 1473 20G<194 438 702 911 1175 1419>
Fore
194 1493 m 1,0,-1
 438 1493 l 1,1,-1
 480 1030 l 1,2,-1
 702 1493 l 1,3,-1
 911 1493 l 1,4,-1
 954 1035 l 1,5,-1
 1175 1493 l 1,6,-1
 1419 1493 l 1,7,-1
 1082 821 l 1,8,-1
 808 821 l 1,9,-1
 765 1283 l 1,10,-1
 544 821 l 1,11,-1
 270 821 l 1,12,-1
 194 1493 l 1,0,-1
EndSplineSet
EndChar
StartChar: uni02B8
Encoding: 696 696 282
Width: 934
VWidth: 2049
Flags: W
TeX: 117 0 0 0
HStem: 556 141<133 304.5> 1473 20G<162 412 802 1053>
Fore
162 1493 m 1,0,-1
 412 1493 l 1,1,-1
 534 1037 l 1,2,-1
 802 1493 l 1,3,-1
 1053 1493 l 1,4,-1
 580 757 l 1,5,6
 508 645 508 645 434 600 c 0,7,8
 359 556 359 556 250 556 c 2,9,-1
 105 556 l 1,10,-1
 133 697 l 1,11,-1
 211 697 l 2,12,13
 275 697 275 697 307 714 c 0,14,15
 340 732 340 732 365 777 c 1,16,-1
 375 795 l 1,17,-1
 162 1493 l 1,0,-1
EndSplineSet
EndChar
StartChar: uni02BB
Encoding: 699 699 285
Width: 778
Flags: W
TeX: 117 0 0 0
Fore
618 1262 m 5,0,-1
 347 1262 l 5,1,-1
 381 1434 l 5,2,-1
 607 1754 l 5,3,-1
 796 1754 l 5,4,-1
 652 1434 l 5,5,-1
 618 1262 l 5,0,-1
EndSplineSet
EndChar
StartChar: afii64937
Encoding: 701 701 287
Width: 778
Flags: W
TeX: 97 0 0 0
Fore
710 1754 m 5,0,-1
 677 1582 l 5,5,-1
 696 1262 l 5,4,-1
 507 1262 l 5,3,-1
 406 1582 l 5,2,-1
 439 1754 l 5,1,-1
 710 1754 l 5,0,-1
EndSplineSet
EndChar
StartChar: uni02BE
Encoding: 702 702 288
Width: 1024
Flags: W
TeX: 117 0 0 0
Fore
613 1819 m 17,0,1
 731 1819 731 1819 797 1736 c 0,2,3
 865 1652 865 1652 842 1534 c 128,-1,4
 819 1416 819 1416 719 1332 c 0,5,6
 620 1249 620 1249 502 1249 c 1,7,8
 516 1321 516 1321 532 1403 c 17,9,10
 587 1403 587 1403 632 1442 c 0,11,12
 678 1480 678 1480 688 1534 c 0,13,14
 699 1588 699 1588 667 1626 c 0,15,16
 637 1665 637 1665 583 1665 c 1,17,18
 594 1724 594 1724 613 1819 c 17,0,1
EndSplineSet
EndChar
StartChar: uni02BF
Encoding: 703 703 289
Width: 1024
Flags: W
TeX: 117 0 0 0
Fore
898 1819 m 9,0,1
 879 1724 879 1724 868 1665 c 1,16,17
 814 1665 814 1665 768 1626 c 0,14,15
 722 1588 722 1588 711 1534 c 0,16,17
 701 1480 701 1480 731 1442 c 0,11,12
 762 1403 762 1403 817 1403 c 9,9,10
 801 1321 801 1321 787 1249 c 1,7,8
 669 1249 669 1249 602 1332 c 0,5,6
 534 1416 534 1416 557 1534 c 128,-1,4
 580 1652 580 1652 680 1736 c 0,2,3
 780 1819 780 1819 898 1819 c 9,0,1
EndSplineSet
EndChar
StartChar: uni02C0
Encoding: 704 704 290
Width: 1024
Flags: W
TeX: 117 0 0 0
Fore
517 1575 m 5,0,1
 401 1575 l 5,27,-1
 421 1678 421 1678 514 1748 c 4,25,26
 608 1819 608 1819 720 1819 c 4,23,24
 834 1819 834 1819 898 1748 c 4,21,22
 963 1676 963 1676 943 1575 c 4,19,20
 924 1474 924 1474 831 1402 c 4,17,18
 773 1357 773 1357 712 1339 c 13,15,16
 696 1262 l 5,14,-1
 526 1262 l 5,13,-1
 554 1427 l 29,12,-1
 623 1427 l 6,11,-1
 682 1427 682 1427 728 1463 c 4,9,10
 775 1500 775 1500 784 1551 c 132,-1,8
 794 1602 794 1602 762 1638 c 4,6,7
 729 1674 729 1674 671 1674 c 4,4,5
 612 1674 612 1674 567 1638 c 4,2,3
 530 1609 530 1609 517 1575 c 5,0,1
EndSplineSet
EndChar
StartChar: uni02C1
Encoding: 705 705 291
Width: 1024
Flags: W
TeX: 117 0 0 0
Fore
828 1575 m 1,0,1
 829 1609 829 1609 802 1638 c 0,2,3
 771 1674 771 1674 712 1674 c 0,4,5
 654 1674 654 1674 607 1638 c 0,6,7
 561 1602 561 1602 552 1551 c 0,8,9
 549 1539 549 1539 549 1528 c 0,10,11
 549 1491 549 1491 573 1463 c 0,12,13
 605 1427 605 1427 664 1427 c 2,14,-1
 733 1427 l 25,15,-1
 697 1262 l 1,16,-1
 527 1262 l 1,17,-1
 541 1339 l 17,18,19
 488 1357 488 1357 448 1402 c 0,20,21
 398 1457 398 1457 398 1530 c 0,22,23
 398 1552 398 1552 402 1575 c 0,24,25
 422 1676 422 1676 515 1748 c 0,26,27
 607 1819 607 1819 721 1819 c 0,28,29
 833 1819 833 1819 899 1748 c 0,30,31
 949 1694 949 1694 949 1621 c 0,32,33
 949 1599 949 1599 944 1575 c 1,34,-1
 828 1575 l 1,0,1
EndSplineSet
EndChar
StartChar: uni02C2
Encoding: 706 706 292
Width: 1024
Flags: W
TeX: 117 0 0 0
Fore
411 1482 m 1,0,-1
 949 1727 l 1,6,-1
 916 1558 l 1,5,-1
 559 1394 l 1,4,-1
 852 1229 l 1,3,-1
 819 1058 l 1,2,-1
 377 1303 l 1,1,-1
 411 1482 l 1,0,-1
EndSplineSet
EndChar
StartChar: uni02C3
Encoding: 707 707 293
Width: 1024
Flags: W
TeX: 117 0 0 0
Fore
901 1482 m 1,0,-1
 867 1303 l 1,1,-1
 329 1058 l 1,2,-1
 362 1229 l 1,3,-1
 719 1394 l 1,4,-1
 426 1558 l 1,5,-1
 459 1727 l 1,6,-1
 901 1482 l 1,0,-1
EndSplineSet
EndChar
StartChar: uni02C4
Encoding: 708 708 294
Width: 1024
Flags: W
TeX: 117 0 0 0
Fore
501 1148 m 1,0,-1
 353 1638 l 1,1,-1
 521 1638 l 1,2,-1
 621 1312 l 1,3,-1
 851 1638 l 1,4,-1
 1021 1638 l 1,5,-1
 681 1148 l 1,6,-1
 501 1148 l 1,0,-1
EndSplineSet
EndChar
StartChar: uni02C5
Encoding: 709 709 295
Width: 1024
Flags: W
TeX: 117 0 0 0
Fore
777 1638 m 1,0,-1
 925 1148 l 1,6,-1
 757 1148 l 1,5,-1
 656 1472 l 1,4,-1
 427 1148 l 1,3,-1
 257 1148 l 1,2,-1
 597 1638 l 1,1,-1
 777 1638 l 1,0,-1
EndSplineSet
EndChar
StartChar: uni02C8
Encoding: 712 712 296
Width: 1024
Flags: W
TeX: 117 0 0 0
Fore
581 1638 m 1,0,-1
 791 1638 l 1,1,-1
 718 1262 l 1,2,-1
 508 1262 l 1,3,-1
 581 1638 l 1,0,-1
EndSplineSet
EndChar
StartChar: uni02CE
Encoding: 718 718 302
Width: 1024
Flags: W
TeX: 117 0 0 0
Fore
149 -69 m 1,0,-1
 570 -316 l 1,1,-1
 482 -446 l 1,2,-1
 30 -245 l 1,3,-1
 149 -69 l 1,0,-1
EndSplineSet
EndChar
StartChar: uni02CF
Encoding: 719 719 303
Width: 1024
Flags: W
TeX: 117 0 0 0
Fore
594 -69 m 1,0,-1
 643 -245 l 1,1,-1
 113 -446 l 1,2,-1
 77 -316 l 1,3,-1
 594 -69 l 1,0,-1
EndSplineSet
EndChar
StartChar: uni02D0
Encoding: 720 720 304
Width: 690
Flags: W
TeX: 117 0 0 0
HStem: 0 21G<43 420>
Fore
369 709 m 5,0,-1
 249 1059 l 1,1,-1
 626 1059 l 1,2,-1
 369 709 l 5,0,-1
299 350 m 1,3,-1
 420 0 l 1,4,-1
 43 0 l 1,5,-1
 299 350 l 1,3,-1
EndSplineSet
EndChar
StartChar: uni02D1
Encoding: 721 721 305
Width: 690
Flags: W
TeX: 117 0 0 0
Fore
369 709 m 5,0,-1
 249 1059 l 1,1,-1
 626 1059 l 1,2,-1
 369 709 l 5,0,-1
EndSplineSet
EndChar
StartChar: uni02D3
Encoding: 723 723 307
Width: 1024
Flags: W
TeX: 117 0 0 0
Fore
460 -50 m 13,0,1
 442 -145 442 -145 430 -204 c 5,17,18
 376 -204 376 -204 331 -243 c 4,15,16
 284 -281 284 -281 274 -335 c 4,13,14
 263 -389 263 -389 294 -427 c 4,11,12
 324 -466 324 -466 379 -466 c 13,9,10
 363 -548 363 -548 349 -620 c 5,7,8
 231 -620 231 -620 165 -537 c 4,5,6
 97 -453 97 -453 120 -335 c 132,-1,4
 143 -217 143 -217 243 -133 c 4,2,3
 342 -50 342 -50 460 -50 c 13,0,1
EndSplineSet
EndChar
StartChar: uni02D4
Encoding: 724 724 308
Width: 1024
Flags: W
TeX: 117 0 0 0
Fore
531 -312 m 5,0,-1
 496 -492 l 5,1,-1
 46 -492 l 5,2,-1
 81 -312 l 5,3,-1
 216 -312 l 5,4,-1
 269 -42 l 5,5,-1
 449 -42 l 5,6,-1
 396 -312 l 5,7,-1
 531 -312 l 5,0,-1
EndSplineSet
EndChar
StartChar: uni02D5
Encoding: 725 725 309
Width: 1024
Flags: W
TeX: 117 0 0 0
Fore
105 -222 m 5,0,-1
 140 -42 l 5,1,-1
 590 -42 l 5,2,-1
 555 -222 l 5,3,-1
 420 -222 l 5,4,-1
 367 -492 l 5,5,-1
 187 -492 l 5,6,-1
 240 -222 l 5,7,-1
 105 -222 l 5,0,-1
EndSplineSet
EndChar
StartChar: uni02D6
Encoding: 726 726 310
Width: 1024
Flags: W
TeX: 117 0 0 0
Fore
527 -357 m 21,0,-1
 392 -357 l 5,1,-1
 365 -492 l 5,2,-1
 185 -492 l 5,3,-1
 212 -357 l 5,4,-1
 77 -357 l 5,5,-1
 112 -177 l 5,6,-1
 247 -177 l 5,7,-1
 273 -42 l 5,8,-1
 453 -42 l 5,9,-1
 427 -177 l 5,10,-1
 562 -177 l 13,11,-1
 527 -357 l 21,0,-1
EndSplineSet
EndChar
StartChar: uni02D7
Encoding: 727 727 311
Width: 1024
Flags: W
TeX: 117 0 0 0
Fore
527 -357 m 29,0,-1
 77 -357 l 21,1,-1
 112 -177 l 5,2,-1
 562 -177 l 13,3,-1
 527 -357 l 29,0,-1
EndSplineSet
EndChar
StartChar: uni02DE
Encoding: 734 734 312
Width: 608
Flags: W
TeX: 117 0 0 0
Fore
168 843 m 9,0,-1
 -152 657 l 25,1,-1
 -181 840 l 25,2,-1
 421 1188 l 9,3,-1
 475 1007 l 9,4,5
 415 976 415 976 397 885 c 0,6,7
 394 870 394 870 394 857 c 0,8,9
 394 823 394 823 412 799 c 0,10,11
 437 763 437 763 483 763 c 128,-1,12
 529 763 529 763 577 807 c 9,13,-1
 656 656 l 17,14,15
 564 572 564 572 441 572 c 4,16,17
 297 572 297 572 228 659 c 0,18,19
 192 704 192 704 178 753 c 0,20,21
 166 795 166 795 168 843 c 9,0,-1
EndSplineSet
EndChar
StartChar: uni02DF
Encoding: 735 735 313
Width: 1024
Flags: W
TeX: 117 0 0 0
Fore
698 1262 m 5,0,-1
 633 1349 l 5,1,-1
 533 1262 l 5,2,-1
 333 1262 l 5,3,-1
 551 1449 l 5,4,-1
 406 1638 l 5,5,-1
 606 1638 l 5,6,-1
 673 1552 l 5,7,-1
 771 1638 l 5,8,-1
 971 1638 l 5,9,-1
 753 1449 l 5,10,-1
 898 1262 l 5,11,-1
 698 1262 l 5,0,-1
EndSplineSet
EndChar
StartChar: uni02E0
Encoding: 736 736 314
Width: 931
VWidth: 2049
Flags: W
TeX: 117 0 0 0
HStem: 565 126<319.5 560.5> 1473 20G<207 457 768 1018>
VStem: 207 189<642.5 737.5> 536 195<754.5 831>
Fore
493 882 m 1,0,1
 403 780 403 780 397 749 c 0,2,3
 396 741 396 741 396 734 c 0,4,5
 396 691 396 691 456 691 c 8,6,7
 524 691 524 691 535 749 c 0,8,9
 536 752 536 752 536 757 c 0,10,11
 536 791 536 791 493 882 c 1,0,1
652 1050 m 1,12,13
 731 870 731 870 731 792 c 0,14,15
 731 780 731 780 729 771 c 0,16,17
 689 565 689 565 432 565 c 16,18,19
 207 565 207 565 207 720 c 0,20,21
 207 743 207 743 213 771 c 0,22,23
 226 840 226 840 400 1051 c 1,24,-1
 207 1493 l 1,25,-1
 457 1493 l 1,26,-1
 564 1247 l 1,27,-1
 768 1493 l 1,28,-1
 1018 1493 l 1,29,-1
 652 1050 l 1,12,13
EndSplineSet
EndChar
StartChar: uni02E1
Encoding: 737 737 315
Width: 491
VWidth: 2049
Flags: W
TeX: 117 0 0 0
Fore
315 1755 m 1,0,-1
 566 1755 l 1,1,-1
 384 821 l 1,2,-1
 133 821 l 1,3,-1
 315 1755 l 1,0,-1
EndSplineSet
EndChar
StartChar: uni02E2
Encoding: 738 738 316
Width: 853
VWidth: 2049
Flags: W
TeX: 117 0 0 0
HStem: 804 142<388.5 519> 1366 143<480 603>
Fore
873 1472 m 1,0,-1
 841 1309 l 1,1,2
 766 1338 766 1338 695 1352 c 0,3,4
 622 1366 622 1366 555 1366 c 0,5,6
 484 1366 484 1366 446 1351 c 0,7,8
 409 1336 409 1336 402 1304 c 0,9,10
 397 1278 397 1278 422 1264 c 0,11,12
 445 1251 445 1251 512 1244 c 1,13,-1
 555 1239 l 2,14,15
 743 1218 743 1218 800 1170 c 0,16,17
 842 1135 842 1135 842 1069 c 0,18,19
 842 1046 842 1046 837 1019 c 0,20,21
 816 912 816 912 714 858 c 0,22,23
 611 804 611 804 427 804 c 0,24,25
 350 804 350 804 269 814 c 0,26,27
 188 825 188 825 104 846 c 1,28,-1
 136 1009 l 1,29,30
 205 978 205 978 281 962 c 0,31,32
 356 946 356 946 438 946 c 0,33,34
 511 946 511 946 551 964 c 0,35,36
 592 981 592 981 598 1015 c 0,37,38
 604 1044 604 1044 581 1058 c 128,-1,39
 558 1072 558 1072 484 1080 c 2,40,-1
 441 1085 l 2,41,42
 277 1103 277 1103 219 1152 c 0,43,44
 176 1188 176 1188 176 1253 c 0,45,46
 176 1274 176 1274 180 1299 c 0,47,48
 201 1406 201 1406 297 1458 c 0,49,50
 392 1509 392 1509 568 1509 c 0,51,52
 638 1509 638 1509 712 1500 c 0,53,54
 787 1491 787 1491 873 1472 c 1,0,-1
EndSplineSet
EndChar
StartChar: uni02E3
Encoding: 739 739 317
Width: 924
VWidth: 2049
Flags: W
TeX: 117 0 0 0
HStem: 1473 20G<180 445 768 1033>
Fore
398 1165 m 1,0,-1
 180 1493 l 1,1,-1
 445 1493 l 1,2,-1
 566 1294 l 1,3,-1
 768 1493 l 1,4,-1
 1033 1493 l 1,5,-1
 686 1166 l 1,6,-1
 916 821 l 1,7,-1
 651 821 l 1,8,-1
 516 1033 l 1,9,-1
 300 821 l 1,10,-1
 35 821 l 1,11,-1
 398 1165 l 1,0,-1
EndSplineSet
EndChar
StartChar: uni02E4
Encoding: 740 740 318
Width: 831
VWidth: 2049
Flags: W
TeX: 117 0 0 0
HStem: 1575 158<548.5 666.5>
Fore
348 821 m 5,0,-1
 412 1150 l 6,40,-1
 418 1177 418 1177 408 1200 c 4,38,39
 396 1224 396 1224 357 1260 c 6,36,37
 319 1294 l 5,35,-1
 264 1347 264 1347 245 1393 c 4,33,34
 234 1422 234 1422 234 1455 c 0,31,32
 234 1476 234 1476 238 1499 c 4,29,30
 261 1614 261 1614 362 1673 c 4,27,28
 463 1733 463 1733 634 1733 c 4,25,26
 699 1733 699 1733 766 1721 c 4,23,24
 834 1709 834 1709 914 1684 c 5,21,22
 877 1495 l 5,20,-1
 814 1535 814 1535 752 1555 c 132,-1,19
 690 1575 690 1575 633 1575 c 4,17,18
 573 1575 573 1575 535 1552 c 4,15,16
 497 1528 497 1528 489 1486 c 4,13,14
 483 1458 483 1458 496 1431 c 4,11,12
 509 1402 509 1402 544 1372 c 6,9,10
 582 1337 l 6,8,-1
 643 1281 643 1281 660 1240 c 4,6,7
 670 1216 670 1216 670 1189 c 0,4,5
 670 1172 670 1172 666 1153 c 6,2,3
 601 821 l 5,1,-1
 348 821 l 5,0,-1
EndSplineSet
EndChar
StartChar: uni02E5
Encoding: 741 741 319
Width: 899
Flags: W
TeX: 117 0 0 0
HStem: 0 21G<402 587> 1308 185<345 877>
Fore
587 0 m 9,0,-1
 402 0 l 17,1,-1
 656 1308 l 5,2,-1
 309 1308 l 5,3,-1
 345 1493 l 1,4,-1
 877 1493 l 1,5,-1
 587 0 l 9,0,-1
EndSplineSet
EndChar
StartChar: uni02E6
Encoding: 742 742 320
Width: 899
Flags: W
TeX: 117 0 0 0
HStem: 0 21G<402 587> 986 185<282 632> 1473 20G<695 877>
Fore
632 1171 m 25,0,-1
 695 1493 l 25,1,-1
 877 1493 l 5,2,-1
 587 0 l 13,3,-1
 402 0 l 17,4,-1
 593 986 l 1,5,-1
 246 986 l 1,6,-1
 282 1171 l 1,7,-1
 632 1171 l 25,0,-1
EndSplineSet
EndChar
StartChar: uni02E7
Encoding: 743 743 321
Width: 899
Flags: W
TeX: 117 0 0 0
HStem: 0 21G<402 587> 654 185<218 568> 1473 20G<695 877>
Fore
568 839 m 25,0,-1
 695 1493 l 25,1,-1
 877 1493 l 5,2,-1
 587 0 l 13,3,-1
 402 0 l 17,4,-1
 529 654 l 1,5,-1
 182 654 l 1,6,-1
 218 839 l 1,7,-1
 568 839 l 25,0,-1
EndSplineSet
EndChar
StartChar: uni02E8
Encoding: 744 744 322
Width: 899
Flags: W
TeX: 117 0 0 0
HStem: 0 21G<402 587> 322 185<153 503> 1473 20G<695 877>
Fore
503 507 m 25,0,-1
 695 1493 l 25,1,-1
 877 1493 l 5,2,-1
 587 0 l 13,3,-1
 402 0 l 17,4,-1
 464 322 l 1,5,-1
 117 322 l 1,6,-1
 153 507 l 1,7,-1
 503 507 l 25,0,-1
EndSplineSet
EndChar
StartChar: uni02E9
Encoding: 745 745 323
Width: 899
Flags: W
TeX: 117 0 0 0
HStem: 0 185<91 587> 1473 20G<692 877>
Fore
877 1493 m 21,0,-1
 587 0 l 5,1,-1
 55 0 l 1,2,-1
 91 185 l 1,3,-1
 438 185 l 1,4,-1
 692 1493 l 9,5,-1
 877 1493 l 21,0,-1
EndSplineSet
EndChar
StartChar: uni02EE
Encoding: 750 750 326
Width: 1024
Flags: W
TeX: 117 0 0 0
Fore
420 1638 m 5,0,-1
 630 1638 l 5,1,-1
 557 1262 l 5,2,-1
 347 1262 l 5,3,-1
 420 1638 l 5,0,-1
740 1638 m 5,4,-1
 950 1638 l 5,5,-1
 877 1262 l 5,6,-1
 667 1262 l 5,7,-1
 740 1638 l 5,4,-1
EndSplineSet
EndChar
StartChar: uni0305
Encoding: 773 773 332
Width: 0
Flags: W
TeX: 117 0 0 0
HStem: 1368 188<-1340 -67>
AnchorPoint: "Top" -594 1120 mark 0
AnchorPoint: "TopMkMk" -575 1220 mark 0
AnchorPoint: "TopMkMk" -494 1638 basemark 0
Fore
-1148 1556 m 1,0,-1
 125 1556 l 1,1,-1
 89 1368 l 1,2,-1
 -1184 1368 l 1,3,-1
 -1148 1556 l 1,0,-1
EndSplineSet
EndChar
StartChar: hookabovecomb
Encoding: 777 777 336
Width: 0
Flags: W
TeX: 104 0 0 0
AnchorPoint: "Top" -594 1120 mark 0
AnchorPoint: "TopMkMk" -575 1220 mark 0
AnchorPoint: "TopMkMk" -494 1638 basemark 0
Fore
-663 1575 m 1,0,1
 -779 1575 l 1,27,-1
 -759 1678 -759 1678 -666 1748 c 0,25,26
 -572 1819 -572 1819 -460 1819 c 0,23,24
 -346 1819 -346 1819 -282 1748 c 0,21,22
 -217 1676 -217 1676 -237 1575 c 0,19,20
 -256 1474 -256 1474 -349 1402 c 0,17,18
 -407 1357 -407 1357 -468 1339 c 9,15,16
 -484 1262 l 1,14,-1
 -654 1262 l 1,13,-1
 -626 1427 l 25,12,-1
 -557 1427 l 2,11,-1
 -498 1427 -498 1427 -452 1463 c 0,9,10
 -405 1500 -405 1500 -396 1551 c 128,-1,8
 -386 1602 -386 1602 -418 1638 c 0,6,7
 -451 1674 -451 1674 -509 1674 c 0,4,5
 -568 1674 -568 1674 -613 1638 c 0,2,3
 -650 1609 -650 1609 -663 1575 c 1,0,1
EndSplineSet
EndChar
StartChar: uni030D
Encoding: 781 781 340
Width: 0
Flags: W
TeX: 117 0 0 0
AnchorPoint: "Top" -594 1120 mark 0
AnchorPoint: "TopMkMk" -575 1220 mark 0
AnchorPoint: "TopMkMk" -494 1638 basemark 0
Fore
-600 1638 m 1,0,-1
 -390 1638 l 1,1,-1
 -463 1262 l 1,2,-1
 -673 1262 l 1,3,-1
 -600 1638 l 1,0,-1
EndSplineSet
EndChar
StartChar: uni030E
Encoding: 782 782 341
Width: 0
Flags: W
TeX: 117 0 0 0
AnchorPoint: "Top" -594 1120 mark 0
AnchorPoint: "TopMkMk" -575 1220 mark 0
AnchorPoint: "TopMkMk" -494 1638 basemark 0
Fore
-760 1638 m 1,0,-1
 -550 1638 l 1,1,-1
 -623 1262 l 1,2,-1
 -833 1262 l 1,3,-1
 -760 1638 l 1,0,-1
-440 1638 m 1,4,-1
 -230 1638 l 1,5,-1
 -303 1262 l 1,6,-1
 -513 1262 l 1,7,-1
 -440 1638 l 1,4,-1
EndSplineSet
EndChar
StartChar: uni030F
Encoding: 783 783 342
Width: 0
Flags: W
TeX: 117 0 0 0
AnchorPoint: "Top" -594 1120 mark 0
AnchorPoint: "TopMkMk" -575 1220 mark 0
AnchorPoint: "TopMkMk" -494 1638 basemark 0
Fore
-370 1638 m 1,0,-1
 -249 1262 l 1,3,-1
 -412 1262 l 1,2,-1
 -587 1638 l 1,1,-1
 -370 1638 l 1,0,-1
-733 1638 m 1,4,-1
 -591 1262 l 1,7,-1
 -765 1262 l 1,6,-1
 -964 1638 l 1,5,-1
 -733 1638 l 1,4,-1
EndSplineSet
EndChar
StartChar: uni0318
Encoding: 792 792 351
Width: 0
Flags: W
TeX: 117 0 0 0
HStem: -357 180<-1072 -787>
AnchorPoint: "Bottom" -812 0 mark 0
AnchorPoint: "BottomMkMk" -908 -493 basemark 0
AnchorPoint: "BottomMkMk" -812 0 mark 0
Fore
-761 -42 m 1,0,-1
 -581 -42 l 1,1,-1
 -669 -492 l 1,2,-1
 -849 -492 l 1,3,-1
 -822 -357 l 1,4,-1
 -1107 -357 l 1,5,-1
 -1072 -177 l 1,6,-1
 -787 -177 l 1,7,-1
 -761 -42 l 1,0,-1
EndSplineSet
EndChar
StartChar: uni0319
Encoding: 793 793 352
Width: 0
Flags: W
TeX: 117 0 0 0
HStem: -357 180<-942 -657>
AnchorPoint: "Bottom" -812 0 mark 0
AnchorPoint: "BottomMkMk" -908 -493 basemark 0
AnchorPoint: "BottomMkMk" -812 0 mark 0
Fore
-881 -42 m 1,0,-1
 -907 -177 l 1,1,-1
 -622 -177 l 1,2,-1
 -657 -357 l 1,3,-1
 -942 -357 l 1,4,-1
 -969 -492 l 1,5,-1
 -1149 -492 l 1,6,-1
 -1061 -42 l 1,7,-1
 -881 -42 l 1,0,-1
EndSplineSet
EndChar
StartChar: uni031A
Encoding: 794 794 353
Width: 0
Flags: W
TeX: 117 0 0 0
HStem: 1458 180<-824 -168>
AnchorPoint: "Top" -594 1120 mark 0
AnchorPoint: "TopMkMk" -575 1220 mark 0
AnchorPoint: "TopMkMk" -494 1638 basemark 0
Fore
-168 1638 m 1,0,-1
 -241 1262 l 1,1,-1
 -421 1262 l 1,2,-1
 -383 1458 l 1,3,-1
 -859 1458 l 1,4,-1
 -824 1638 l 1,5,-1
 -168 1638 l 1,0,-1
EndSplineSet
EndChar
StartChar: uni031B
Encoding: 795 795 354
Width: 141
Flags: W
TeX: 117 0 0 0
AnchorPoint: "Horn" -13 1001 mark 0
Fore
-84 1045 m 25,12,-1
 -1 1045 l 2,11,-1
 77 1045 77 1045 138 1093 c 0,9,10
 201 1141 201 1141 214 1209 c 128,-1,8
 227 1277 227 1277 183 1324 c 9,6,7
 329 1415 l 17,21,22
 401 1336 401 1336 379 1226 c 0,19,20
 358 1115 358 1115 256 1037 c 0,17,18
 187 984 187 984 111 968 c 0,15,16
 55 955 55 955 -101 955 c 9,0,0
 -84 1045 l 25,12,-1
EndSplineSet
EndChar
StartChar: uni031C
Encoding: 796 796 355
Width: 0
Flags: W
TeX: 117 0 0 0
AnchorPoint: "Bottom" -812 0 mark 0
AnchorPoint: "BottomMkMk" -908 -493 basemark 0
AnchorPoint: "BottomMkMk" -812 0 mark 0
Fore
-681 -50 m 9,0,1
 -699 -145 -699 -145 -711 -204 c 1,17,18
 -765 -204 -765 -204 -810 -243 c 0,15,16
 -857 -281 -857 -281 -867 -335 c 0,13,14
 -878 -389 -878 -389 -847 -427 c 0,11,12
 -817 -466 -817 -466 -762 -466 c 9,9,10
 -778 -548 -778 -548 -792 -620 c 1,7,8
 -910 -620 -910 -620 -976 -537 c 0,5,6
 -1044 -453 -1044 -453 -1021 -335 c 128,-1,4
 -998 -217 -998 -217 -898 -133 c 0,2,3
 -799 -50 -799 -50 -681 -50 c 9,0,1
EndSplineSet
EndChar
StartChar: uni031D
Encoding: 797 797 356
Width: 0
Flags: W
TeX: 117 0 0 0
HStem: -492 180<-1134 -684>
AnchorPoint: "Bottom" -812 0 mark 0
AnchorPoint: "BottomMkMk" -908 -493 basemark 0
AnchorPoint: "BottomMkMk" -812 0 mark 0
Fore
-649 -312 m 1,0,-1
 -684 -492 l 1,1,-1
 -1134 -492 l 1,2,-1
 -1099 -312 l 1,3,-1
 -964 -312 l 1,4,-1
 -911 -42 l 1,5,-1
 -731 -42 l 1,6,-1
 -784 -312 l 1,7,-1
 -649 -312 l 1,0,-1
EndSplineSet
EndChar
StartChar: uni031E
Encoding: 798 798 357
Width: 0
Flags: W
TeX: 117 0 0 0
HStem: -222 180<-1046 -596>
AnchorPoint: "Bottom" -812 0 mark 0
AnchorPoint: "BottomMkMk" -908 -493 basemark 0
AnchorPoint: "BottomMkMk" -812 0 mark 0
Fore
-1081 -222 m 1,0,-1
 -1046 -42 l 1,1,-1
 -596 -42 l 1,2,-1
 -631 -222 l 1,3,-1
 -766 -222 l 1,4,-1
 -819 -492 l 1,5,-1
 -999 -492 l 1,6,-1
 -946 -222 l 1,7,-1
 -1081 -222 l 1,0,-1
EndSplineSet
EndChar
StartChar: uni031F
Encoding: 799 799 358
Width: 0
Flags: W
TeX: 117 0 0 0
HStem: -357 180<-1072 -937 -757 -657>
AnchorPoint: "Bottom" -812 0 mark 0
AnchorPoint: "BottomMkMk" -908 -493 basemark 0
AnchorPoint: "BottomMkMk" -812 0 mark 0
Fore
-657 -357 m 17,0,-1
 -792 -357 l 1,1,-1
 -819 -492 l 1,2,-1
 -999 -492 l 1,3,-1
 -972 -357 l 1,4,-1
 -1107 -357 l 1,5,-1
 -1072 -177 l 1,6,-1
 -937 -177 l 1,7,-1
 -911 -42 l 1,8,-1
 -731 -42 l 1,9,-1
 -757 -177 l 1,10,-1
 -622 -177 l 9,11,-1
 -657 -357 l 17,0,-1
EndSplineSet
EndChar
StartChar: uni0320
Encoding: 800 800 359
Width: 0
Flags: W
TeX: 117 0 0 0
HStem: -357 180<-1072 -657>
AnchorPoint: "Bottom" -812 0 mark 0
AnchorPoint: "BottomMkMk" -908 -493 basemark 0
AnchorPoint: "BottomMkMk" -812 0 mark 0
Fore
-657 -357 m 25,0,-1
 -1107 -357 l 17,1,-1
 -1072 -177 l 1,2,-1
 -622 -177 l 9,3,-1
 -657 -357 l 25,0,-1
EndSplineSet
EndChar
StartChar: uni0321
Encoding: 801 801 360
Width: 0
Flags: W
TeX: 117 0 0 0
HStem: -426 173<-797 -611.5>
Fore
-135 420 m 29,0,-1
 -219 -9 l 2,1,2
 -259 -218 -259 -218 -391 -321 c 0,3,4
 -526 -426 -526 -426 -697 -426 c 24,5,6
 -897 -426 -897 -426 -959 -339 c 9,7,-1
 -843 -211 l 17,8,9
 -807 -253 -807 -253 -753 -253 c 0,10,11
 -696 -253 -696 -253 -653 -216 c 0,12,13
 -610 -178 -610 -178 -599 -123 c 2,14,-1
 -493 420 l 29,15,-1
 -135 420 l 29,0,-1
EndSplineSet
EndChar
StartChar: uni0322
Encoding: 802 802 361
Width: 0
Flags: W
TeX: 117 0 0 0
HStem: -427 173<-346.5 -110>
Fore
-493 420 m 25,0,-1
 -135 420 l 25,19,-1
 -241 -124 l 2,18,-1
 -244 -139 -244 -139 -244 -153 c 0,16,17
 -244 -189 -244 -189 -223 -217 c 0,14,15
 -194 -254 -194 -254 -137 -254 c 0,12,13
 -83 -254 -83 -254 -31 -212 c 9,10,11
 35 -340 l 17,9,-1
 -62 -426 -62 -426 -261 -426 c 0,7,8
 -434 -426 -434 -426 -525 -322 c 0,5,6
 -589 -249 -589 -249 -589 -128 c 0,3,4
 -589 -71 -589 -71 -577 -10 c 2,1,2
 -493 420 l 25,0,-1
EndSplineSet
EndChar
StartChar: uni0326
Encoding: 806 806 365
Width: 0
Flags: W
TeX: 117 0 0 0
AnchorPoint: "Bottom" -812 0 mark 0
AnchorPoint: "BottomMkMk" -908 -493 basemark 0
AnchorPoint: "BottomMkMk" -812 0 mark 0
Fore
-972 -124 m 1,0,-1
 -701 -124 l 1,1,-1
 -723 -238 l 1,2,-1
 -937 -492 l 1,3,-1
 -1126 -492 l 1,4,-1
 -994 -238 l 1,5,-1
 -972 -124 l 1,0,-1
EndSplineSet
EndChar
StartChar: uni032A
Encoding: 810 810 369
Width: 0
Flags: W
TeX: 117 0 0 0
HStem: -417 300<-1150 -580> -297 180<-1005 -522>
AnchorPoint: "Bottom" -812 0 mark 0
AnchorPoint: "BottomMkMk" -908 -493 basemark 0
AnchorPoint: "BottomMkMk" -812 0 mark 0
Fore
-580 -417 m 1,0,-1
 -760 -417 l 1,1,-1
 -737 -297 l 1,2,-1
 -1005 -297 l 1,3,-1
 -1028 -417 l 1,4,-1
 -1208 -417 l 1,5,-1
 -1150 -117 l 1,6,-1
 -522 -117 l 1,7,-1
 -580 -417 l 1,0,-1
EndSplineSet
EndChar
StartChar: uni032B
Encoding: 811 811 370
Width: 0
Flags: W
TeX: 117 0 0 0
AnchorPoint: "Bottom" -812 0 mark 0
AnchorPoint: "BottomMkMk" -908 -493 basemark 0
AnchorPoint: "BottomMkMk" -812 0 mark 0
Fore
-764 -130 m 17,0,1
 -775 -187 -775 -187 -743 -227 c 0,2,3
 -712 -266 -712 -266 -672 -266 c 128,-1,4
 -632 -266 -632 -266 -585 -227 c 0,5,6
 -537 -187 -537 -187 -526 -130 c 9,7,-1
 -369 -130 l 17,8,9
 -392 -248 -392 -248 -493 -334 c 0,10,11
 -591 -418 -591 -418 -691 -418 c 0,12,13
 -777 -418 -777 -418 -858 -334 c 0,14,15
 -876 -315 -876 -315 -874 -313 c 1,16,17
 -885 -323 -885 -323 -898 -334 c 0,18,19
 -996 -418 -996 -418 -1097 -418 c 0,20,21
 -1195 -418 -1195 -418 -1263 -334 c 128,-1,22
 -1331 -250 -1331 -250 -1307 -130 c 9,23,-1
 -1150 -130 l 17,24,25
 -1161 -187 -1161 -187 -1129 -227 c 0,26,27
 -1098 -266 -1098 -266 -1058 -266 c 128,-1,28
 -1018 -266 -1018 -266 -971 -227 c 0,29,30
 -923 -187 -923 -187 -912 -130 c 9,31,-1
 -764 -130 l 17,0,1
EndSplineSet
EndChar
StartChar: uni0337
Encoding: 823 823 382
Width: 0
Flags: W
TeX: 117 0 0 0
Fore
-1346 -102 m 21,0,-1
 -1442 10 l 1,1,-1
 -70 1223 l 1,2,-1
 27 1112 l 9,3,-1
 -1346 -102 l 21,0,-1
EndSplineSet
EndChar
StartChar: uni0338
Encoding: 824 824 383
Width: 0
Flags: W
TeX: 117 0 0 0
Fore
-1735 -78 m 17,0,-1
 -1837 45 l 5,1,-1
 -8 1579 l 1,2,-1
 94 1456 l 9,3,-1
 -1735 -78 l 17,0,-1
EndSplineSet
EndChar
StartChar: uni033A
Encoding: 826 826 385
Width: 0
Flags: W
TeX: 117 0 0 0
HStem: -417 180<-1208 -725> -417 300<-1150 -580 -702 -580>
AnchorPoint: "Bottom" -812 0 mark 0
AnchorPoint: "BottomMkMk" -908 -493 basemark 0
AnchorPoint: "BottomMkMk" -812 0 mark 0
Fore
-522 -117 m 1,0,-1
 -580 -417 l 1,1,-1
 -1208 -417 l 1,2,-1
 -1150 -117 l 1,3,-1
 -970 -117 l 1,4,-1
 -993 -237 l 1,5,-1
 -725 -237 l 1,6,-1
 -702 -117 l 1,7,-1
 -522 -117 l 1,0,-1
EndSplineSet
EndChar
StartChar: uni033B
Encoding: 827 827 386
Width: 0
Flags: W
TeX: 117 0 0 0
HStem: -492 165<-1149 -669> -207 165<-1061 -581>
AnchorPoint: "Bottom" -812 0 mark 0
AnchorPoint: "BottomMkMk" -908 -493 basemark 0
AnchorPoint: "BottomMkMk" -812 0 mark 0
Fore
-1061 -42 m 17,0,-1
 -581 -42 l 1,1,-1
 -669 -492 l 1,2,-1
 -1149 -492 l 9,3,-1
 -1061 -42 l 17,0,-1
-918 -207 m 9,4,-1
 -942 -327 l 17,5,-1
 -812 -327 l 1,6,-1
 -788 -207 l 1,7,-1
 -918 -207 l 9,4,-1
EndSplineSet
EndChar
StartChar: uni033C
Encoding: 828 828 387
Width: 0
Flags: W
TeX: 117 0 0 0
HStem: -265 149<-1096.5 -989.5 -695 -583>
Fore
-810 -373 m 9,0,-1
 -962 -373 l 17,1,2
 -952 -325 -952 -325 -985 -285 c 0,3,4
 -1002 -264 -1002 -264 -1069 -264 c 0,5,6
 -1124 -264 -1124 -264 -1174 -306 c 0,7,8
 -1232 -355 -1232 -355 -1242 -403 c 9,9,-1
 -1361 -403 l 17,10,11
 -1337 -283 -1337 -283 -1237 -199 c 128,-1,12
 -1137 -115 -1137 -115 -1039 -115 c 0,13,14
 -940 -115 -940 -115 -872 -199 c 0,15,16
 -863 -210 -863 -210 -856 -220 c 1,17,18
 -846 -210 -846 -210 -832 -199 c 0,19,20
 -719 -115 -719 -115 -633 -115 c 0,21,22
 -533 -115 -533 -115 -467 -199 c 0,23,24
 -400 -285 -400 -285 -423 -403 c 9,25,-1
 -542 -403 l 17,26,27
 -531 -347 -531 -347 -572 -306 c 0,28,29
 -615 -265 -615 -265 -661 -264 c 0,30,31
 -729 -264 -729 -264 -753 -285 c 0,32,33
 -801 -329 -801 -329 -810 -373 c 9,0,-1
EndSplineSet
EndChar
StartChar: uni033D
Encoding: 829 829 388
Width: 0
Flags: W
TeX: 117 0 0 0
AnchorPoint: "Top" -594 1120 mark 0
AnchorPoint: "TopMkMk" -575 1220 mark 0
AnchorPoint: "TopMkMk" -494 1638 basemark 0
Fore
-486 1262 m 1,0,-1
 -551 1349 l 1,1,-1
 -651 1262 l 1,2,-1
 -851 1262 l 1,3,-1
 -633 1449 l 1,4,-1
 -778 1638 l 1,5,-1
 -578 1638 l 1,6,-1
 -511 1552 l 1,7,-1
 -413 1638 l 1,8,-1
 -213 1638 l 1,9,-1
 -431 1449 l 1,10,-1
 -286 1262 l 1,11,-1
 -486 1262 l 1,0,-1
EndSplineSet
EndChar
StartChar: uni033E
Encoding: 830 830 389
Width: 0
Flags: W
TeX: 117 0 0 0
HStem: 1202 139<-720 -652> 1759 139<-371 -303>
AnchorPoint: "Top" -594 1120 mark 0
AnchorPoint: "TopMkMk" -575 1220 mark 0
AnchorPoint: "TopMkMk" -494 1638 basemark 0
Fore
-597 1552 m 2,0,1
 -621 1599 -621 1599 -627 1632 c 0,2,3
 -632 1666 -632 1666 -625 1702 c 0,4,5
 -607 1795 -607 1795 -523 1846 c 0,6,7
 -439 1898 -439 1898 -303 1898 c 1,8,-1
 -330 1759 l 1,9,-1
 -338 1759 l 2,10,11
 -395 1759 -395 1759 -431 1739 c 128,-1,12
 -467 1719 -467 1719 -474 1683 c 0,13,14
 -477 1668 -477 1668 -472 1650 c 0,15,16
 -468 1631 -468 1631 -457 1609 c 2,17,-1
 -426 1548 l 2,18,19
 -404 1507 -404 1507 -398 1470 c 0,20,21
 -391 1434 -391 1434 -398 1398 c 0,22,23
 -416 1305 -416 1305 -500 1254 c 0,24,25
 -584 1202 -584 1202 -720 1202 c 1,26,-1
 -693 1341 l 1,27,-1
 -685 1341 l 2,28,29
 -626 1341 -626 1341 -592 1360 c 0,30,31
 -557 1379 -557 1379 -550 1415 c 0,32,33
 -545 1440 -545 1440 -567 1487 c 0,34,35
 -570 1493 -570 1493 -571 1497 c 2,36,-1
 -597 1552 l 2,0,1
EndSplineSet
EndChar
StartChar: uni0346
Encoding: 838 838 391
Width: 0
Flags: W
TeX: 117 0 0 0
HStem: 1309 300<-812 -243> 1429 180<-667 -184>
AnchorPoint: "TopMkMk" -494 1638 basemark 0
AnchorPoint: "TopMkMk" -575 1220 mark 0
AnchorPoint: "Top" -594 1120 mark 0
Fore
-243 1309 m 1,0,-1
 -423 1309 l 1,1,-1
 -399 1429 l 1,2,-1
 -667 1429 l 1,3,-1
 -691 1309 l 1,4,-1
 -871 1309 l 1,5,-1
 -812 1609 l 1,6,-1
 -184 1609 l 1,7,-1
 -243 1309 l 1,0,-1
EndSplineSet
EndChar
StartChar: uni0347
Encoding: 839 839 392
Width: 0
Flags: W
TeX: 117 0 0 0
HStem: -462 150<-1097 -676> -222 150<-1050 -629>
AnchorPoint: "BottomMkMk" -811 0 mark 0
AnchorPoint: "BottomMkMk" -901 -463 basemark 0
AnchorPoint: "Bottom" -811 0 mark 0
Fore
-676 -462 m 25,0,-1
 -1126 -462 l 17,1,-1
 -1097 -312 l 1,2,-1
 -647 -312 l 9,3,-1
 -676 -462 l 25,0,-1
-629 -222 m 25,4,-1
 -1079 -222 l 17,5,-1
 -1050 -72 l 1,6,-1
 -600 -72 l 9,7,-1
 -629 -222 l 25,4,-1
EndSplineSet
EndChar
StartChar: uni0348
Encoding: 840 840 393
Width: 0
Flags: W
TeX: 117 0 0 0
AnchorPoint: "Bottom" -811 0 mark 0
AnchorPoint: "BottomMkMk" -901 -463 basemark 0
AnchorPoint: "BottomMkMk" -811 0 mark 0
Fore
-1098 -116 m 5,0,-1
 -888 -116 l 5,1,-1
 -962 -492 l 5,2,-1
 -1172 -492 l 5,3,-1
 -1098 -116 l 5,0,-1
-778 -116 m 5,4,-1
 -568 -116 l 5,5,-1
 -642 -492 l 5,6,-1
 -852 -492 l 5,7,-1
 -778 -116 l 5,4,-1
EndSplineSet
EndChar
StartChar: uni0349
Encoding: 841 841 394
Width: 0
Flags: W
TeX: 117 0 0 0
HStem: -222 180<-1064 -799>
AnchorPoint: "Bottom" -811 0 mark 0
AnchorPoint: "BottomMkMk" -901 -463 basemark 0
AnchorPoint: "BottomMkMk" -811 0 mark 0
Fore
-1058 -42 m 5,0,-1
 -578 -42 l 5,1,-1
 -666 -492 l 5,2,-1
 -846 -492 l 5,3,-1
 -793 -222 l 5,4,-1
 -1093 -222 l 5,5,-1
 -1058 -42 l 5,0,-1
EndSplineSet
EndChar
StartChar: uni034A
Encoding: 842 842 395
Width: 0
Flags: W
TeX: 117 0 0 0
HStem: 1309 149<-462 -399.5> 1425 150<-738.5 -676.5>
AnchorPoint: "Top" -594 1120 mark 0
AnchorPoint: "TopMkMk" -575 1220 mark 0
AnchorPoint: "TopMkMk" -494 1638 basemark 0
Fore
-540 1354 m 9,0,-1
 -616 1262 l 1,1,-1
 -756 1262 l 1,2,-1
 -629 1414 l 17,3,4
 -653 1425 -653 1425 -672 1425 c 0,5,6
 -704 1425 -704 1425 -730 1395 c 128,-1,7
 -756 1365 -756 1365 -766 1315 c 2,8,-1
 -767 1309 l 1,9,-1
 -906 1309 l 1,10,11
 -905 1314 -905 1314 -902 1324 c 128,-1,12
 -899 1334 -899 1334 -898 1339 c 0,13,14
 -877 1445 -877 1445 -812 1510 c 0,15,16
 -745 1575 -745 1575 -658 1575 c 0,17,18
 -621 1575 -621 1575 -587 1562 c 0,19,20
 -557 1552 -557 1552 -530 1534 c 9,21,-1
 -444 1638 l 1,22,-1
 -305 1638 l 1,23,-1
 -442 1472 l 17,24,25
 -435 1468 -435 1468 -430 1466 c 0,26,27
 -416 1458 -416 1458 -396 1458 c 0,28,29
 -359 1458 -359 1458 -334 1488 c 0,30,31
 -308 1518 -308 1518 -297 1575 c 1,32,-1
 -158 1575 l 1,33,34
 -159 1569 -159 1569 -162 1559 c 128,-1,35
 -165 1549 -165 1549 -166 1544 c 0,36,37
 -187 1438 -187 1438 -252 1374 c 0,38,39
 -319 1309 -319 1309 -406 1309 c 0,40,41
 -444 1309 -444 1309 -477 1320 c 0,42,43
 -507 1330 -507 1330 -540 1354 c 9,0,-1
EndSplineSet
EndChar
StartChar: uni034B
Encoding: 843 843 396
Width: 0
Flags: W
TeX: 117 0 0 0
AnchorPoint: "Top" -594 1120 mark 0
AnchorPoint: "TopMkMk" -575 1220 mark 0
AnchorPoint: "TopMkMk" -494 1638 basemark 0
Fore
-751 1311 m 1,0,-1
 -571 1311 l 1,1,-1
 -600 1161 l 1,2,-1
 -780 1161 l 1,3,-1
 -751 1311 l 1,0,-1
-458 1740 m 1,4,-1
 -278 1740 l 1,5,-1
 -307 1590 l 1,6,-1
 -487 1590 l 1,7,-1
 -458 1740 l 1,4,-1
EndSplineSet
Refer: 216 732 N 1 0 0 1 -1176 0 0
EndChar
StartChar: uni034D
Encoding: 845 845 398
Width: 0
Flags: W
TeX: 117 0 0 0
HStem: -332 130<-1096 -640>
AnchorPoint: "BottomMkMk" -811 0 mark 0
AnchorPoint: "BottomMkMk" -907 -493 basemark 0
AnchorPoint: "Bottom" -811 0 mark 0
Fore
-806 -472 m 5,0,-1
 -659 -332 l 5,1,-1
 -1090 -332 l 5,2,-1
 -999 -472 l 5,3,-1
 -1156 -472 l 5,4,-1
 -1291 -267 l 5,5,-1
 -1076 -62 l 5,6,-1
 -919 -62 l 5,7,-1
 -1065 -202 l 5,8,-1
 -634 -202 l 5,9,-1
 -726 -62 l 5,10,-1
 -570 -62 l 5,11,-1
 -435 -267 l 5,12,-1
 -650 -472 l 5,13,-1
 -806 -472 l 5,0,-1
EndSplineSet
EndChar
StartChar: uni034E
Encoding: 846 846 399
Width: 0
Flags: W
TeX: 117 0 0 0
AnchorPoint: "BottomMkMk" -811 0 mark 0
AnchorPoint: "BottomMkMk" -907 -493 basemark 0
AnchorPoint: "Bottom" -811 0 mark 0
Fore
-842 -492 m 13,0,-1
 -972 -492 l 21,8,-1
 -935 -304 l 5,7,-1
 -1116 -436 l 5,6,-1
 -1085 -280 l 5,5,-1
 -829 -92 l 5,4,-1
 -645 -280 l 5,3,-1
 -676 -436 l 5,2,-1
 -805 -304 l 5,1,-1
 -842 -492 l 13,0,-1
EndSplineSet
EndChar
StartChar: uni0360
Encoding: 864 864 400
Width: 0
Flags: W
TeX: 117 0 0 0
HStem: 1309 157<369.5 522.5> 1434 157<-251.5 -98.5>
AnchorPoint: "TopMkMk" -590 1142 mark 0
AnchorPoint: "TopMkMk" -490 1660 basemark 0
AnchorPoint: "Top" -590 1142 mark 0
Fore
151 1360 m 6,0,-1
 14 1395 l 6,1,2
 -74 1421 -74 1421 -87 1424 c 4,3,4
 -129 1434 -129 1434 -165 1434 c 4,5,6
 -251 1434 -251 1434 -311 1398 c 4,7,8
 -393 1350 -393 1350 -404 1309 c 5,9,-1
 -596 1309 l 5,10,11
 -565 1444 -565 1444 -438 1518 c 4,12,13
 -312 1591 -312 1591 -117 1591 c 4,14,15
 -6 1591 -6 1591 54 1577 c 4,16,17
 80 1571 80 1571 194 1540 c 6,18,-1
 331 1505 l 6,19,20
 419 1479 419 1479 433 1476 c 4,21,22
 475 1466 475 1466 511 1466 c 4,23,24
 590 1466 590 1466 657 1502 c 4,25,26
 738 1546 738 1546 749 1591 c 5,27,-1
 941 1591 l 5,28,29
 911 1456 911 1456 783 1382 c 4,30,31
 657 1309 657 1309 462 1309 c 4,32,33
 351 1309 351 1309 291 1323 c 4,34,35
 265 1329 265 1329 151 1360 c 6,0,-1
EndSplineSet
EndChar
StartChar: uni0361
Encoding: 865 865 401
Width: 0
Flags: W
TeX: 117 0 0 0
AnchorPoint: "TopMkMk" -590 1142 mark 0
AnchorPoint: "TopMkMk" -490 1660 basemark 0
AnchorPoint: "Top" -590 1142 mark 0
Fore
945 1321 m 5,0,-1
 777 1321 l 5,1,2
 768 1374 768 1374 600 1414 c 4,3,4
 445 1451 445 1451 173 1451 c 4,5,6
 -89 1451 -89 1451 -261 1414 c 4,7,8
 -440 1377 -440 1377 -481 1321 c 5,9,-1
 -649 1321 l 5,10,11
 -598 1464 -598 1464 -386 1536 c 132,-1,12
 -174 1608 -174 1608 203 1608 c 132,-1,13
 580 1608 580 1608 764 1536 c 4,14,15
 945 1465 945 1465 945 1327 c 4,16,17
 945 1321 l 5,0,-1
EndSplineSet
EndChar
StartChar: uni0362
Encoding: 866 866 402
Width: 0
Flags: W
TeX: 117 0 0 0
HStem: -332 130<-1073 565>
AnchorPoint: "BottomMkMk" -811 0 mark 0
AnchorPoint: "BottomMkMk" -907 -493 basemark 0
AnchorPoint: "Bottom" -811 0 mark 0
Fore
-1092 -332 m 13,0,-1
 -1067 -202 l 21,8,-1
 571 -202 l 5,7,-1
 479 -62 l 5,6,-1
 635 -62 l 5,5,-1
 770 -267 l 5,4,-1
 555 -472 l 5,3,-1
 399 -472 l 5,2,-1
 546 -332 l 5,1,-1
 -1092 -332 l 13,0,-1
EndSplineSet
EndChar
StartChar: Hbar
Encoding: 294 294 434
Width: 1714
Flags: W
TeX: 72 0 0 0
HStem: 0 21G<42 427 995 1380> 633 291<606 1118> 1080 250<158 252 685 1205 1638 1731> 1080 413<332 1205 1285 1731>
Fore
1205 1080 m 17,0,0
 637 1080 l 9,0,0
 606 924 l 1,2,-1
 1174 924 l 1,3,-1
 1205 1080 l 17,0,0
1590 1080 m 9,0,0
 1380 0 l 1,6,-1
 995 0 l 1,7,-1
 1118 633 l 1,8,-1
 550 633 l 1,9,-1
 427 0 l 1,10,-1
 42 0 l 1,11,-1
 252 1080 l 17,0,0
 111 1080 l 1,9,-1
 159 1330 l 5,8,-1
 300 1330 l 13,0,0
 332 1493 l 1,0,-1
 717 1493 l 1,1,-1
 685 1330 l 21,0,0
 1253 1330 l 13,0,0
 1285 1493 l 1,4,-1
 1670 1493 l 1,5,-1
 1638 1330 l 21,0,0
 1779 1330 l 5,8,-1
 1731 1080 l 1,9,-1
 1590 1080 l 9,0,0
EndSplineSet
EndChar
StartChar: hbar
Encoding: 295 295 435
Width: 1458
Flags: W
TeX: 104 0 0 0
HStem: 0 21G<58 416 824 1184> 877 270<827 1012> 1237 205<183 299 696 985> 1237 319<361 985>
VStem: 959 374<748 833>
Fore
925 520 m 18,4,5
 954 667 954 667 958 722 c 128,-1,6
 959 736 959 736 959 748 c 0,0,0
 959 784 959 784 951 803 c 0,7,8
 937 838 937 838 905 858 c 128,-1,9
 873 877 873 877 827 877 c 0,10,11
 715 877 715 877 634 790 c 128,-1,12
 553 704 553 704 523 551 c 2,13,-1
 416 0 l 1,14,-1
 58 0 l 1,15,-1
 299 1237 l 21,0,0
 145 1237 l 5,9,-1
 184 1442 l 5,8,-1
 338 1442 l 13,0,0
 361 1556 l 1,16,-1
 719 1556 l 1,17,-1
 696 1442 l 21,0,0
 1024 1442 l 5,3,-1
 985 1237 l 5,2,-1
 657 1237 l 13,0,0
 602 956 l 1,18,19
 702 1054 702 1054 802 1100 c 128,-1,20
 902 1147 902 1147 1012 1147 c 0,21,22
 1206 1147 1206 1147 1284 1028 c 128,-1,23
 1333 952 1333 952 1333 833 c 0,0,0
 1333 765 1333 765 1317 682 c 2,0,-1
 1184 0 l 1,1,-1
 824 0 l 9,2,-1
 925 520 l 18,4,5
EndSplineSet
EndChar
StartChar: Eng
Encoding: 330 330 466
Width: 1714
Flags: W
TeX: 69 0 0 0
HStem: 0 21G<42 407> 1473 20G<332 762 1305 1672>
Fore
956 -19 m 13,0,0
 606 1024 l 5,7,-1
 407 0 l 5,8,-1
 42 0 l 5,9,-1
 332 1493 l 5,0,-1
 762 1493 l 5,1,-1
 1106 469 l 5,2,-1
 1305 1493 l 5,3,-1
 1672 1493 l 5,1,-1
 1410 145 l 6,2,3
 1356 -134 1356 -134 1177 -272 c 132,-1,4
 999 -410 999 -410 692 -410 c 6,5,-1
 614 -410 l 5,6,-1
 671 -119 l 5,7,-1
 731 -119 l 6,8,9
 851 -119 851 -119 926 -52 c 132,-1,10
 942 -37 942 -37 956 -19 c 13,0,0
EndSplineSet
EndChar
StartChar: eng
Encoding: 331 331 467
Width: 1458
Flags: W
TeX: 101 0 0 0
HStem: 0 21G<58 416> 877 270<827 1012>
VStem: 959 374<748 833>
Fore
1317 682 m 14,0,-1
 1188 20 l 22,2,3
 1144 -205 1144 -205 1013 -324 c 132,-1,4
 882 -442 882 -442 677 -442 c 6,5,-1
 500 -442 l 5,6,-1
 546 -207 l 5,7,-1
 606 -207 l 6,8,9
 708 -207 708 -207 755 -161 c 132,-1,10
 802 -115 802 -115 828 20 c 6,11,-1
 926 522 l 6,4,5
 954 667 954 667 958 722 c 132,-1,6
 959 736 959 736 959 748 c 0,0,0
 959 784 959 784 951 803 c 4,7,8
 937 838 937 838 905 858 c 132,-1,9
 873 877 873 877 827 877 c 4,10,11
 715 877 715 877 634 790 c 132,-1,12
 553 704 553 704 523 551 c 6,13,-1
 416 0 l 5,14,-1
 58 0 l 5,15,-1
 276 1120 l 5,16,-1
 634 1120 l 5,17,-1
 602 956 l 5,18,19
 702 1054 702 1054 802 1100 c 132,-1,20
 902 1147 902 1147 1012 1147 c 4,21,22
 1206 1147 1206 1147 1284 1028 c 132,-1,23
 1333 952 1333 952 1333 833 c 0,0,0
 1333 765 1333 765 1317 682 c 14,0,-1
EndSplineSet
EndChar
StartChar: Tbar
Encoding: 358 358 488
Width: 1397
Flags: W
TeX: 84 0 0 0
HStem: 0 21G<360 745> 633 291<303 483 924 1103> 1202 291<153 593 154 1473>
Fore
868 633 m 13,0,0
 745 0 l 1,4,-1
 360 0 l 1,5,-1
 483 633 l 21,0,0
 248 633 l 1,16,-1
 304 924 l 1,17,-1
 539 924 l 13,0,0
 593 1202 l 1,6,-1
 97 1202 l 1,7,-1
 154 1493 l 1,0,-1
 1530 1493 l 1,1,-1
 1473 1202 l 1,2,-1
 978 1202 l 1,3,-1
 924 924 l 21,0,0
 1159 924 l 1,17,-1
 1103 633 l 1,16,-1
 868 633 l 13,0,0
EndSplineSet
EndChar
StartChar: tbar
Encoding: 359 359 489
Width: 979
Flags: W
TeX: 116 0 0 0
HStem: 0 256<620 787> 476 236<50 184 587 911> 874 246<130 261 667 988> 874 564<371 988>
VStem: 152 367<251 338>
Fore
542 476 m 13,0,0
 525 389 l 2,5,6
 519 360 519 360 519 338 c 0,0,0
 519 301 519 301 535 284 c 128,-1,7
 561 256 561 256 653 256 c 2,8,-1
 837 256 l 1,9,-1
 787 0 l 1,10,-1
 480 0 l 2,11,12
 268 0 268 0 197 88 c 128,-1,13
 152 145 152 145 152 251 c 0,0,0
 152 312 152 312 167 389 c 2,14,-1
 184 476 l 21,0,0
 6 476 l 5,16,-1
 51 712 l 1,17,-1
 229 712 l 9,0,0
 261 874 l 1,15,-1
 83 874 l 1,16,-1
 131 1120 l 1,17,-1
 309 1120 l 1,18,-1
 371 1438 l 1,19,-1
 729 1438 l 1,0,-1
 667 1120 l 1,1,-1
 1036 1120 l 1,2,-1
 988 874 l 1,3,-1
 619 874 l 1,4,-1
 587 712 l 17,0,0
 956 712 l 1,2,-1
 911 476 l 5,3,-1
 542 476 l 13,0,0
EndSplineSet
EndChar
StartChar: longs
Encoding: 383 383 510
Width: 891
Flags: W
TeX: 108 0 0 0
HStem: 0 21G<103 461> 1100 20G<143 321> 1321 235<717 1052>
AnchorPoint: "Top" 668 1493 basechar 0
Fore
694 1198 m 10,0,-1
 461 0 l 17,1,-1
 103 0 l 1,2,-1
 271 864 l 1,3,-1
 93 864 l 1,4,-1
 143 1120 l 1,5,-1
 321 1120 l 1,6,-1
 336 1198 l 2,7,8
 372 1381 372 1381 490 1468 c 0,9,10
 610 1556 610 1556 824 1556 c 2,11,-1
 1098 1556 l 1,12,-1
 1052 1321 l 1,13,-1
 854 1321 l 2,14,15
 778 1321 778 1321 743 1294 c 0,16,17
 707 1266 707 1266 694 1198 c 10,0,-1
EndSplineSet
EndChar
StartChar: uni0180
Encoding: 384 384 511
Width: 1466
Flags: W
TeX: 117 0 0 0
HStem: -29 260<641.5 884.5> 1127 20G<951.5 1113.5> 1237 205<184 338 657 985>
AnchorPoint: "Top" 943 1493 basechar 0
AnchorPoint: "Bottom" 653 0 basechar 0
Fore
699 231 m 0,0,1
 814 231 814 231 891 315 c 128,-1,2
 968 399 968 399 999 559 c 0,3,4
 1012 626 1012 626 1012 679 c 0,5,6
 1012 754 1012 754 986 803 c 0,7,8
 942 887 942 887 827 887 c 128,-1,9
 712 887 712 887 634 802 c 0,10,11
 556 718 556 718 525 559 c 0,12,13
 512 495 512 495 512 443 c 0,14,15
 512 366 512 366 540 316 c 0,16,17
 584 231 584 231 699 231 c 0,0,1
602 956 m 17,18,19
 695 1054 695 1054 794 1100 c 0,20,21
 893 1147 893 1147 1010 1147 c 0,22,23
 1217 1147 1217 1147 1318 982 c 0,24,25
 1385 873 1385 873 1385 721 c 0,26,27
 1385 645 1385 645 1369 559 c 0,28,29
 1318 300 1318 300 1154 136 c 0,30,31
 988 -29 988 -29 781 -29 c 0,32,33
 664 -29 664 -29 584 18 c 0,34,35
 503 64 503 64 448 162 c 1,36,-1
 416 0 l 1,37,-1
 58 0 l 5,38,-1
 299 1237 l 17,39,-1
 145 1237 l 1,40,-1
 184 1442 l 1,41,-1
 338 1442 l 9,42,-1
 361 1556 l 1,43,-1
 719 1556 l 1,44,-1
 696 1442 l 17,45,-1
 1024 1442 l 1,46,-1
 985 1237 l 1,47,-1
 657 1237 l 9,48,-1
 602 956 l 17,18,19
EndSplineSet
EndChar
StartChar: uni0181
Encoding: 385 385 512
Width: 1661
Flags: W
TeX: 117 0 0 0
HStem: 0 262<578 930> 1231 262<766 1165.5> 1353 140<385 495>
VStem: 9 165<1133.5 1206.5>
AnchorPoint: "Bottom" 724 0 basechar 0
AnchorPoint: "TopCap" 1014 1493 basechar 0
Fore
1010 1493 m 18,0,1
 1321 1493 1321 1493 1442 1399 c 0,2,3
 1533 1328 1533 1328 1533 1194 c 0,4,5
 1533 1149 1533 1149 1523 1098 c 0,6,7
 1502 989 1502 989 1436 912 c 0,8,9
 1370 836 1370 836 1266 799 c 1,10,11
 1383 763 1383 763 1432 666 c 0,12,13
 1464 604 1464 604 1464 523 c 0,14,15
 1464 478 1464 478 1454 428 c 0,16,17
 1412 212 1412 212 1245 106 c 0,18,19
 1079 0 1079 0 781 0 c 2,20,-1
 142 0 l 1,21,-1
 405 1353 l 29,22,-1
 385 1353 l 6,23,24
 296 1353 296 1353 247 1315 c 4,25,26
 185 1267 185 1267 176 1219 c 4,27,28
 174 1211 174 1211 174 1202 c 0,29,30
 174 1163 174 1163 210 1124 c 13,31,-1
 65 1033 l 21,32,33
 9 1094 9 1094 9 1173 c 0,34,35
 9 1197 9 1197 14 1222 c 4,36,37
 36 1333 36 1333 138 1411 c 4,38,39
 204 1462 204 1462 283 1480 c 4,40,41
 339 1493 339 1493 495 1493 c 14,42,-1
 1010 1493 l 18,0,1
918 915 m 2,43,44
 1009 915 1009 915 1063 955 c 0,45,46
 1118 995 1118 995 1133 1073 c 0,47,48
 1138 1094 1138 1094 1138 1113 c 0,49,50
 1138 1161 1138 1161 1109 1190 c 0,51,52
 1070 1231 1070 1231 979 1231 c 2,53,-1
 766 1231 l 1,54,-1
 705 915 l 1,55,-1
 918 915 l 2,43,44
804 262 m 2,56,57
 920 262 920 262 988 311 c 128,-1,58
 1056 360 1056 360 1075 459 c 0,59,60
 1080 486 1080 486 1080 509 c 0,61,62
 1080 569 1080 569 1045 604 c 0,63,64
 997 653 997 653 880 653 c 2,65,-1
 654 653 l 1,66,-1
 578 262 l 1,67,-1
 804 262 l 2,56,57
EndSplineSet
EndChar
StartChar: uni0182
Encoding: 386 386 513
Width: 1561
Flags: W
TeX: 117 0 0 0
HStem: 0 262<478 822.5> 1473 20G<332 1361>
AnchorPoint: "TopCap" 914 1493 basechar 0
AnchorPoint: "Bottom" 624 0 basechar 0
Fore
704 262 m 2,0,1
 825 262 825 262 888 307 c 0,2,3
 955 356 955 356 973 449 c 0,4,5
 978 473 978 473 978 494 c 0,6,7
 978 553 978 553 942 588 c 0,8,9
 898 633 898 633 776 633 c 2,10,-1
 550 633 l 1,11,-1
 478 262 l 1,12,-1
 704 262 l 2,0,1
681 0 m 10,13,-1
 42 0 l 17,14,-1
 332 1493 l 1,15,-1
 1361 1493 l 25,16,-1
 1304 1202 l 25,17,-1
 660 1202 l 25,18,-1
 606 924 l 1,19,-1
 860 924 l 2,20,21
 1143 924 1143 924 1282 807 c 0,22,23
 1373 730 1373 730 1373 581 c 0,24,25
 1373 526 1373 526 1360 461 c 8,26,27
 1314 223 1314 223 1148 117 c 0,28,29
 964 0 964 0 681 0 c 10,13,-1
EndSplineSet
EndChar
StartChar: uni0183
Encoding: 387 387 514
Width: 1466
Flags: W
TeX: 117 0 0 0
HStem: -29 260<641.5 884.5> 1473 20G<348 1353>
AnchorPoint: "Top" 943 1493 basechar 0
AnchorPoint: "Bottom" 653 0 basechar 0
Fore
699 231 m 0,0,1
 814 231 814 231 891 315 c 128,-1,2
 968 399 968 399 999 559 c 0,3,4
 1012 626 1012 626 1012 679 c 0,5,6
 1012 754 1012 754 986 803 c 0,7,8
 942 887 942 887 827 887 c 128,-1,9
 712 887 712 887 634 802 c 0,10,11
 556 718 556 718 525 559 c 0,12,13
 512 495 512 495 512 443 c 0,14,15
 512 366 512 366 540 316 c 0,16,17
 584 231 584 231 699 231 c 0,0,1
600 946 m 17,18,19
 654 1011 654 1011 790 1080 c 0,20,21
 862 1117 862 1117 1004 1117 c 0,22,23
 1219 1117 1219 1117 1314 962 c 0,24,25
 1383 850 1383 850 1383 702 c 0,26,27
 1383 634 1383 634 1369 559 c 0,28,29
 1318 300 1318 300 1154 136 c 0,30,31
 988 -29 988 -29 781 -29 c 0,32,33
 664 -29 664 -29 584 18 c 0,34,35
 503 64 503 64 448 162 c 1,36,-1
 416 0 l 1,37,-1
 58 0 l 1,38,-1
 348 1493 l 5,39,-1
 1353 1493 l 5,40,-1
 1310 1272 l 5,41,-1
 663 1272 l 13,42,-1
 600 946 l 17,18,19
EndSplineSet
EndChar
StartChar: uni0184
Encoding: 388 388 515
Width: 1561
Flags: W
TeX: 117 0 0 0
HStem: 0 262<478 822.5> 633 291<550 860>
AnchorPoint: "Bottom" 624 0 basechar 0
AnchorPoint: "TopCap" 914 1493 basechar 0
Fore
217 903 m 1,0,-1
 71 1120 l 25,1,-1
 729 1556 l 17,2,-1
 606 924 l 1,3,-1
 860 924 l 2,4,5
 1143 924 1143 924 1282 807 c 0,6,7
 1373 730 1373 730 1373 581 c 0,8,9
 1373 526 1373 526 1360 461 c 8,10,11
 1314 223 1314 223 1148 117 c 0,12,13
 964 0 964 0 681 0 c 10,14,-1
 42 0 l 17,15,-1
 217 903 l 1,0,-1
704 262 m 2,16,17
 825 262 825 262 888 307 c 0,18,19
 955 356 955 356 973 449 c 0,20,21
 978 473 978 473 978 494 c 0,22,23
 978 553 978 553 942 588 c 0,24,25
 898 633 898 633 776 633 c 2,26,-1
 550 633 l 1,27,-1
 478 262 l 1,28,-1
 704 262 l 2,16,17
EndSplineSet
EndChar
StartChar: uni0185
Encoding: 389 389 516
Width: 1466
Flags: W
TeX: 117 0 0 0
HStem: -29 260<641.5 884.5> 1127 20G<951.5 1113.5>
AnchorPoint: "Top" 943 1493 basechar 0
AnchorPoint: "Bottom" 653 0 basechar 0
Fore
237 918 m 5,0,-1
 103 1120 l 29,1,-1
 719 1556 l 21,2,-1
 602 956 l 5,3,4
 695 1054 695 1054 794 1100 c 0,5,6
 893 1147 893 1147 1010 1147 c 0,7,8
 1217 1147 1217 1147 1318 982 c 0,9,10
 1385 873 1385 873 1385 721 c 0,11,12
 1385 645 1385 645 1369 559 c 0,13,14
 1318 300 1318 300 1154 136 c 0,15,16
 988 -29 988 -29 781 -29 c 0,17,18
 664 -29 664 -29 584 18 c 0,19,20
 503 64 503 64 448 162 c 1,21,-1
 416 0 l 1,22,-1
 58 0 l 1,23,-1
 237 918 l 5,0,-1
699 231 m 0,24,25
 814 231 814 231 891 315 c 128,-1,26
 968 399 968 399 999 559 c 0,27,28
 1012 626 1012 626 1012 679 c 0,29,30
 1012 754 1012 754 986 803 c 0,31,32
 942 887 942 887 827 887 c 128,-1,33
 712 887 712 887 634 802 c 0,34,35
 556 718 556 718 525 559 c 0,36,37
 512 495 512 495 512 443 c 0,38,39
 512 366 512 366 540 316 c 0,40,41
 584 231 584 231 699 231 c 0,24,25
EndSplineSet
EndChar
StartChar: uni0186
Encoding: 390 390 517
Width: 1503
Flags: W
TeX: 117 0 0 0
HStem: -29 279<377.5 626.5> 1241 279<598.5 927.5>
AnchorPoint: "TopCap" 739 1493 basechar 0
AnchorPoint: "Bottom" 449 0 basechar 0
AnchorPoint: "Cedilla" 449 0 basechar 0
Fore
259 1409 m 1,0,1
 375 1464 375 1464 496 1492 c 0,2,3
 616 1520 616 1520 741 1520 c 0,4,5
 1114 1520 1114 1520 1292 1312 c 0,6,7
 1419 1162 1419 1162 1419 935 c 0,8,9
 1419 846 1419 846 1400 746 c 0,10,11
 1330 388 1330 388 1072 180 c 0,12,13
 813 -29 813 -29 440 -29 c 0,14,15
 315 -29 315 -29 206 -1 c 0,16,17
 96 27 96 27 1 82 c 1,18,-1
 61 391 l 1,19,20
 154 318 154 318 251 284 c 128,-1,21
 348 250 348 250 463 250 c 0,22,23
 669 250 669 250 813 382 c 128,-1,24
 957 514 957 514 1002 746 c 0,25,26
 1017 822 1017 822 1017 887 c 0,27,28
 1017 1020 1017 1020 954 1109 c 0,29,30
 862 1241 862 1241 656 1241 c 0,31,32
 541 1241 541 1241 430 1207 c 0,33,34
 320 1173 320 1173 199 1100 c 1,35,-1
 259 1409 l 1,0,1
EndSplineSet
EndChar
StartChar: uni0187
Encoding: 391 391 518
Width: 1503
Flags: W
TeX: 117 0 0 0
HStem: -29 279<572.5 901.5> 1241 279<873.5 1114>
AnchorPoint: "TopCap" 1052 1493 basechar 0
AnchorPoint: "Bottom" 762 0 basechar 0
AnchorPoint: "Cedilla" 762 0 basechar 0
Fore
1440 1100 m 21,0,1
 1347 1173 1347 1173 1249 1207 c 4,2,3
 1152 1241 1152 1241 1037 1241 c 0,4,5
 831 1241 831 1241 687 1109 c 0,6,7
 544 977 544 977 499 745 c 0,8,9
 484 669 484 669 484 604 c 0,10,11
 484 471 484 471 546 382 c 0,12,13
 638 250 638 250 844 250 c 0,14,15
 959 250 959 250 1070 284 c 128,-1,16
 1181 318 1181 318 1302 391 c 1,17,-1
 1242 82 l 1,18,19
 1125 27 1125 27 1005 -1 c 0,20,21
 884 -29 884 -29 759 -29 c 0,22,23
 386 -29 386 -29 209 180 c 0,24,25
 81 330 81 330 81 556 c 0,26,27
 81 645 81 645 101 745 c 0,28,29
 170 1103 170 1103 429 1312 c 0,30,31
 687 1520 687 1520 1060 1520 c 0,32,33
 1168 1520 1168 1520 1295 1492 c 4,34,35
 1345 1481 1345 1481 1377 1467 c 5,36,37
 1386 1497 1386 1497 1394 1516 c 4,38,39
 1426 1591 1426 1591 1488 1647 c 4,40,41
 1583 1734 1583 1734 1694 1734 c 4,42,43
 1804 1734 1804 1734 1866 1647 c 13,44,-1
 1750 1519 l 21,45,46
 1713 1572 1713 1572 1665 1572 c 132,-1,47
 1617 1572 1617 1572 1559 1519 c 4,48,49
 1513 1476 1513 1476 1496 1389 c 6,50,-1
 1440 1100 l 21,0,1
EndSplineSet
EndChar
StartChar: uni0188
Encoding: 392 392 519
Width: 1214
Flags: W
TeX: 117 0 0 0
HStem: -29 256<461.5 750> 891 256<690.5 886>
AnchorPoint: "Bottom" 580 0 basechar 0
AnchorPoint: "Top" 797 1120 basechar 0
AnchorPoint: "Cedilla" 580 0 basechar 0
Fore
1117 793 m 21,0,1
 1054 843 1054 843 985 867 c 132,-1,2
 916 891 916 891 837 891 c 0,3,4
 687 891 687 891 586 804 c 0,5,6
 486 716 486 716 456 559 c 0,7,8
 446 509 446 509 446 467 c 0,9,10
 446 374 446 374 491 314 c 0,11,12
 558 227 558 227 708 227 c 0,13,14
 792 227 792 227 873 252 c 0,15,16
 953 277 953 277 1026 326 c 1,17,-1
 970 33 l 1,18,19
 879 2 879 2 789 -14 c 0,20,21
 700 -29 700 -29 613 -29 c 0,22,23
 310 -29 310 -29 170 126 c 0,24,25
 68 239 68 239 68 415 c 0,26,27
 68 482 68 482 83 559 c 0,28,29
 137 836 137 836 338 992 c 0,30,31
 539 1147 539 1147 842 1147 c 0,32,33
 930 1147 930 1147 1012 1132 c 4,34,-1
 1049 1124 l 5,35,36
 1059 1157 1059 1157 1063 1165 c 4,37,38
 1095 1240 1095 1240 1157 1296 c 4,39,40
 1252 1383 1252 1383 1363 1383 c 4,41,42
 1473 1383 1473 1383 1535 1296 c 13,43,-1
 1419 1168 l 21,44,45
 1382 1221 1382 1221 1334 1221 c 132,-1,46
 1286 1221 1286 1221 1228 1168 c 4,47,48
 1182 1125 1182 1125 1165 1038 c 6,49,-1
 1117 793 l 21,0,1
EndSplineSet
EndChar
StartChar: uni018A
Encoding: 394 394 521
Width: 1800
Flags: W
TeX: 117 0 0 0
HStem: 0 21G<142 548> 1202 291<760 1008> 1353 140<385 495>
VStem: 9 165<1133.5 1206.5>
AnchorPoint: "TopCap" 1092 1493 basechar 0
AnchorPoint: "Bottom" 802 0 basechar 0
Fore
760 1202 m 5,0,-1
 583 291 l 5,1,-1
 721 291 l 6,2,3
 957 291 957 291 1105 408 c 4,4,5
 1252 525 1252 525 1295 748 c 4,6,7
 1308 814 1308 814 1308 871 c 0,8,9
 1308 1005 1308 1005 1237 1086 c 4,10,11
 1135 1202 1135 1202 898 1202 c 6,12,-1
 760 1202 l 5,0,-1
838 1493 m 22,13,14
 1178 1493 1178 1493 1335 1444 c 4,15,16
 1492 1396 1492 1396 1589 1280 c 4,17,18
 1674 1179 1674 1179 1699 1047 c 4,19,20
 1710 989 1710 989 1710 925 c 0,21,22
 1710 842 1710 842 1692 748 c 4,23,24
 1659 579 1659 579 1583 446 c 4,25,26
 1506 314 1506 314 1381 213 c 4,27,28
 1239 97 1239 97 1061 48 c 4,29,30
 884 0 884 0 548 0 c 6,31,-1
 142 0 l 5,32,-1
 405 1353 l 29,33,-1
 385 1353 l 6,34,35
 296 1353 296 1353 247 1315 c 4,36,37
 185 1267 185 1267 176 1219 c 4,38,39
 174 1211 174 1211 174 1202 c 0,40,41
 174 1163 174 1163 210 1124 c 13,42,-1
 65 1033 l 21,43,44
 9 1094 9 1094 9 1173 c 0,45,46
 9 1197 9 1197 14 1222 c 4,47,48
 36 1333 36 1333 138 1411 c 4,49,50
 204 1462 204 1462 283 1480 c 4,51,52
 339 1493 339 1493 495 1493 c 14,53,-1
 838 1493 l 22,13,14
EndSplineSet
EndChar
StartChar: uni018B
Encoding: 395 395 522
Width: 1561
Flags: W
TeX: 117 0 0 0
HStem: 0 262<448.5 895> 633 291<741 1023> 1202 291<490 1519>
AnchorPoint: "Bottom" 647 0 basechar 0
AnchorPoint: "TopCap" 937 1493 basechar 0
Fore
669 262 m 2,0,-1
 895 262 l 1,1,-1
 967 633 l 1,2,-1
 741 633 l 2,3,4
 619 633 619 633 557 588 c 0,5,6
 490 540 490 540 472 449 c 0,7,8
 467 424 467 424 467 402 c 0,9,10
 467 343 467 343 503 307 c 0,11,12
 548 262 548 262 669 262 c 2,0,-1
590 0 m 18,13,14
 307 0 307 0 169 117 c 0,15,16
 77 194 77 194 77 342 c 0,17,18
 77 397 77 397 89 461 c 8,19,20
 136 701 136 701 303 807 c 0,21,22
 486 924 486 924 769 924 c 2,23,-1
 1023 924 l 1,24,-1
 1077 1202 l 25,25,-1
 433 1202 l 25,26,-1
 490 1493 l 25,27,-1
 1519 1493 l 1,28,-1
 1229 0 l 9,29,-1
 590 0 l 18,13,14
EndSplineSet
EndChar
StartChar: uni018C
Encoding: 396 396 523
Width: 1466
Flags: W
TeX: 117 0 0 0
HStem: -29 21G<341.5 503.5> 0 21G<822 1180> 1272 221<465 1470>
AnchorPoint: "Top" 875 1493 basechar 0
AnchorPoint: "Bottom" 585 0 basechar 0
Fore
629 231 m 4,0,1
 744 231 744 231 822 316 c 4,2,3
 900 400 900 400 931 559 c 4,4,5
 943 623 943 623 943 675 c 0,6,7
 943 752 943 752 916 802 c 4,8,9
 872 887 872 887 757 887 c 132,-1,10
 642 887 642 887 564 803 c 4,11,12
 488 719 488 719 457 559 c 4,13,14
 444 492 444 492 444 439 c 0,15,16
 444 364 444 364 469 315 c 4,17,18
 514 231 514 231 629 231 c 4,0,1
1006 946 m 13,19,-1
 1069 1272 l 21,20,-1
 422 1272 l 5,21,-1
 465 1493 l 5,22,-1
 1470 1493 l 5,23,-1
 1180 0 l 5,24,-1
 822 0 l 5,25,-1
 854 162 l 5,26,27
 761 64 761 64 662 18 c 4,28,29
 562 -29 562 -29 445 -29 c 4,30,31
 238 -29 238 -29 138 136 c 4,32,33
 70 245 70 245 70 397 c 0,34,35
 70 473 70 473 87 559 c 4,36,37
 133 798 133 798 298 962 c 4,38,39
 453 1117 453 1117 668 1117 c 4,40,41
 810 1117 810 1117 868 1080 c 4,42,43
 978 1011 978 1011 1006 946 c 13,19,-1
EndSplineSet
EndChar
StartChar: uni018D
Encoding: 397 397 524
Width: 1407
Flags: W
TeX: 117 0 0 0
HStem: -426 238<331.5 728> 893 254<669.5 956>
Fore
116 -118 m 21,0,1
 225 -188 225 -188 511 -188 c 4,2,3
 714 -188 714 -188 729 -111 c 20,4,5
 729 -101 l 0,6,7
 729 -34 729 -34 534 -2 c 4,8,9
 307 35 307 35 176 157 c 4,10,11
 71 255 71 255 71 429 c 0,12,13
 71 494 71 494 86 569 c 4,14,15
 137 834 137 834 332 990 c 4,16,17
 526 1147 526 1147 813 1147 c 4,18,19
 1099 1147 1099 1147 1235 990 c 4,20,21
 1330 879 1330 879 1330 706 c 0,22,23
 1330 638 1330 638 1315 559 c 4,24,25
 1274 351 1274 351 1079 190 c 4,26,27
 1018 140 1018 140 948 108 c 5,28,29
 1053 46 1053 46 1053 -81 c 0,30,31
 1053 -115 1053 -115 1045 -154 c 12,32,33
 992 -426 992 -426 464 -426 c 4,34,35
 199 -426 199 -426 70 -356 c 13,36,-1
 116 -118 l 21,0,1
721 238 m 5,37,38
 779 260 779 260 832 316 c 4,39,40
 914 403 914 403 945 560 c 4,41,42
 957 620 957 620 957 670 c 0,43,44
 957 751 957 751 927 805 c 4,45,46
 879 893 879 893 764 893 c 4,47,48
 652 893 652 893 568 804 c 4,49,50
 485 714 485 714 457 568 c 4,51,52
 446 515 446 515 446 471 c 0,53,54
 446 389 446 389 482 341 c 4,55,56
 539 264 539 264 636 253 c 4,57,58
 681 248 681 248 721 238 c 5,37,38
EndSplineSet
EndChar
StartChar: uni018E
Encoding: 398 398 525
Width: 1399
Flags: W
TeX: 117 0 0 0
HStem: 0 21G<4 1065> 633 291<244 859> 1202 291<316 1355>
AnchorPoint: "TopCap" 853 1493 basechar 0
AnchorPoint: "Bottom" 563 0 basechar 0
AnchorPoint: "Cedilla" 563 0 basechar 0
AnchorPoint: "Ogonek" 263 0 basechar 0
Fore
1355 1493 m 1,0,-1
 1065 0 l 1,1,-1
 4 0 l 1,2,-1
 60 291 l 1,3,-1
 736 291 l 1,4,-1
 803 633 l 1,5,-1
 188 633 l 1,6,-1
 244 924 l 1,7,-1
 859 924 l 1,8,-1
 913 1202 l 1,9,-1
 259 1202 l 1,10,-1
 316 1493 l 1,11,-1
 1355 1493 l 1,0,-1
EndSplineSet
EndChar
StartChar: uni018F
Encoding: 399 399 526
Width: 1788
Flags: W
TeX: 117 0 0 0
HStem: -29 279<540.5 906.5> 1240 280<816 1189.5>
AnchorPoint: "Bottom" 747 0 basechar 0
AnchorPoint: "TopCap" 1037 1493 basechar 0
Fore
100 740 m 2,0,-1
 126 873 l 1,1,-1
 1279 873 l 1,2,3
 1280 893 1280 893 1280 911 c 0,4,5
 1280 1058 1280 1058 1193 1151 c 0,6,7
 1105 1240 1105 1240 893 1240 c 0,8,9
 739 1240 739 1240 578 1194 c 0,10,11
 419 1149 419 1149 230 1049 c 1,12,-1
 296 1392 l 1,13,14
 468 1452 468 1452 650 1487 c 0,15,16
 823 1520 823 1520 990 1520 c 0,17,18
 1389 1520 1389 1520 1573 1315 c 0,19,20
 1704 1170 1704 1170 1704 940 c 0,21,22
 1704 849 1704 849 1684 745 c 0,23,24
 1613 384 1613 384 1355 178 c 0,25,26
 1097 -29 1097 -29 716 -29 c 0,27,28
 365 -29 365 -29 199 180 c 0,29,30
 80 329 80 329 80 549 c 0,31,32
 80 639 80 639 100 740 c 2,0,-1
514 582 m 1,33,34
 508 550 508 550 508 519 c 0,35,36
 508 424 508 424 566 339 c 0,37,38
 626 250 626 250 772 250 c 0,39,40
 940 250 940 250 1042 333 c 0,41,42
 1164 434 1164 434 1216 582 c 1,43,-1
 514 582 l 1,33,34
EndSplineSet
EndChar
StartChar: uni0190
Encoding: 400 400 527
Width: 1425
Flags: W
TeX: 117 0 0 0
HStem: -29 262<514 814.5> 645 248<775.5 1011> 1257 263<781.5 991.5>
Fore
481 805 m 5,0,1
 353 839 353 839 300 922 c 4,2,3
 265 979 265 979 265 1057 c 0,4,5
 265 1094 265 1094 273 1137 c 4,6,7
 310 1329 310 1329 473 1424 c 4,8,9
 636 1520 636 1520 927 1520 c 4,10,11
 1035 1520 1035 1520 1144 1504 c 132,-1,12
 1253 1488 1253 1488 1361 1456 c 5,13,-1
 1306 1174 l 5,14,15
 1220 1215 1220 1215 1129 1236 c 132,-1,16
 1038 1257 1038 1257 945 1257 c 4,17,18
 819 1257 819 1257 741 1210 c 132,-1,19
 663 1163 663 1163 646 1077 c 4,20,21
 642 1056 642 1056 642 1037 c 0,22,23
 642 974 642 974 690 938 c 4,24,25
 752 893 752 893 897 893 c 6,26,-1
 1059 893 l 5,27,-1
 1011 645 l 5,28,-1
 857 645 l 6,29,30
 694 645 694 645 601 592 c 4,31,32
 507 540 507 540 487 438 c 4,33,34
 483 417 483 417 483 398 c 0,35,36
 483 328 483 328 539 286 c 4,37,38
 610 233 610 233 763 233 c 4,39,40
 866 233 866 233 978 260 c 4,41,42
 1090 288 1090 288 1208 342 c 5,43,-1
 1151 45 l 5,44,45
 1030 8 1030 8 912 -10 c 4,46,47
 792 -29 792 -29 677 -29 c 4,48,49
 351 -29 351 -29 204 86 c 4,50,51
 89 176 89 176 89 329 c 0,52,53
 89 374 89 374 99 424 c 4,54,55
 128 573 128 573 226 670 c 4,56,57
 323 766 323 766 481 805 c 5,0,1
EndSplineSet
EndChar
